<mxfile host="app.diagrams.net" modified="2022-05-26T07:39:16.687Z" agent="5.0 (Windows NT 10.0; Win64; x64) AppleWebKit/537.36 (KHTML, like Gecko) Chrome/101.0.4951.67 Safari/537.36" etag="3pXQFd5oSzP_RmnrH06v" version="18.1.2" type="github" pages="2">
  <diagram id="yisxb9bP6PgOZ_aUMXfN" name="Page-1">
    <mxGraphModel dx="1022" dy="468" grid="1" gridSize="10" guides="1" tooltips="1" connect="1" arrows="1" fold="1" page="1" pageScale="1" pageWidth="1100" pageHeight="1700" math="0" shadow="0">
      <root>
        <mxCell id="0" />
        <mxCell id="1" parent="0" />
        <mxCell id="oYDGXYUzNn_aLFKgtwb9-1" value="Microservice" style="rounded=0;whiteSpace=wrap;html=1;fillColor=#d5e8d4;strokeColor=#82b366;" parent="1" vertex="1">
          <mxGeometry x="410" y="440" width="180" height="110" as="geometry" />
        </mxCell>
        <mxCell id="oYDGXYUzNn_aLFKgtwb9-2" value="Table" style="shape=table;startSize=30;container=1;collapsible=1;childLayout=tableLayout;fixedRows=1;rowLines=0;fontStyle=1;align=center;resizeLast=1;fillColor=#FFF2CC;strokeColor=#d6b656;" parent="1" vertex="1">
          <mxGeometry x="410" y="650" width="180" height="90" as="geometry" />
        </mxCell>
        <mxCell id="oYDGXYUzNn_aLFKgtwb9-6" value="" style="shape=tableRow;horizontal=0;startSize=0;swimlaneHead=0;swimlaneBody=0;fillColor=none;collapsible=0;dropTarget=0;points=[[0,0.5],[1,0.5]];portConstraint=eastwest;top=0;left=0;right=0;bottom=1;" parent="oYDGXYUzNn_aLFKgtwb9-2" vertex="1">
          <mxGeometry y="30" width="180" height="30" as="geometry" />
        </mxCell>
        <mxCell id="oYDGXYUzNn_aLFKgtwb9-7" value="Project" style="shape=partialRectangle;connectable=0;fillColor=#fff2cc;top=0;left=0;bottom=0;right=0;fontStyle=5;overflow=hidden;strokeColor=#d6b656;" parent="oYDGXYUzNn_aLFKgtwb9-6" vertex="1">
          <mxGeometry width="60" height="30" as="geometry">
            <mxRectangle width="60" height="30" as="alternateBounds" />
          </mxGeometry>
        </mxCell>
        <mxCell id="oYDGXYUzNn_aLFKgtwb9-8" value="Carbon value" style="shape=partialRectangle;connectable=0;fillColor=#fff2cc;top=0;left=0;bottom=0;right=0;align=left;spacingLeft=6;fontStyle=5;overflow=hidden;strokeColor=#d6b656;" parent="oYDGXYUzNn_aLFKgtwb9-6" vertex="1">
          <mxGeometry x="60" width="120" height="30" as="geometry">
            <mxRectangle width="120" height="30" as="alternateBounds" />
          </mxGeometry>
        </mxCell>
        <mxCell id="oYDGXYUzNn_aLFKgtwb9-12" value="" style="shape=tableRow;horizontal=0;startSize=0;swimlaneHead=0;swimlaneBody=0;fillColor=none;collapsible=0;dropTarget=0;points=[[0,0.5],[1,0.5]];portConstraint=eastwest;top=0;left=0;right=0;bottom=0;" parent="oYDGXYUzNn_aLFKgtwb9-2" vertex="1">
          <mxGeometry y="60" width="180" height="30" as="geometry" />
        </mxCell>
        <mxCell id="oYDGXYUzNn_aLFKgtwb9-13" value="RMI" style="shape=partialRectangle;connectable=0;fillColor=#fff2cc;top=0;left=0;bottom=0;right=0;editable=1;overflow=hidden;strokeColor=#d6b656;" parent="oYDGXYUzNn_aLFKgtwb9-12" vertex="1">
          <mxGeometry width="60" height="30" as="geometry">
            <mxRectangle width="60" height="30" as="alternateBounds" />
          </mxGeometry>
        </mxCell>
        <mxCell id="oYDGXYUzNn_aLFKgtwb9-14" value="40 mgCo2" style="shape=partialRectangle;connectable=0;fillColor=#fff2cc;top=0;left=0;bottom=0;right=0;align=left;spacingLeft=6;overflow=hidden;strokeColor=#d6b656;" parent="oYDGXYUzNn_aLFKgtwb9-12" vertex="1">
          <mxGeometry x="60" width="120" height="30" as="geometry">
            <mxRectangle width="120" height="30" as="alternateBounds" />
          </mxGeometry>
        </mxCell>
        <mxCell id="oYDGXYUzNn_aLFKgtwb9-16" value="" style="aspect=fixed;html=1;points=[];align=center;image;fontSize=12;image=img/lib/azure2/general/Dashboard.svg;" parent="1" vertex="1">
          <mxGeometry x="466" y="310" width="68" height="48" as="geometry" />
        </mxCell>
        <mxCell id="oYDGXYUzNn_aLFKgtwb9-17" value="" style="endArrow=classic;startArrow=classic;html=1;rounded=0;exitX=1;exitY=0.5;exitDx=0;exitDy=0;" parent="1" source="NN6bOmch8YNIR143ERD3-4" edge="1">
          <mxGeometry width="50" height="50" relative="1" as="geometry">
            <mxPoint x="670" y="510" as="sourcePoint" />
            <mxPoint x="860" y="455" as="targetPoint" />
          </mxGeometry>
        </mxCell>
        <mxCell id="oYDGXYUzNn_aLFKgtwb9-19" value="" style="endArrow=classic;startArrow=classic;html=1;rounded=0;fontSize=16;exitX=0.5;exitY=0;exitDx=0;exitDy=0;entryX=0.5;entryY=1;entryDx=0;entryDy=0;" parent="1" source="oYDGXYUzNn_aLFKgtwb9-2" target="oYDGXYUzNn_aLFKgtwb9-1" edge="1">
          <mxGeometry width="50" height="50" relative="1" as="geometry">
            <mxPoint x="510" y="530" as="sourcePoint" />
            <mxPoint x="560" y="480" as="targetPoint" />
          </mxGeometry>
        </mxCell>
        <mxCell id="oYDGXYUzNn_aLFKgtwb9-21" value="" style="endArrow=classic;startArrow=classic;html=1;rounded=0;fontSize=16;entryX=0.5;entryY=0.833;entryDx=0;entryDy=0;entryPerimeter=0;exitX=0.5;exitY=0;exitDx=0;exitDy=0;" parent="1" source="oYDGXYUzNn_aLFKgtwb9-1" target="oYDGXYUzNn_aLFKgtwb9-16" edge="1">
          <mxGeometry width="50" height="50" relative="1" as="geometry">
            <mxPoint x="500" y="410" as="sourcePoint" />
            <mxPoint x="560" y="480" as="targetPoint" />
          </mxGeometry>
        </mxCell>
        <mxCell id="oYDGXYUzNn_aLFKgtwb9-22" value="Database" style="text;html=1;align=center;verticalAlign=middle;resizable=0;points=[];autosize=1;strokeColor=none;fillColor=none;fontSize=16;" parent="1" vertex="1">
          <mxGeometry x="460" y="770" width="80" height="20" as="geometry" />
        </mxCell>
        <mxCell id="oYDGXYUzNn_aLFKgtwb9-24" value="Dashboard" style="text;html=1;align=center;verticalAlign=middle;resizable=0;points=[];autosize=1;strokeColor=none;fillColor=none;fontSize=16;" parent="1" vertex="1">
          <mxGeometry x="455" y="270" width="90" height="20" as="geometry" />
        </mxCell>
        <mxCell id="NN6bOmch8YNIR143ERD3-4" value="Rest API" style="rounded=0;whiteSpace=wrap;html=1;fillColor=#00CC66;" parent="1" vertex="1">
          <mxGeometry x="410" y="440" width="180" height="30" as="geometry" />
        </mxCell>
        <mxCell id="NN6bOmch8YNIR143ERD3-6" value="/CalculateCarbon [POST]" style="text;html=1;align=center;verticalAlign=middle;resizable=0;points=[];autosize=1;strokeColor=none;fillColor=none;" parent="1" vertex="1">
          <mxGeometry x="680" y="430" width="150" height="20" as="geometry" />
        </mxCell>
        <mxCell id="NN6bOmch8YNIR143ERD3-7" value="/carbonValue [GET]" style="text;html=1;align=center;verticalAlign=middle;resizable=0;points=[];autosize=1;strokeColor=none;fillColor=none;" parent="1" vertex="1">
          <mxGeometry x="500" y="380" width="120" height="20" as="geometry" />
        </mxCell>
        <mxCell id="pgtYvStC3b5l4Q-WTwik-6" value="" style="endArrow=none;dashed=1;html=1;dashPattern=1 3;strokeWidth=2;rounded=0;" parent="1" edge="1">
          <mxGeometry width="50" height="50" relative="1" as="geometry">
            <mxPoint x="680" y="820" as="sourcePoint" />
            <mxPoint x="680" y="200" as="targetPoint" />
          </mxGeometry>
        </mxCell>
        <mxCell id="pgtYvStC3b5l4Q-WTwik-8" value="RMI" style="text;html=1;align=center;verticalAlign=middle;resizable=0;points=[];autosize=1;strokeColor=none;fillColor=none;" parent="1" vertex="1">
          <mxGeometry x="980" y="500" width="40" height="20" as="geometry" />
        </mxCell>
        <mxCell id="pgtYvStC3b5l4Q-WTwik-13" value="" style="shape=image;imageAspect=0;aspect=fixed;verticalLabelPosition=bottom;verticalAlign=top;image=data:image/png,iVBORw0KGgoAAAANSUhEUgAAAXEAAAJZCAYAAABfkAViAACAAElEQVR42uy9BXhbyZYt3BeG3ps3M2/m3bn/dGLpCMzMdpiZmZmpw9CdDjMzMzOTwxwncZgcpu5OQzrdcaDp9t1/rZKOIsuCc2RJlu2q76tPjmNLxwdW7Vp77bU/+kgMMcQQQwwxxBDDX0d8fPw/aDSa/6vT6bSBGo2evQYbtdpUo0ZX0yBJrfWS1Nug1Y5iX89gr4uMWt0a9vUmu1MrrTNqpWXs52axOdqg1Q1gP9/BKEm19Rp9CUOAIcIYEGAI1mp1BoPhvyVJ+md2CH8QV0EMMcQQw/n4IwPM/zBqNGF6rba6QaPrqNdIn+i10jQGslsY+J5joHufvT42aKRn7PUlm+/Y/IXN39kkN+ff2fv+xl7fs/mKzS/4Z2ilh+yzr7DXfezz5gPs2SLQmS0cDdgCEguAL/NRmT+LyyaGGGIUtvEHvV7/74iqWfSbwqLoLgwcZ7LoeC17vcBA82szMJN/Tu1v7Fi/Z683sLjotbq5AHi9RlMeEXzRokX/EwuSuMxiiCFGgRiIVgFsugBdSVMkK003RdXSUzZfmyJhfwVsVfOdOYrPYJH7AgbsPdgiVZktVn8NCwv7R3EniCGGGPlmmGmRcETZZirkshmwqZBNUDQ3GaDvMXHv2rigj4P+n4jUxRBDDH8bfwJHbAzQ1TIlC3mk/Q2bfyuEwO2QewcNw+ZV8PxsV9JEr9drkLQVt48YYoiRF+MPiCr1Gn0FBtyLGShdZ0D1kwBr5dw6O2f39FrtZqNG1zA4IOBjLIbithJDDDG8OqL++tf/zfltSPo4TaJ9IwA51xOL3129VjcHyhzQUR8JWaMYYojhqYHEnL6oPtAoSX0Y2Bxj8wcBvF7l0c8ZtLr+0KoLGaMYYojh7vgTtvgsMmzGi2dMygvBcftu/o3r1VHApNEUNxqN/yRuSTHEEMPlgIbboNWWM2qleQxEbpkLYfwW7PQaTC3pAjQkFQ3gU4tZxME0/7/pZzX89/D7mP76N3JduiRtNOp0lUBnibtUDDHEsB1/RDm7XpK6MtA+ZNY8+xlYZwdqo6Sj0MBAigwJodT4OKpSrhQ1qVOdOrVsTP27taNPe3e2O4d80on6dG5N7Zs3pIa1qlKVsqUoNSGOokJDKSwoiEIMRv5ZkjXQ+wnA67XSW5N1gLac0J6LIYYYPElplKTSpqibl7T/7k/ArQvQ8qgZ4B0VFkrVKpShVg3r0PD+3Wndwsl0bMcKOrd/HWWe20Nf3TxGPzw4S2+eXqCfvrhEP3952eF8/zyD3jy5QK/un+G/dzd9D51PW0+ndq+iA5sW0ZLpo2lwr47UsmFtqle9MhVPSqAQo5Efh9YM7Hkcub9i12uVTqdL+kgoWsQQo/ANUzGOroFBI+1ggJDlX8Ct4SAZbDBQqdQk6tG+Bc0cO4TO7F1DL24dp9eP0zkQ//riqnleoV++usK/B/BWM3/+0gT2+H28z4f3vMr/H5/1/b0zDOT30oGNC2naqEE0sEcHasQi+MSYaDOwm6J2HHcenK+v9BppmLGIsai4q8UQoxAMrVb7P9yrRKs7zQDgZ38CbwA3KJLyJYrRgO7tae/6+XTv/D569+yiGWDdA+rczg8gz8CdveJ7L++dpusnttOhLUto2ujB1LpxXapYugSFGgMtFIwPI/W/c6mnJDUuWrTov4i7XAwxCuAwGo1/MYG3lOFPiUoT96yhsMBAalK3Bi2dMZoeX07jdAdA85evfA/aaoEdr1mPz9Oza4dpz7p5NHJQT2rRoBbFRUZSoE7nyyj9PWx4IUsUd7wYYhQg2kSv1bYzaqTz/qYyAXgjKdm+eQPat2EBfXf3lIka+dI/gVsJsMvUzqsHZ+ny0S20YfEU6ta2GZUrkUpBeoNZDeP1CB0FWHVFOb8YYuTjwYtztNpqBq3usL/ZugLIQDt0bNGIDm1dQj88PJdnVIn3AP0Sp14Qqb99eoHvLravnE2fftKZSiYnsghdb4rQvUe5vGbXfizkouJpEEOM/DX+GChJMUattJQ9yD/6W8ISicCWDetw2gEJQ4AcAK+ggLejid3Fb+xvBU2EJOmmpdOoS+smVDwx3kQpeYdu+RW+LGw3FiIeCzHEyAcDSUuzn8kXnuGqPcPl4j2QsISiY9vKWTwpWNAib1WAblbCIEK/eWoHLZo2kuvVoXn3kib9GrsvyoonRAwx/HSg96RRq21v7orze26BG18nxcVR7eo1qGK5cnzr747SwlQFKVG18mVo2awx9OXNY+bIu3CCt2NAv0pf3z5OaZsXU98ubamYOTr3cDL0qVGjayl8WMQQw48GvDSQwGIP6FFsnXMD3IiUE2PjqFO7djR7xgw6dOAA3bp+jTLOp9OIoUMpIiREMZDLAIQqyOmjB9OTywfd1nEXlinr3iGnvMGi89njh3LJIq4LonPP8eTaz0TZvhhi5PFANBUoScm8J6Ub3XJkkNWzr5PjE6hl02Y0f85sOnIwje7evkWPH9ynR/fv0YO7mfz11vXrVKdGTUuU7jRpyd43JjycF8RcObbVwgcLoFYXnWM+zDhAy2eNpXrVKvHCJ649zz2Q/4Kmz5CciidJDDF8P/6kL6qPhOc0exi/dYebxowOj6CGdevStMmT6Oihg5R562Y24Lae+N6ZkyeobMlSTrf3+L9gg5HaN2tAJ3at5KXvv5gLY/L/zKCfnmfQ++cX6f2zC+5N/C6beB/lYG7Son99+wRPhDarV9NcTJTryPx3JDzRqFo8UmKI4aMRVLRoEYNW9znbDj93B7zxWjK1GPXq1o1279hON69ddQjcD+/d5d/HPHf6FHVo29YF762lCqWK06q5EyxJy3wD0ADnZwxgn56nd0/T6d2Tc/Tu8Vl6++gUvXlwgrLuH6Ose0fo9d3D9DrzEJsH7cw0O9POz909RFnsfbLuH2XvfZx/Bj6Lfyb7bIC9PZCXqRbo6Dcvm04NalShIL0+t5w5qjyPMiAPFk+XGGJ4caBLPDrEmxsN/66W6w4NDKLa1avTlIkT6fTx43Q/8w4HZwC1LXjLAH71Ugbt2LqFPh00iCqWLeuUOomLjKCRA3vS/Qv7eOToj7y3JYIGUAOgH57kIPoGAM3B+SD9eCeNfrx9wDz3+3iyz7xzgB8HFgwc15uHJ9ixnmHHfd4UwVtViSIyXz1vAtWqXJ5z5rksHjqL5s3iSRNDDA8PJC3hHc0esiNqinVk8I4ICaXGDRrQyqVLOSgj6nYE3NbUyeYN66lGlSoUGRpmoV9yRPbsM0ySwWp0fOcKnozzF+oEgCdH1DyaZoCICJhHwhyo9+eriWPm4M6i97ePTvO/DfQOdjtfXD/CDblS4mItOQ43gfwm2+EVE0+dGGJ4iPc2aDTxsBlV4y4oJytjI6OoY7t2tHHdOq4ucRZ129In2zZv4pQLFgFHShRE38US4mnuxM+5hWtegjePsFl0/ZZFrCbq46g5qs6riNoHExE7W5Swk3j/5CzfYWQc3sSdHuGDnguKJRMe5eLxE0OMXAzuMKiRhsNeVG3kHRUWTm1btaJd27dZFCbOgFsGb7xeTE+nubNmUbGkZIcggC079OJtGtelCwc3WHy5fc5fs0iUgzYibHDU+TC69mikzhatdw9P0MvMY7R85mgqkZTgNpCzSP6RQZKqiCdRDDFUDuh29Vptc7XFOgBv0B7tWrWmrRs30p2bN+wmKu1F3bdvXKcjhw7R/LnzqGWzFhQWHOLw4YcaolhCHM2fNIy+yzzl0+ib0yMs4uSR9t3D5ih7v5g5aJcD9ObeYTq7awk1rlnZUmjlZlFQTfFUiiGGsvEH+JwYNNIGc4dzxWoTOOI1b9yYNq5by8HbVeQN8Ma8fuUy7di6lSaOn0Ddu3SjsqVKO6zIlL/Xpkk9Op/mu+ibAzePto+b6JHbAriVzqzMNHpwegMN6dHa0mZOPZBrnxsDdLXE4ymGGE4G3OX0ktSbPTRP1FAneK1coQLNmz2Lbly9ohi8kdzczKL1saPHUK8evagFi75R6ONsoYiNCKfJwwdwNcSv3o6+n2fwpB1UGeB8BSDnBsgP0LfXdtPMkX0oOizUPfWKRnrGdofVxZMqhhh2BpQA7EHZq0Z1oiuqoZSERBo5bBidP3PGZcLSRJvcpSsZGbR+7Voa8flwDt7dWPRdu0ZNCg8JdRilAcDRyxJeHu8YuHoz+kbUDY4b0jpBlXiWXvnh1j7atGAMpcRFu8uTP4FCSjyxYohhHmF/CftXc3edp2qoE1RCtm7enPbt3mWJrF1F39evXKFtmzfTqBEjqUe3HtSze0/q0rEzVSpfgVMxjugTFJF0ad2U7pzb7dWiHagqIAEUUbeXo3IG5juWTqBiCbFuArn2fqBOV0o8vWII+qSoPpA9FOuU9rWUJYPlSpWmBXPn8ApLJUlL8OO7duygsaNMtAkAHK/t27anYkkpTheL6PAwmjn2U1516a3kJcD7zcOTZq5bgKyvgPzguulUtliSuxH5TX2APlE8xWIU1vEnyLbYg3BJTfQdFhRE3Tp1omOHD7ks1MH/oRLz5PFjNGPqNPqk5yeW6BsA3rZVG0qMi3eq/S5fshjtXD2HNy3wBn3CI28B3nk232Sm0eENM6l0SqK7EflFo0YTLh5nMQrVkCTpnw0aqRd7AL5TA+ClihXnroJKJYOXL16kZUuW0sD+A6l7VxN4ywDerk1bio+JdcJ/a6lx7Wp0+ehmryQvOecN2iRT0Cb+kPA8tH4GlUl1F8ilY4EajV482WIUioFGDQatbopS6aDeXMreunkLOnrokKLE5b07t2nf7t00criJ95ajb9PsRV06daHUpGSH/Hcg+7xeHVvy/o+eB/AMru/m2m4BoH4lQTywZhqlxEa7q1rZYTAY/ls84WIU6MFu8gCz9vtvSqNvlMuPGjaMrl26pDD6vkCLFiykvr372oC3aeJ7lcpXdLhgoBXYuM/60Mu7nue/Oe/94LhQm/ixcmXj/NEUFxHujo78d3ZvrxANmMUo0AlMoyQdVEOflC5enNavWZOtFN5ZmfzB/ftZ9D3CLnjLNErjBo24qsWeeVVUaCgtnDqCsp6c9zD/ncFNmgTvnT/myumfU2RIsDtA/jd2j08ICwv7R/HEi1GgBryZ2Q1+XM0DgeYMB/buURR9Q6GyZuUq6t+3v1MA79ShEyXExuV4OLF9jo2IoFVzx3PnQU8COCxT4WciqivzSzS+n17d3EtTh/WiYC45Ve2z8tao1XZjt/0fxJMvRkFJYkrmXpeK+G+Uunfv0oX3sFQC4DCpmjZlqoUqsQfg8qxaqbLdiD8+KpI2LZlm9qb2HH0Cj26RuMyftMo3V3fxEn03nQ+/0Wu11cTTL0bB4MC10j6lAB4eHEKfDxnCy+ZdATjm4YMHndIn1lF4q+YtKSwo+xYZAJ4YE03bVszyeKk8yuQF952/NeRP0jdTm4Y13ZUe3mA70GiBAmLkXw5cr/93o1a3Rin/HRUeTtOnTOF2sUrUJ9s2b6GB/Qe4BHBMlNSXTC2eA8DRNGDHqtkep0+y7h0VQFhAFCvXDq6g6uVK8poBN4D8UHBAwMcCDcTIdyM+Pv4f9BppHLuJf1MC4DERkTR7xgxFCUw0L167ajX1+aSPIgBHFN6wXgMK1BmyJTHBgW9dPpO3TvMYffLknCiXL4DFQKjqTImLcbPdm3YWulEJVBAjf0XhWm07dvO+UQLgcVHRtHjBfEWNGtCRZ/GChfRJz16KAByTJzOtinrwGhkSQivnjPcohQKzqsLeiKEgUyurZgyjsKBAdxQr7wwaqZNABTHyzUBzWd4JRQEHjggc/idKjavmzZmrCLitZ5WKlbN9ZojRSDPGDKG3XIXiKfngKcF/F/D58voeGtqrnZuJTu1zg0ZTXKCDGH4/TNWY0jYlAI62afD+VhKBX7t8iWZMm644+pZpFN6ZJyiEDFbR04gBPej143TP8OBIYD44IeSDBXWyhRmVtZCIohnHl9cPU6eWjd0tzT8iSdL/J1BCDL8eBq2uv6tqTAA4im3GjR7NzamUROCzZsxUBeByMrN4cqpl+4sHD514Xtw6Tr94DMCPC6AriBJDNFx+eJI348B1lq85LIhvnd5JFUoVdwfI/84i8tHsMfmjQAox/BPAAwwR7EZ96Opmhg58YN++3MTKVRITRTyzZ85SDeCY1atU454rMoBXLVeabp3Z5ZFSephXmQp4BOAVKO6bRd2IuHF9HV173D9wtYwOC3OHH/9Wp9FVFGghhj+OPxm10jwlicwObdrwfpZKVCjwQFEL3qBRmjdtbtGE681KlIObF3vEzAoPeJYA8AJW3JPG8xo/OQHvbCqkZxk0fcxgCmIBiRu0yllBq4jhhzSKthwD8e9dAXjFsuXo5LGjLgt5oANfs2oV9/9WC+Ad2nXIVlqP1/FD+3I/cI9QKALACxx1AmmomvsA+RQ0CEGnJzdold+NkjTkI1GWL4a/DO4NrpXWu+LB46NjeAd6JaX027dsUawDt/VGAQ9u3dShef2a9OWNo7lPZAoOvEDSJ3CWdOd+AK1y+8wuqlympHog10jPRDWnGP4UhaO58UtXNy4aGSuREh47fJgGDxxsaZ9mPV1F4MVTUrMvHFGRdGLXSvr1xdVcR+FIdAngK0AReOYhev/0fK7uCQB52qZFlBAdpZ4f10grhNuhGP4C4rNc0Sj1a9fmPt/OQByt1tCJB40cunbuSp07dubt01o0a0GtWrTiII3vd+/Sjbp37c5BHq9o8FC/bj0e6ds6E44e3MsjNApsZPNcRnjnAOduX2emmYqKhC49Vxy4WgpFplGyTfP3Z48fSoE6nVpa5Qe9Rl9BIIgYeTqMAQEGdP12RqNEhobRutWrOUjbAjeoFXwfScyjhw7SZ4OHUNlSpSkpLp5iIqN4chJyxBBjIEWw94mPjuX/l5qYxKPuFPYax8Dbtks9Fg7IwO6m78m1GgVOhHkCmLJG+cEJ3gkIcjf4smD7j1f8++3j0yafFlEpqq6Unp1TJYANSaGcDH/9KJ2+vn2Cvrh+hL68eZRz4m+fXuD316sHZ6lH+xaqo3GjVlorSvLFyNNhKq93rAvHTd27R09uamVNmcjAfeLoEZoxZQq1bt6cgzMkgbKixPaBsP6+7cwpY9TRspljcg/gDCh93cgBUSK4dx4pKtpFZPDjFKZbSmmUg055cIA37psXt4/Tmb1raNroQTSge3tq1agO1ahYliqWLkGVy5aietUrUZfWTejT3p1p/uThtHHJVCqdmqwWyF+xe7WUQBIx8mSE/SXsX5116sHNnJqYSEcPHqQnDx9w4EZxz5mTJ2jlsmXUvnUbC3BLRQPc0dw67FBfu0oFFi0dy1UyEw/6ax/2wZTBG1G2+/a3J0X1qMso/LjDc4ioG5E2moPgHkKnJ+zqtOz+xD2Ke0tnnlJRDf+etkgAN1SLCQ+niJAQd0ryF30kCoDEyBMu3FTc87UzEB/Qty9v7nDkYBrNnDqVunToyDvWg/7Ag+Ap4PZ4FM4AMeu+ryLbAzyK5tWBnjDiEj4uTikqe1w4FnvkTg5sXEj1qlUyBRYq70/TrtCte/aFTqdLEogihu9BXKPr6ezmBFBXq1SZypcuzZOOcsTtpu+E4olGx8d2LM+VIuWtj5Qo2NojafqTwuTrL2aeFguUDDzgZd+xV5kGQDT5VihpHGjCD+c41zhvb55coAVTRvBoGhG2N+9P+1M3ViCKGL4efzRI0kolFZreiLgdceHyZ44c2DMXnuBnfZIozLp3RJHEzZRgu8rA+iI9vnyQjmxbSpOHD6Ahn3SiTzq1os6tGlOvjq34v6eOHEgnd6+iFzeP0lu2k3gtIvLs55ydE3vneOmM0RQWFMRpEd8DOE9w3jEWMRYVsCKGbxQp7GbTS1JvZ1SKJ8HaxD8GWBYDqFVgYZscn8CjfXucePUKZekrNzhxzoN7vSfmARP37aLEW1ZHfHf3FAPuZTSwRweeOAsPDubRIrhYmavVytws+9vhlV6nakVaN38cPb+4jXenEQBumm8fnsqh8z61ZxUlxbrb8MFTU/ubUattL9BFDO+Ct9H4b7jR9FrpCkqHvQXaMmCDFkmOj6fKFSpQlw4daPyYMTRr+jRas3IFpe3bS0fS0qhKhYp26Rn87r4NC1RSKj4oqWeRMffo+MI5fQLw/jbzJG1eOp2a1avJo0TJsqtRcA7Zz2GBa1GvGp3duYABuYjIMSEXtV4kX90/Q+2aNeD3XN4BuHlK0k5UPwukEcMrQ6fTRRk00g52s/3sLeDGKzrwNG/chD4bPJjWrlpFp44doysZF7mqBeoWeUJfjvnZoEF2QRyR6qTh/VUlN9GZx5vKDl5gwj7DeQXgZXr37CLt37iQmtatQSFs18HPjbtKHXYeyhVL5u3FBJBnT2pioTy9ZzXfueg12rwHca30Gh5EAm3E8Ogo81GZP+u12nrg7Dx90+rMCaTEuDhq3bwFzZg6hQ7u38f143IREF4dVXni/3bv2M6bS9g+hACvBjWr0HeZpxRRKpD1eVUPjgjcBYAjIfko4wCNGNiD25x6KsGG96lcuhjdOLyykAN5dhDHAj9z7BC7NIq8m7FQVUUDsskMvQf6IsEphocB3KjVdnPlTugOxw1eu07NmjRx7Fg6dugQ9xaXQdtVpx/roiHIF8uWLJUjGsfnxEVG0OUjmxXYz2Z42VpWplCcl3If27GCa5O9kQjGe47o20Fw4lACmc971pPz2agUGbhN1sXhVKdyWerZthEN6tbKMru1bki1K5WheHZvyfkXT3Lp7Fm7ajQa/yLQRwyPADiau7Ib60dP3aB4WCJCQqlFkya0dNFCunopQzVwWwO4/HudO3Swy2milyb3EHfBi7/zMo1iKi7JcAjgWY/Pc117Umw0BwVvRHh435oVSvNEZ2FWrCDnwc89O+8/PDhLjWtXtUTXUSEh1LJeNVo0aTCd3bGAvmDn6odb+/j5kuerm/v498/vXkSrZg6jIT1aU7niyfxew47HTZ24dYLzjWgaIYZnkphabXtPATiiQHiftG7RgjauXcs71gO8XTka2gNtvIIfR1OJk8eP0Z5du+iTHj3tRq743rxJwzj36bwq03tqFG516kCFAv4bypMxQz7hiVhvqiNwLoolxNKto6sLNaVi0Ymza/LdzTRqWN2UGAd47189lV5c3klv7qZxRY+jxQ7fx/+/vXuQgfx+un96A22aP5o6NK1DEVAOBeQOzI0aabpAIDFyNZBcYTfTF54ADhT4oOBn8YL5qsDbGrTxexfT02nfnj20fOky3m9z+OfDqV+fftyCtl7tunY/Hxxmv65tnboYmpoc+94pDwD+7Z2TNLhXJ4tfjDeTZlggyqQm0r2T6wu3dtycm0BE/u3VXdS5RT0aN6grPTu/lYP36zvuXOcD/HfxfntXTqZ2jWtRGF+U3dtV6bVSetDHQf9PIJEY7gF4UYOR3UgZnoi+oTQZNXw4A+BzThOU2YHbFGmDajmwdy+tXL6cxo4eQ4MHDuJdfmA9K9vQyj7iLZo15xy7PfoGDSHgPufQ3MqLRT3wMXFEoXzDABymSkZJUq08+ZB001hoI4CG9Qw2GMyqH9PPaYoEUNM6VegbBjSi9N60iIEauXlkNb28sccjC9trXHMG5l9f2UkbWWRevXxJp0VpTkD8LbsvSgs0EkM9hWI0/pNRKy3NbfSN1wZ16tDu7dst4OwKvHlX+6tXKG3/fpozazYNGzqMgzbAWp4Om0G0bc+59pwKlQBqXKc6/fjwnINk5lGvltPbc8qT23oBwE3nS40MU8ObTKfERlO9quXo055taPm0z2jf6ql0ZOOsbHP38km0aOJgztmCMiiZHE8rpw+lLFHBmZ3u8sL54JF5ZhrdPbmOBnRpwRdZ9ZWgus8FIonhDo1Sl91AWbkB8PDgEBrQpw9XjShpw4ZemmdOnaTVK1byZhC9e/XOFmkrmV06dabYyGiHMkMUdPz8pb3S+gM+jcJ5EvPJeRo/tA8HYyURmhzJJUZHUvfWDWn1zGF0/dBK+iJjm2Ub72ziZ766tIMDyrfXdgvg9uUCkXmAUyxLp3xKyTFRaumVc5Ik/YdAJTHUROF/Yav/6dzQJ7CVXThvLvcOdxZ9gzLBz5w4epRmz5xFgwYMdBptu5rdunSjxNj4nCDOjqlGxXLcyN9aK8671XvRYhYUjT1PFBzDitnjeBLTFYAjQsfxJ7GHf2S/jlwN8f2Nveak2wFV23/wvMJDJa86CJmuVdraaVzFogLIv9EX1UcKZBJDeRSukXrBv8FdAK9QtixtWr/eQo04irzBdwO8586eQ/379mdRt/vgnQ3E43KCOI6rarnSOTxU0A3Hu8ZWR+32Yjy1ZzWlxMW6VKFg6w1eG5pkSN0gc3sj/E/yeVSeRie2zKWKJVOVAvnfUaMhkEkMRSOoaNEiKDJwF8ChPjl0YL9T+sRUmHOeFi9cRAP6DTCDd89cgbc7II4o3NuNHmwrM/HZaDTQsGZVl1WYOObU+BhaOeNzTn8I86oCpFFn1/LYptlUMileoZxUu1igkxiKhl6SurhjaAXAqVm1Gh1OO+AQwAHeKKPftX07DR86LFe0iVoQ5wUulcrRN3c+0CkmfxTvduexl9CcNmqQIhlg7cplWcQ2x7INF+BX8BKpSDqj4lNBTuSSqN4UwzWA6/X/rtdIJ9wB8NrVq9PxI4edAjiib6hNkLD0NHi7BHEkNmtUoe95YvOyOQr3rs1slk3TARQand2/lludOnto8X9tGtbkxTiCOin4c9aovhSk17t6zrKMWm2qQCkxXClSypnc09QBeLlSpblZlTMK5ejhwzRqxCivgbdrEP8gMQSIe5sLt9e/ESX1aNzgzOoUHHjbxrV45Z+gTwpHsvPLjO28KMgFP/67QaNrJVBKDGfjj0attEwtgBdLTqadW7c6BHAkL3du22ZRnXgTwGUQT4iNswviTerWMOnE0TPTB02PrY2ukMxEFA4zJWddiBrXrESZJ9YKAC9k/Pjp7fO5+sgpraKRVnwkmiiL4SyhyW6UW2p04PBAmTtzplMA37Z5Cy+J9wWAc514R+jEo+yCeOdWTXhbM64L90EXeGuXPET/Iwf2cJjMBIBDrXBx7xIB4IV0ftazrYtoXHvDYDD8t0ArMewOo0bXSI2sEDdb+zZt6Pb163ZlhCjc2bBuHfXt3ddnAM4rNtt1oIjQMLsgPmpwL1ORjY8618sgjs98cuUgVSlbyu5DyhtgREXQvlVTBIAXYtkhui7hPnASjb+QJClEoJUYjvjwSWqicHih7Nu922EUvmPrVgbgfXwG4DKIt27ZmkICg+we96q5E+iXLy561SPFHoj/9uIqbVsxk1dm2nWqk3Q0dVgvAWaFfH53bTc34XIsPdX+xoKthgKtxMgxQooU+S9ImNRE4WiF5kiFsnfXLhrQr79PAVwG8SYNG9sFy1BjIG8w/P7xKR82HThlRaX0tPtwQkoIJcqzC1uFjLCwc+N3D9K6OSMdLvbm3psTBWKJkVNaWFQfyW6Qb5VG4SkJCbwxsW0UDgA/feIEfTp4iM8BXAbxOrVq2z3mqNBQOrdvDb29f9h3D+X94xzAUepfq3L5HE0eoERJjYuh9F2LBI0iJl/EoUqqUqa4Q25cr9WuFslNMXKCuFbbTmmBD3phdm7fnnPetgB+89pVmjxxUp4AuAzitarXtFutWaZYCj1I3+HTJgjQocNs62HGASqelGDXvW7ip90FgImZDcjR+s2JDDWjaNGi/ylQS4zsfLgkzVRKpcCre/WKFbyhg60SBe6DeQHe1iBeuUIlu0nNdk3r0/e3fBztsgfyp2fn6dqJbZQQnV0xg4WlevlS9IBFXoJGEfMDpZJGG+eNpmC9wVHfze+NWm2sQC0xLCMsLOwfDRpph1IuvEyJknTu9KlsihR8ffzIEe6DkldROCY+u0RqMbsl95OH9WEPyCGfP5TvHhyj9ANrKSosu8c5fKXXzx0paBQxc1jW3ji8klLiHFb1/qTXaMoL5BLjQxRuMAQYtNr7SkEc/uC2yUx0p586eQr3/s7LSLxLpy4UFxVt9+ZfOWMY74OYF9Kxy2mrKCEq0nJcSHA2r1uVV+qJKFxMWzoF/vB1q5Rz1CgbjobtBXKJYRlGSSqDFlBK6ZT5s2dno1IQhaN1GvxQ8ppK4Rpxm64+pqRmCB3fPCdPfEjwUIIysfaPRhSOZrrYOgvgEtPePTO8TwfHUkNJmimQS4wPIG7qZK9IlRIfHZPNI0VOZo4bMzZPaRQZxNu0akOhNhpxACey/Y/Pbc7TqHfK5724HlxbJIAa1qhIX1zcJqJwMe1LU9mOER2AHBb9aKQDaJ8o0EsMkzJFI32ilEqpXrkKXb9y2cKHA8z37t7N+1/mJYDLIN6ofkMy2mhsEc20qFeNF1LkqcnRpZ00ZkgvSo2Po5XTPxdReKGIqN3rooR7Y+/KyRRqNDrquXk66q9//d8CvcQwReIaaboSEIfCo1mjRtwPXKZS0FZtxtRpec6FyyBetVIVu/LCMQM653nUyz3BH5yiW6e25psoXDRSzt386tJ2+iJju1vJzZtHVlPxxDgHTZW195HLEuglxkfx8fH/oFSZAhAf1K+fJQrH65mTJ2lA3/55DuDOlCmQau1cNsEvIt+su4fozb0jPELz+xLw63soY99S+v7mXgHIbkoFl08bSp/2bEOvbu5Tt+Cz+eLyTk67OeDFXxslKUUgmBgfoYM2W9UvKgFx8LlzZ82yJDUB4uvXrPULAHfkI46vY8LD6NzOhaK5gsoI/M6xNVxBczVtuU8LpAoSiE8f3psSoyP5/eeOlLR3h6aktV/087teq20mEEyMj4xFjEXZDfFQCYjDdnbz+vUWEAetMnHcBL+gUjA7d+xMMZE5C2pqVixNz85vEUlElQCERr7hQUE0fnA3AeJunsOZI/uQpkhRGty9Ff3gxkI6pEdrRyDO7nNpmEAwMdCOTcNuiKdKQDwsKJi2b97MQRxR+LnTp33W6EGZe2GrHO6FeAD6sGhGgIp6ADqyYSaFGIxcGnnzyCoB5G6cw/njBnA6BM2uL+1bqioax85xytCeTjxUdHMFgonxUbBWqzNotc+VyAujwsJo786dXJECEN/IonJ/AHAZxBvUrc8pH9uk5pTPewoqxQ03vaObZlNYYCB3WUREKSpLVTbIfnSClk4fzp8dzHGDuqrKheAaoKI30OaetgLxJQLBxPjIEGCIUOJeiJswMTaOjh3+0Ah5/tx5fkOlODK+Ah2QtmaakPO5nAfodeZBenP/GPdA//n5BTqzdzVFhATzSLJmhdL0JH2zoKRcgTfO4YMT9O5pOveQXzlnPL8nEUxUKJFCmSfWKT6HuGcPs90Q7mEHMsM9sMwQKFbYOXFJSkEXbSUa8RIpKZR++jQH8VvXr9GYUaP9KhK3Nb6SHxxhMOUMdNK4XS7a1b1/fjFbP9DMc7u5ph2ROCpMtywc63eLIXYHoHnwmqfXmH02mmK/f3becg5/ZSC+Z928bEZWCyYMVHwOuV3D/mU8Meqg6OeycDMU4yO9Rl8BhjpKO9pnnE/nIA4+3GR21dN/5IUp2eWFiCAb16pE31zdJQDbznYfEeP7px9Ax3rCA/3lvdPUoGYVfh4xu7VqQN/f8C+5IZoLozx99uh+eaa9R/T99vGZHOcQCyHcKxPN7pV4hmpVLE2Pzm5UdJxcIXR8LRVPcKQVl56CDhUoVpipFIPhvw2StFJptWbl8hXoSsZFDuJwLOzzSW+/kRfaM74C8PTv3EK1KqDAywfvH3MI3rZzQPf2PDmM8xoXGU4ntszxi/wCuOUXl3dQk1qVKeDjovx6jxnYhX64tc+3x3H3EKdOHC2E39w5QTUrfTCyCtLpafXMYYrOIUA8EyDusOBH+kEfoE8QSFaoE5rSdjiiKQXxapUq07XLl0yl9rt2cQrDX6iUjnaaIyPJuWL6UMGHW2353z48ST89z1AE4L++uEILJg//4LzI7oGR/Tr5TTk7qiHrVC7Ljwv3Z6nkBLpxeJXPqkwRgTsCcHlmPTlPbZvWtzR4QGDRtHYVduw7XCY55S4/ZYslcUrLznP53ihJpQWaFcKh0+mi9BrphFLXQotvShWTbwpAfO2q1X7Fh7dv247Cg0OygTiUFYfXzxQgLgO4uWmz0gk64PLRLSwCjzTTAVoOKHdPrPOLcvxvruyixjUrWSoasWivmTXcN3bD7O9/Z4dCsXcO50wYarkv9VyqG0i7lk10eV8CxJ9f2Eo1KpR2ZEkrQLyQJjLLGCTpuhoAt0TilRGJm8yvFszzL2VKy+YteMehbI6LkRF0ce8SIY2D0uHBcVUA/oEOOEl1q1WygAga+MJdzx8Wxpc39lC7JrUtII5jHD2gs0/07FDxKNvNXKUTO1cy4A7K1qCkU/O69PWVnS6jceRzQBk5KL3/Ra/VVheoVnjGH40aXQOlhT32QLxKhYp09VIG7605bcpUvwLxhvUbZNOIm1qflaSnolKTbfsP0ftnF1SDuBxJTh8z2FJwAgBqWL0iPWMRoj+c136dmlsqGgF08BpRQlXkWgPugkaxXgifXztC1cqXsZxDtgvmssG9q6a4XAyRSO7YrK4jEP87C8jaCGgrHONPZs/wl+4AuAyKlcqVo8sXL3LnwonjJ/idRtzWfrZLy/r0Spg30dtHp9wCcB5JMhA/n7aB4q26EoUYDCa5YR7vcLCIDO7+oSwdyb/iCbF0+9gar0bjWfeOsnOToWIhvEwTh/XLBsRyNK7EHrlvx2YOS+/Zc91XwFsBH3ApZBe6O7vgr9wFcBnEy5YsSRfTz3EQnzBuvF+BuK1GHDc9OoYXen04uFuFUaOj+ebJBerWtpklOYd7oX618vQ0PW93Obws/fPsZelBej0tmjjYqyCudlEEpXJk61KKCA7mUbjFmC0s1GXOBn/HsN7tHXf40erGCJQrwAPVXHpJGmzQat/kBsDlB7d4cgpvkAw6xZ9AHLNsqTI55IWj+3cq9Hw43/q7SaVYq1R2rJrNC37k8wtuHIUreXl+AX5IEGJnYB3h1q5Uxqs0Ggqj1OYWvss8QfWqVcgejbOve7Vr7FR7j4Vq0mc9HCU2Sa/Vbv7444//l0C7AjgkSfpnFoF/qqZ3pquy+6S4eDp59KjfgThUMiWLFbexoJVo8aQhhV6ZAhlcbkEcIPTVrWNUu0oFS9SL1/IlUnhX9rwCct4V/siqHDpqRONQqXjl2rOFQanGPvs5vESzRg8gg41NcrxZe+/oHOJvmDOmvyOJIebPBkmaYTQa/02gXgEDcLbNGqukElMNiMdGRlHavn1+CeLF2C7BGsR5I4ilEwSI80j8fK5AXI7GF08fZaEDZA4akaRJZZEHlZJs4rMbVM8e4WKBqVe1vFeicXfP589fXKSM/StylNCbuPF69K0DbhxySQQjDnttmubf2G57dnBw8P8R6FcARtGiRf/FKEkjPQngMohDh71z2za6n3nHrxKbOI6UxKQPWlwGNJEhwabqQqERV739dxSNP758kGpULJtNZRFsMNCC8QM5oObF34Zq3EHdWubgjIPYIr7SG4VeKnMMiNphb4AdESSRXVs2sOQWLO6gISG0f/VUu8cKEF8y2SWIc7khInI0eREomI8HGqeyFXm0pwFcnugiv23zZu5gOG3yFP8C8YREKxDXUkJUBGXsExpxk5riiOIqTVfR+NIZoylQp8uhx9+6aGye+I0D+LYtHscplBx1DeVKUuaJtR4vTOJVr87OFTvX756c41pyRO7W/DaOFcU+emslFTvW1g1rchsB252DChA3ReSStFAAeT4dRqPxn1gEPoKvyF4AcGsQR8XmvDlz/TgS11JKXIypBFs0Msi1zNBW81y9QtlsihDwtcUSYmnH0gk+j8ixSF9JW86vty3Q4d8ThnT3PKXCPvPd47PmhdE8AdwsQsd5xqL5o53PxHF8kbGN6lYply1RiR1NaGAg9w63DToA4iiuUgjiMpALjjx/cuDaz1CGq5omUfGzaM+2Ye1aevLwAa1asYKBZw+/4cSLJ6dmA/HU+Fi6dXS1AHFrq1QWQVrbzbpX/HOZls8clS0al4E8ISqSmzvBhMqXjaCh7kBNgGSjpTbdBzGUvmuh53dk7Hxm3T1smTDC+lGhM+GsUX3tV0SXLZHD0gCNIdbNGZGj2YlLINdqZ4X9JexfBTrmg1HmozJ/ZhesnzsArmOzlMFA/cPDKETBTYIbafH8+fT00UPasXWbXb22POUIGc2Lraccvdv+bG5n6eIls4F4ckwUXT24QoC4LYgwwIFtqjowz6D3zy5yr5C3D47Rk/QtFuMpWyCPCg2h+eMH0Pc39/oMyEGpgHKwB3Q4xu6tG9K3V3f5dGFxpKZ5f/8Qndo2j6LDQh3sHLrl+Nuww7H2JFc4f2W4MAo7dIGS/j3+qJekLuyCvXYHwMsbjXQ4MZ5upSZTCQbmOgXJzckTJnAQP3LwIPXu1dsCyHjt2L4jNW/ajOrWqkPly5Sj1KRk3n3eeqYkJFHZkqWpVvUa1LRxU2rXui2PpHMD6Pi9CmXLZwNxFFKc3blAtGVzIj1E5eHbh6d44hNUQLb55BwHbSTlQA/g560pjK2LxvHScXtAhO8vnDjIp+CIXVeJpPgcUjzsNEPZfY4dgrfyI1gcQJXIzSkAvJigQjBxDyKpiT6lmxeOoVYNatgFZR58xEZzkJfvW7zPwXXTOd3iBgX6HjJjFPwJqPTP8QeDJDVhq+137gB4RXZjn0hKoKySxejbEqnUKiSEJBe/h+3qZ4MGczrl9IkT1K9PP95hHr4l5cuUpejwCK4KkG9IZ1MuGIHiBRrvurVqU/u27bMtCmpAvEbV6tkABQ1+96ycLNQpKtqz5ZyOQQvGTFxpYacIRWdOdqatne6zRfTVzX28M7y9psLcMqJUMY+U4wOscU9lmYEZ5wGWuA/PbGQgvZobrh3fPId2L59Eq2YM4zuEqZ/34v4nJRLjeALWUeNjeefQtnEtizcNzt/JrXMpMiQkm7xTBV36lgF5NwR8AjL9LZEZoKvFLtLX7gB4FWMgnU5OpNcMwH9g80c2B4aHk1bjGsS7d+nCE5sH9++jBnXrUVx0DAdja3BWK12Ufy8yNIzKlS5LLZu1sETnyg2wGmbbTuM9F7FoUIC490rez+yYT0kxUXavO8CoftXyHNx8oSHHdYakNMYOTSHfD5/2aJOrzkQ/3NrPOet9q6bQ5KE9qX2T2tSoRkWeqEQbwGLxsXzxQnl9sOFDMAPQhgRSp+D5wM9DHnto3Qx+jrFYXNizmBcFufN8mfxVpO+NGl0LBH4COf1kGDSa4uziPFB7MRFpV2PbsnNWAI6Jr8dFRbqMxLlnRu06NGHMGN6qTb7pPKlFx4QKpix7/7at2yoCcvxM65at+e9ZlzTDc0Jw4t6dk4f2yJHktJTms0UVSTlfLaQwk4KplD2fERM4hnB+2R1aBQvR43ObOWgDoEHbyG3r5KYUH3aa7j8DvA1e64b09WWTTS3u32uHVnCaJZfP2tcMyGsK9PSHCFyjCWMX5JK7EfhZBuBZVgCOmcW2mgtjohUpVeDZjcjb2ZbQU4AeFR7B+XUkQ52BOf6vAzr7hHyIwmCA1btDUwG0lihynyXZmGWmBDgtwL52VxYIvvdq2nIegdqNxuW+nD5ykkTkCpBGMxB7QMrtlMsUd0t6ChB/dHYTVSiZ6tDHJLcT71u9XEkumZSPT27RViIxXlEk72JmBkpSskDRPBxBRYsWMWh1h93lwM/YRODyfMNAfGlstCq5oS8mgAELBqLyTh06OQXyrp27UkJMbLZWYrUqleGdUQq7kyEAYdvi8TxKRc/Rz3q2pblj+9PBtdN5McwLFvUBaN9YJeXwO69tAF5O3smRNaR77RrXylFoYw3i8Pf2VaNqHB+8xFvVr+4QaAHk/To3p5fX96hWqyDSb9OwphNHwdwBeOXSxTlFZb1TwN/04MxGKl882Zl/ioqpvcgCwXCBpnkwNBrN/zVqpWVKe2JaA3hpFj0fTUqwC+A8EmdzUlSkS3VKXs7UxCRq36adUyCvULZcNoUKGvuCTyzMVZsAgWfnt3DeFg2FsUORzI2PoSIpnZJI9atVoM4t6tH0Eb1pz4rJdHzzbB5hgz6ANwnACxI9LIj4PpoZDO7eihf4OE3SMbBr5EMQl6Pxfauncl7ZETeOv3vt7BGqF3fcR1j8PE0h4rV53arme/VAjuv3hF2HymwH4andL9ulpAUHBHwsUNXH1ZgsSp7GLsDvagE8VW+gfWwr5gjAMb9ns0dYqEtOPK+j8oSYOGrXxj5Pju/VrV3Hhvox0O4Vkwp1chN/+4E108xyQHuR6QduF1/D1hU/mxwbRZVKF+NdfFrUq0bN6lShGhVKcW4WlrQAFFfbe7xn41qVfQrimDCT6sqLfxxF42geEUfndi5UpZ4BiF/ev4xXh+Y2Ksb9jONDwhJJ0ifpm+0GG3wRZotn9fKl7IK4XmXB3off0y0RxUA+HGYt+Du1AJ6g09PW+DinAI4o/BiL0hPZlljvQcDl4MCz8gE8+pMn/i0ngdx53+SERLvUCv7dtnWbbM2S8TljB3Yp1HQKgGH8kG6qeFy9jarCOoGn5rrhd9B5Jy/+5mObZjtVdHApX6Naquk25Bbg7w0llLv3MM4LdgodmtahoxtnmStcDzjcSX2ZsZ1qV8pZXIXrFKPT8efcjWf3V7aoDxcacl8oUSSpDjvh36gtpY9hF3Y1ixh+dALg+L9nxVO4RlyX+y2aOZrTUFRoKJVISqQaFctRhxYNqX+3djS4Vyfq17UttW/WgKpXLMu24vE8SSpv7dU8BODIUf1pz0Ml2coIC8fTlEWQ3/o4EvQrEGcg8GnPNg7be3lzIqrftXxinuyEoBuHOslZxAwgHjuoi6oWfhxUL22noZ+04wlU3GOu7l95t4PPgw0AEu5pa6fxHYqrnQB4e/D89aqWy7GzwM65NjuGxTGRPAhT/wxr36Bto0BZL45ASYoxaqU7agE8jN0si2Ki6ZUTAJfnlOhI6EhzvS0MDwrmXdHHfdaHTu1eRY8yDtDXt0/w1l6yeRJes56c59+/f2EfbVk2gzo0b0gx4eGqkkV4GNBT0140Xr1KtWwPT6nkBFORRyGNxgGgMFDyNYDjerZtVDPPEstyFWfl0sUccsmyDewW7sCYpgrIQdlsmDuKt6kzFeJk37ng3sP3QD2VTU3iyVZY9l4/tJK+v7GHXxclqiD8DNwNobl3BOKXk+NodnQERWB3oP5afWGUpNICbb0wdDrdX5GAUAvgQWxOjIqk70oUcxqFg2LZnhBHsTr3aRRs72IjwqlPlzaUtnkxfZt5ioM1LEthlCQDtz03PHRRx89lPT5PR7cvozZN6lmKhhQVRISG59CR4+s2NnrxIPae6+eMLLS8OBYvLGLowuNtWai1AgTeKnntXQNgXjt7OC+7d6TdxrGWK5ZM51UmwGUNN6iOIxtm8oUSieFR/TvRmIGdafbofvx7yMmgQAjJ4azMNPXSRg7iO3ny2RGIX2Igfj0lnkZHmjyQ9G4oVvR6fZBAXQ8OsyvhLLVKFFy8vuFh9KJEqksaJZPduFWxHXTnIWUgCnBs0aA2Hd+5gkfbaAbrCLSVNJLFAjB6cC8euSgFcpT655AadupC8VZSQ9AIqNQrzLw4/nZEjTBdkrwI5ABKuavOpf3L8lwVxO0BruziyhtnOz2ck5YsUnan8bNcGs89Uszl+LJ/ivy93Nx7SkH8JgPxK8nx1DcsxL3rJ0kbGZD/u0Bfz4w/mLvTv1ebyGzDtnWPiqU4TWTKyczZMVFuR1lJsdE0b9IwDry/sog6tz7VcnSe9TidZowdYi7WcA3kYUHB1Kp5yxzReOUKFbPpxRvVrMT9LfLaxS4v56tb+2jT/NFUsVSqZevv6egbfjXge+94wKPEk9E4pHtlUpNcKko+/6QdfXd9t1/dJ0o4cYD4DQbiAPL0pDiGA8HuROO/oSOYSHR6Qk4oSaXZSf1KbTk9oupr7EZ1BeCIwr8snkqNg4NVR+HcSKh0CTq6fXk2nttTE++HqH7UoF6K+XgAti0vXq9O3Ww/ExcRTud3Lyr0XX5Ardw5voZGD+jMvT5QLi8no3m5uFoFkjkfAnCE3hzOhUjW+ZvVAa77iulD+SLjiFYx2T0E0vJpQ/1q12ZRp9ix/rUFccxbbJ5IjKV6QYHuiBVeGzW6hgKFc5PI1Gj07EFKd6eY55iTYh7bKPw4+9konTrujPOcVSvQlaNbOJ/tSfDO1nSAAfmLW8epdaO6Lrf+3HI2Moo6d+zk1EcFFYVoHybMsPZbErz3Tq6jdXNGcuc/tDFLjYuhiOAgy+5FayMNtZaHIrEMagZd5huzXc6MEb3p2sEVpgpPP6StcExYXPp0bOY0GteZO0IdWj/DbxZ8HDuSwzUrlLYL4o0YWINGkUFcBvI9CTFURoG9tB2zrDs6nS5aoLEbw9wfc5U7UsJt8XE5/FCcJTRRnakWwGtWKk83Tm7nyUhvAbiFI2eLxIVDG7kM0dUWGDLF5k2aZaNUunTqQnFR0dmkhnmhV/Z3nhxdY/A1uGB4XSNBh0h0/OCuHNwHdWuVbSK3AI00qh3heX3n+Fq+1XcnYZdXapUqLiof8X9Vy5Yw+5ek+cV1QiGQveOWOIUaTNdSsoO4DOQrYiO5jlw9taLbE1KkyH8JVFZf0NNVbX/MQDanMEB+pRDAZV14bRalSioAvDiL3M/uW6sIwE3qlKt8ygoVRO6/8e9dUUzB/PzlJZo0zHWJM/6/aqXK2UAcGnI0oLAGcfDi3xRivbgroJA9UeTknBxVW88scxLvjbnRATfPykd5Bvxd8JiHXayz+woRb7smtenp+S15Lk3FeYedb/kSOb1T8Ax3DQ3JAeDWc1JUOIWqV6z8zoB8TJmPPvqzQGalAK7Rl2An7onaKLx3WBjnt39UEYVfTklSXJ3JdbShobRxyTQOyK7AG2D9/PoR2rFqNk98Dh/QnT7t3ZkmDx9AK2aPoxO7VtLLe6dNEkQXYI73upu+l8qyv89Z5IRjLFOyVDZenIN4bLxV5aaJs0XkmHVHWNMW9jlrVB8uZ3V1/6NICt4xeUkR4bMhUUS9gz0Q7xcWyqNuewCOROfVFChWQt1JVv+o12rrC3RWqAdnJ+yYWh68flAQ3S2WrIgHt+bDUcUZqDgK19Ln/brRu2cXXQIueOz5k4fzakx099FZldzLVW0oimhWryYtmjKMHl3cQz9/cdHlwjD2094uQRxt4Kx7d6JDEBpMWEdbSFrBzF/w4mLXAaVS11YNnEbjSIDiPp45sg8vi89LGujG4ZWcq7c9XuDA8IgwhyAuA/mZpFhq4Eai06iVruqL6gMFSjsff2LblrFq9OCyqZXcWu0HFROAPzQinCSNQiVKmZJ07/xep4lM/N+VY1upef1aPOEluQBcWSYF282VM4bTy5tp9P7JWXr/7ILd9750ZBPFg8N38MBx9Ul0DLeilSmVKhUr2f05FF+8vXtQgFlhT+5mHuC7sjpVyrq8X5HA3bJwbJ7x4x86++SkgPScTg2n205AXObH97qZ6GRznTDKciYnNLVYe6mGQglnQLkyNkYxhWI9X7LZOVSZWyHvbD99lFMdOED29tld7GGowKNud3TFfTo25Z7Wb+4d5k153z9N593V5Uj8hwdnqV1Tx450nPIJC6fWLVpxVUrFcuUp2Bho9/OQlMsSjZPFNFvWwnzKlSMh7pvSKQm8z2Ve3DvOemxiR70wJtIliMtAjp+NVM+P/2LQSJ0EWtsZwVqtTm2HHpz8YRERLkvqHSU1HxVP4d19dAoAtlr5MvT82mGnpfPf3T1FHVs2ctskX67wQ+MANJg1NSJIo6z7R3kH9p+eZ/AE6dblM3mFqLMFB+6F1rJCe14eXVrW91mXGTHzB7WybOpnLovLZMXKpf1LfQ7koP/2r57KrQNyGIyx+35tbJQiEMdEaf7g8FA3vJK09+HjJFDbaqAqip3IeWoLesCDP1BQkemISrmQkkjxCr1SlrAo3BWNsmjqSEUJIiUeLPCqzu61cYCy7h2hn56lU+a53Vwh45zD1Lr8DPh5oHDitUhuimmuhkTHekgqrZtsO7p/4Kn+4PQGn8opoQTaOG+03T6mUJ2sj1MO4nJFZ/PgIDf4cd0Wo9H4bwK9s9Mor9Xw4MX0BjqisKDHEYjvT4zjDoeuFCnFEtn26/ROhyCOKPzplUM8Wjc1iTUBKCKaYHac7vgsI9pp1aA618Ragyy+/uHOIerSqqFqysY2SYsMPzL9AsTFtL6/vri4jTcndlWTgOCne5uG9Jz9vK/uIeRwlk351O4zhWd5owoQty4EKqGeH//VoJF6CfR2k0YJliRaHBvtNoBjviiewlftEBcgDjVJrw4tnSpSQHFsXzmLV0Lixi9XPJnmjRtARzbO4o1qm9au7HYLK0RF8IK25QXhEJebbio4HiSHMvYtFby4mDkSnWhGzP1JXFQJG9mzOKJvR/qO9+g84BMQXzJ5iN2kJgp5dsfHOFWnOALymdER7ujHnxR6WgXieaNGmq5WTtgtNJS+KpHqVjIT8ysG4JmpCTyxoUReuGjaSKeFPQB4AL22SAC1b1Kbl1zLzm14HdClhVs8uawGQI9Ea6DlyZ0tc/n/ubs44HhA2YhIXExHKpAz2+dTmdREp8EC91gxGmnumP45gg1v0SkLJgzM0QpPz3fnejqWGMtpkhsqJ/TjvcNC3LGhXhccHPx/Ci2IG7TaquwkvFLbpf5qSpLbUfjXJVLoNgNwbLmmRkW4BNE4Fq1eOrLZoSoFVAqaOlSvUJY6Na9Hj85usnQnkTWtJZLi7fZf5BJDs3G+o/6M+L/WDWqYiyw+bHnvn1rPC3bURuN683uWYb8LNYIo9hHTGZBvXzKeYsLDXOZf0F7NF2ZZOKYJdtrrARsqMWw4lxTnFogjGscCgPdQS6sYtboOhRLAtVrt/7ATcFwN+KBTx4b4WLcB/FsWvSMCx0UDiI+NDHd6wXhlY2oyPbl80GFFJdeFH91CQ/t2pcfnt2dL8iAS37Z4HKdZ7L03Iml0QkGXE/DT9hKSUKygUS+6rlsX5sBUv13jWoojfLklFop88HmnWZQlInAxlfTQREd714oVLSVGR9LOpRO8Ts/179w8Rz7IkfmVWiBfxnbnUer9VW4WyiYSDJyGqS3qGRQezuWE7gD4dwzA77GtofUFGxER5hTEAXoNalThpfHOpIXf3DnJ5nGu7ba94QZ2bZkDaPEwoGP60U2zeLUcPJtvHVnNu6CYurBrcxzHJ+2bcOWA9QIxZ0w/SyJVZ7ZC/dCQWWOpDkVytWyxJN7xfOeyiVyRInhwMZUmOnHf4d40KvEVSoyjvSuneE2xguAFQYg9L/HOocFuA7i17HCgG7JDvVY3t1B5jxs0mniDRnqmBsArsG3OjVT3aJTvS6bSfSsAVwriAMEe7Vu4LLMHkL9/dp5+tFGRwDAItqbWZfKyxhYOckjSyNEwQBWabWwVbeVTAPWkmKhsulxQNie2zKFKpYpRCfbgFE+Io5JJ8bztWK1KZahNo5osYmnBHz5U2IH7/v7GXv57IgIX0x37147N6rqk73B/4z5MWzvd40CO43jGnqnqNs+UDOI9QkPcolJsZYenk2KpZqBqWuWVUZIqFwoAR6s1tsqtVUujbHKTRoGj4SMWhdpeLNApoyJdgzhoEiVOg28fn8nZcODYGgausdn4bujIwR3a8yyR5V1ojWV7k+L3Nswble33Xl7fw3W6qPBE2TSAGg5veI+XXC2w35JgFcAtZm4VK3dPruM7SFddkPD/CCy2Lh5n0Z97yvsd9zgWCXvmV/3DQ1UrUxzRKqtio1TTKnqNdMJoNP6l4NMoWm19g1b7Rk0Ujj6Z37qpRnlWPNnuhQKIT4wKd3qRwLuNHvyJoqYPbx4ct+vxEBcZbuUeqOGROYDWEagCcA+yKCYqNCQbrYLtI6gZu7apVtNfGxGIWTBK8+ErXr18SQVAbuogtXL657wVnifuSbnJdTGbwEgO9iYp8E1ROuFJ3ke9WuV3o1bbt2BrwgMCPlbTqQcAXtZgpCtuqlEgJXS0MuNiz46OcMp9AcRHDuzpGsSfZ1DW3cM5wBgugSFW5cF4PzQTcHVDI4pG1xVr3g9fN6lVmb4VHuBi5rFiBUnxCiVTXAK5rFqZPvwT7l2fWyDHZ6fvWkixETnVMqj3WBEb5TEQB61yPDGWKqtXq9zV6XTBBTcKl6TBSpOZevOFWRob4xaAI3K/Y1aiOALx5bGRvHDIGZ0yqGdHl1E4HAdfZx7MoWddN2dEjvJlOAe6sn/F/6OrTIyVDlyUyYvpT0AOeWqJRNedpnD/IrE+bnBXnpTMDbWC52LnsgkUbDDkwIpYnZ5XXt7yEIhbm2SpLQJCkrPMR2X+XBC58BD2Bz5Q443SITSEXrhBo7y0UaI4AnFUbIY6qdhE5AxDKzQrdgbi72z4cLmybKlVebBcuIM2Xm8UKENww3dq9qGvJq8ELZbEOXAB4mL6A0e+ddE4lxpy+d7HjnTxpCH0OpfmV7NH98tBpSBShq3sqaTYXCc2befl5Dhqx3YTKqPxlwattmyBq8xkf9QiNcnMJL2eTrrhjeIokWkPxOGz4Mw7BQBau0oF+jbzpNPkJixj7YH4oomDP/Dh8GBJiOWcnpKsPW5YaMO5Ptf8+8Xl3xcgXkjnAfP0Hw35nDH9eaStpEK4evlSXF3ibhCC+/6znm3tasShJsmw6nLvyWgcEX6Kwu5flqmRdhQo3/FAna4UA/Hv1ID4qMgIt/TgXxRPVrQa4+LsZxfHmYuhqdgnyWmxDyasYu0a9Uz9LBuIY/sJJYkSEDZ1XNlh0cRyEE+MEy3VCmtS8cFxevfkHJ8IGl77SdPiF5d3UKfmdRXx4wlRuffq6dupGac5czqaBvKo2dMgLvPjYyLD1GrH3xWYdm4ff/zx/zJI0kY1yUx4fN9OTVYdhX9jLqlXemHOJsXxMn6dkxsvKSaabjpxMHz//GIOPtximTn/g2UmFgRouJ0pU+ypAdDIFkoVALna3xez4AA4kufZ7run57k1cZ4f211TvUJsRLjL0nzQifBjeeMmiMN6okntynYLfVw1SM4tiJ9hWFFdvXb8aEiRIv9VECSF1dkfk6X0D0cyc1VcjOpWa0p4cHsyopbBzjvdo68gGh3DqdAuH/40PVuRj61UEHSITM3UrFCaF02oAWEU6EBaqCkSQHWrlOMVnvmpo7qYuYx2Mw/ZbdUnJ9T9Aci/vbabFwK5au2WEhttNoc74BaVgl2ovQbJ2EnDQuO2l0Bc3rkvUp/k/JtekrrmawAHJ2TQ6vaoSWa2DA6mL91IZj5WwIPbW2FR5SW5kBmOGeJYK47trT2eElvGS/uXcT8JuZcmfFJeXN6pKrmDmzfzxDoO4I1qVBQSw0I23z486TypzoIIdH/K02Nku86FEwY5jcQtQYyb3uOyYiuCBV16O9bUUJp5E8RvmpOcHdQnOS/DJyo/R+HN2B/xs1IePFKno72J8aqjcOjB3XUuA9flquCnU8tGlPXkvP1KzUennYDvWl65pjODOHTe37gBwohcLu1bSmtmDadXop1aISp3T+O0ictCs/vH8pxS2bZ4vF2jN+vEJqL17638f9QuFKtmfG73vd1pBuFuNL4tPlpxNzBLNK6RPsmXAA4uCGWo6g2uUlUbW91RyIPbuyi4+BFOtkiILlIT4uj2mV12o3F7yhTrEnpou2VDqqZ1qrCt5y63k0gC2AqZjA/t+Gy4cPu7wbN5DuLwSrHX99K676sjuwmlnzFzZJ8cCVQ8twkMVA94WCPuzCCrL+o31ETjknQ9UKPR58covDnvDK0wCk/RG3jPy9dekBM62yIdTYx1KR9CccGedfPs8uL2lCnWwPt57/bZQVzQIWIqjT4fnXIJ4HKS88c8XOSRxN+8YIzD/rJcmRIdSRf3LnZbmQI5Y692jXMkNRH8VWWLx/nkOI9rxJ2p2oqplBwatdpP8xWAFy1a9D+RmVUThY90Q1L4pUI5oTMQv8gufp3AQJeWtH26tKG3T20TTBlOE0umCrOJfBHAezSuWcktOkXMQjgZKCPf4hrEM0yUXh6COKiO+eMGOG1sAhkiWri5uwt96sS9sH1IMI+Qb/hoAjeGRYSpbKws3ZHYyE9ReDuDVvubUgAvyUDuskp/lNzQKLYrKy6I3oWZT4nkRHpwcT/98tXl7CB+97BTLvvmkdU8ow51SYPqFbhMSoCUmC6B6+4hLl91Zfdg4sPzlmqDH37n5vUcNiiBzHb51M/cplLwHMnGVzm89tn8JCzEJ1G4NYifTIp1Kk+2M/+u10iD8k0UroYLB3hOiIpUpUbJLY1iW7m5JtZ5+b1sBbtm/kSbXpvOQVzeBvbv0oICPi5K9aqW5wU8QiIopqvIk2vDnVo9nOXyQ3/wUbm8fxklx0bbVaeYKo3jeDDjrr/4B2VKMO90ZfsZnnQvVBP84XMD1SlVrhkMhgC/B3GjRteIHexPanpm3klNVgXi7qpRHK2q6K2H3YDOhUqlQ4uG9PpRuioQR2HDYbM0qnalMsLASkyXAJ6+axE9vrjbrtUDonOeTPeTe0jueal3QqWgo9RLN6kUa88Uex3uea+BuGifJDVtcQNeLSp7cv7u97pxtbpwzJnRUaoAHEU9dz1Ao9hmnKH/lFyUDceEh9PZ/WutovEMRcUW2G727diM+zC7q5MVs3AA+L2T63lNwMIpw212ff5TpSmDN8D1/O5FVCbVccNuUClrZ49wm0qRzwsK3mzL7QHiyXo9HU6M9SmdYhuNB6njxq/6tW7cIElV2Il9qzQKxyp2p5i68vonHqJRbCmVGVERLrdGSKoM+aQzi4YyFKlTsnPjq7h5z5P0LQLExXR4n8wY0Zs0RYpS51ZNsrlnwinTnr2DTxcZM3iDIgR4T/qsB1UokWKX4pAnZIfYiboL4qAe4c/SuFYlu8qU8uz9zyTF5QmI4zPPsc+uoaocX/sbw8nOftt2TY1HCuY0FoWrAfCvS6DJQ4JXVtSDCTHcOdFpgpM7EcbTlWNbLJrxNw9PKI4mHp3dxEuUBWCJae/+eJK+mSswtEUCqGRyIt1N38uN1yA1zGv6BCAMeezxzXN4VJwSF82DGmd+4pDWIqmPDlfuSgvxezDNSmRYYS+p6Wtlij3smK4gALT1VGF4+R/+2Py4ONsqfK+GC88sppwLRzLzQbFEr12MK8nx1EZBSS1vk9ajg7l58mW7XuKiYEdMd1qfHdk4i3fCAVih+nHHqln00+PTeZtgzTSB954Vk7hMEP7heAacldgD2EMMBurWqgGd27WQR+65kS+unzMyR3MVeU7Mg6SmvcbKVdRx4z8ZJam2v2H4H9g2YZYaRcpklYqULz2YzHS3XduHwoUoOndgHecsHRlgiSmmWhCf8nkviw4aQDhn7EBeSJMn4M0ibyipdi6dQO2b1OaJeVfgjf/DcZctlkQrpg3lctqsXFrm4vdB29izuoVZ3prYqDwFcTkaHxcZrs6qVpJ2wuHVbxAcPeXYgT1Wowu/qkIXjmRmZmqC11fUE4nKtJ/YJnZr28ykVOFWtIcEEImZa+BE/1U5eQfA7NyiXq5UHe6CN+wikIxsVqcqhQUFmsHb9TMRGRJCn/ZsY3EqzO3O87XZfrZZnSo5+HBvtWTLjcKttAuFm818hT4L/iMr1Gr7Ku2diT9yaES4qsrMpw461ntjRR0cHuryQiDiCAsKovULp3Bu/M394wKIxMz1RHNsGcQR0UL1ce/Ueq/TcABcRLyPz26iVTOGcdBEtx4l4I3jBNXRsHpFXp0M6+QsDzWskO1nZRM5WxxBQvFCct4kNe0B+XCVVZwGrXY2WAx/iML/CtmMUhoFDmBnk5V7pHiqMlMpiO+Kj6Y4BS5l2N5VKFWc7pzbTT89PedXbbPEzH8TvHGPNo2ytR4LDQyk7UvG50qe54rvxudeZZHzrFF9efs0cPGOKi/tUSdIXELD/eTcZo8fJ95v36opFk9+26Rml9BgvwBwGTvSVHqqsJ97BBYjXxld6XiJbJgqp8LHXpAUOptX2ezoQjNuDeS9O7WmHx6coax7hwUYiZmr2a9z82xaaLlQBp4jnqryRdQNcIRsD0qTfp2a80jXBMpKwNt0XNGhoZz+uZK2nEfM3tgtIKIfPaCz3UUFWDKCRb63/ATE5QkLAJWl+HlrU2s0Gv+JgfhmxX7hbNt1WIVfuLckha5W1NWxUfxY9QpuaN7Fe9oobt4vgEjM3ETGg7u3zgbiuL9Qag51BgDttZvvi9/F/O7abl4iv2D8QM53x4SFci5b56JbvTXvHR4UxFUqh9bP4Hx9lhd7feJ42zWuZZcPD2fP5/q4KL8CcRzLVraTj9ap6P4jSScZjv5bXlIpSUplhYhsW4WE0AuFXXsgKXzo4yjcOhpvrzAaRwQTHxVJ+9bNpbciGhczF+oU7pdty/2a25ptmj+aN1SA5I4Dup3I1wTYpkgbP4d/ox0gouXFkwZTqwY1KDU+xtRpKsC50sRWVgvJYKOalbhaBU6cbzwA3q/Nf7ejKBzHbc+TxWRdrec20jf9LBJH959WwUGKo3EURxoDdLXyLhKXpJFKSXyUpq6MjVEZhefdirqBrfJKV1RsQ8uXKEZndi3xamRiLxmFaAgPlej4k/9BHA2H0RRbbwfI8X34aa+fO5IXv6AwCMoNXHtMfP00fQtXhuxdNYWWTB5Cw3q3p1qVylBSTBRPPrqSCNoGJwB68PJIdGI3ANXKG76AeKbyE8d8YM00bo5luyhZ2zjbCwjrBgVShpe62+dWqrwiNtKloV62qZFWMDj9U5507mFbgQtKufByRiPdVVjc4+3CHqXRODpoK11RAeSVy5SgMzsWeCRKcQber27u41HKnDH9+XYTFrdblkyidw+PC816PqZTHp/bTFXKFLfLTcugGsjAAQ0W8HO47ui7itmQfV21bAkeuaLUXe7rqibitnxOUQ0vOmpetyrtYJE3TNsAqp7gveXKz4PrpvOdQdPaVej+6Q053hsJV3Du9pov45n83A/5cFmlkp4URzVd9CiwUak8N2o0Yb5PaEpSUzX9MydGRSpOZr7IwyjcOhrfGR/NDXbUAHkVBuQnt871CpADwK8fXknD+3Sg1LgYy1YXNrctG9ah7++f4a268tpjQ0z3gXz84K5Ou8Z/UIaYukVZT51KwLYFbnwN21gkOxEhf3XJg+CNys9ru+ng2uncexw7C9g7Y2dhq2rB5z08s5Eqlky1u6ChMfIqPyjycYYdoyNVyQ3/btRqu/kUwMt8VObPRq20VimAJzIgPK9QVogo/H5qot+sqqPYiq/GFwE3HfS92xaP49GEJx4AvAfeayt7TxgO2T6skHrBa+PRpTSuW4fXtIjI86MBVhpd2r+Uy/aceZJ4YlpH6nGR4dSkdmXesR5yQ9xrbzI9A974m0D1Hds0m7q0rM/BG5+LBG7rhjXM/voH7No3mywIcuIJPI7S/KDIx5UXU7KqFm66wz6t4GShfzj74C+VJjQ7h4bSdyWUR+E3/WxrVD9IzdbIBKrRYaE0eWhPenZhqymaycVDADnY9OG9uZrAXmTCjfeTEuhhxgFL56GsPO6ALqb7BS4zRvYho+QF0DZH7+DHcS81qVWZxg7swneOcom8xwp1zA0gLu5dwqs4YyPCLdSO3szxp62dZnfHimMYO6iL3R0J8KRJcBD3OrqR4r/zGpudQ4MV4wYEInqNvoQvqZSuSis0Q7gUKFZRQtMfuHB7q+qWuGjeUVun8qEBf4kHZffySVwupWZr+trMHyLp07NtY771dLRVBrCXTk2mJ1cOWhoJmDqgi2g8P1Iq6CcJvlhJ0Y29ne8HwA6wFA8h2q5ZsTR1bdmAVs74nM7uWMDpEhm4X3vw+Dntd2gljerfibdUk3LsHDXcCfHljT12fx8cPPrROgLx/mwBupXi3yAOqmdJTCTHPxXXbprvLGe10n6lCU34/d5XmND82g+4cEdzInsIQiWdqg7XsrYW5kFQFqD6TO7sA4B+wx8gU6GEtTwME4oDUDLV0BzWBc+JB7VnhxaU9fh8tv6Lr32klClMAOuzlmcHlvHmEEhSQt6H6FmukjRZwJpsYPE9/B/qFVDZiHsNyU0AdrfWDemzXm25UgVuglCXfH9zr+Xe8+TfY1JLHaC7J9fRnDH9qExqEr9vc0gmzQZZsr+KPe789Pb5fCdrL2gBKC5j4Hjbz0HcvQSndAkV8L6wnI1nH/a1UiplWESEYqvZvNKFK7kg2L71YzeW0a2t7Acwx4M5sl9H2rNiMr9Zbx1dTY/ObuSJnFss6j61bR6PlFrVr84LPXQKklxwVTyxa2W2TjDvn10UCU4PT4Ag+GJfyEgBcJnH13JuGPfKujkjudYbAInGEZj4GgCN5CAChCMbZ/IqTAAk9OFQMWWZA4YsD4O2Nf2D94bHydwx/aly6eIWsLZ3v0IyiKbJjvpt4vuwAHC0y/BXfbi7TdhtLWrRWMcX2vARSrd1qKram6CsQvObEqk+r850Z2VtqULI7wjMAcyIrsALQg1QoWQKT1hi6wknuECLptc1ZROkN9CcCUNzNtN9nsE7pgvw9Vx0DKAcN7grb3IAoycTOB7wKj8u78xgSWuaadnmWzvf94SDoBK1CV7vHFtDc8f2p0qlUi1UibNdKSSx9pKZ8k4Hiw960TqiUhoHBdElP9SHO/NiitWp8VPRzfGqKRbKQ9GVQmkU3pRFkl8qrNB87KdRuO1FOc6iANxIOg8lm3SaD9tjU9JH+e9iGz28f3f64eE5u011s+4dFQDsQSrl/qn1XIudGB3JlRabFozhOymu5vAyoPvLOZCpPuwYR/TtQOWKJzuNvK158HLFknmi09FOBgsDdhKOqBQ8c5Du3c4HAC5PFCSpwQsG9lcYzv7Fm5azqeyDXiuNxKezbX6WnzkVegLIj3kQyN0Ff0TrQ/t0oZf3TtsFcN467sEJAcAejsZXTh9KQTo9z0PA8Q9y0t4dmtLyaZ/RjcMrOcBZ5zzyezcnuSEyFioU5axgf3/bRrV4hx+Znzcosm4O5JSQMyoKiyA3vHLwnmF+0gRCbYITzZRVUCo/e7XrD4sSB6mxnFWqDX/mI79wTwI5Gki0CwnmHLnelwBu7iD+eb9u9P29Mw4BHJP3ZhTga4oiMw9y2SXOCXT0UO+8fXyG90jFjkVJYw8AMhQd6HQjK0cAZNA8Y1cEN8DGtSrzYixUOiLngb6q0ElbUyO+oDvcV5Z8OEYoqq4cWE5bFo7lXueg/QJ1elXl+/Ic+kk7p26McsVqrYql7cto2aweaOSU5s18hhX7EmI4l68UJxiIT/AKgBctWvRfIEhXSqU0Cw6mrxRQKb7o2uOtiwND+gHhobyCzJdROXp8ugJwE4ifFgCObTrbkUCt4+xcvX9+kQP7mwfOrQvkghwk8GwjRp1VAQ2aKiDngZ+DnexnPdvSvLEDaP/qqTzxiPoBRO3fmRtnv8lMs8t5Z9komPj0MHC/YlE2SuG/yNjGVTEb5o7iC1HbRjW50kX2GFcSddujUdqw94HXi7OFS/YOhxrHEab0CgvJVwAuz+sqDPXMZfg3ggMCPvaGY2E0+4AXSqPFOTHKqJQv81kUbpvsvJwcz5u1qinPd3figWjRoDZ9eeMor8x0BkpcK47KzcJOgdw9zJO8rs6VDORvH55iYJPmMqkH7w8kop0B24fyeJNeG/+GoRRcCdGAoWGNitSiXjXuI44+klBt7Fo+iY5smMmbJh/fModzyDcOr6J7J9fzSPX5xW28+Aug+9313dwADUlWSAezTXzvxh7+/1gosGDYtnrD4gBuG80oULEpm2XJ0bY7EbdtIhMS2atcTpjmsinGgC4tHFIpCJQWxkT6vT7cUcA3MzpCTeX3e71GX8EbBT5d1FAppxVQKf5UYp8bIMfcER9NjYICOb2i8xIPDsvb03tX068vrioDpafnC335PSJrJeeKe86oUPOAHtm9YhJXF6mNUO16n5jfAxI86L1Nmu9gio+M4D45pVMSeVQP/Xf9auW5cRQKgqD26NisDu/H2aVFfcvs1LwedWhah/9/y/rVuUkWpHuvbf4GRNwB/1PELbMsVwEHjhnOjK4AHMdx++ganl+wlyCVpYVH8om00B6IH05UWYYvSRM9CuDx8fH/wN54nVIqpU1ICJcM5ufiHncu1NmkOBobGU7F9aaGqZ7kyhHJtWlSj14/TlcESnJkWdi14kpA/N3jMy6jb0fgc2jdDKpYKtWlaZW7klS5TF1OIkp2jK+UzICPi3C+HuX1MpAjWu/YrK5blaGuABz+LzC7UqLYAZUCjbmzosFmwUHcqzu/4gN27Grkyezanwj7S9i/etIrJUypV4oaVcqTfCArdCcqP5AQQwPDQy0rr84jIK6h8UP7KKJRrLXioBMKNYjfP+YcwJ+muwXg1hx5xr4lPCoONFdVGvJIteQUWNlxlUiKp9vH1vDFB8cOSgYRvSdBHIsMKjJBNykBcPDkyA/AVtfRQohnaAILjm7nY2zAsU+JClfTRPk7NN3xZB/NeuyNf1UC4BC2n1NApUBWeDsfJjSVRuV43c/AHD4PpVA2bQZzvS9B/AsG4veOFG5OnP39OA/2dyrOzw9XayigowDkKFKB4VlCVKSZlvAvEMfxoJDM2iYZPDloFk+BuM7MgZ/YMldxVauzZsgypsTodLQtPjpf79px7LsZHiSoKPzxpD3tHwyStFCpV0otdjGeFk9xqUr5Ih8nNNWCOcqEp0dF8O0UbDSDzLSTGlCHjK1P59YceJSDuNCKQzoIWsmueufxGYcyOwDcg9MbKPPEWpP2W6FdMAAM/DR00Z6mKXI7oTLZtni8xb/bUyDO6xYY0IKbh/GVGlsCUDoweHMUhcuuhfmZSpEnKk3rMHyUlDsbroXtt6eqNM8p5cPHREYoSmjey+cJTbU0y20zL3YoMYbmRUdQh5BgqhFo5AmbIIWcePP6tej1o3RVIG4PqArVZOD6/mm6g13KUbtaZXiUQDUCWqB4QiwtnDhIUUQuK1e+ubKLti4ax3tSQjKXW5WHJ+eKaUN5qb4M4twtMBcgDvCFre2ET7tziaIaAMfPpu9eRMmxUQ7PD4Kc4X7axccdHPhMjZeKRnqmL6oP9IRXSgp7w1dKPhQyoK3xcS758G8KUELTnej8tlk7epGtzKBcqrAHXaeATqlTtSJ9d/eUS324rUIlN5xvQZhYyHKcFzsuj+BwJwzpZmmYwAt5igRQjfKleNGOYhvhOyaAgmMlnCjRySae7cSUVjh6s9IXhlkyiEN6COWKOyCOvwNSRMgk96+Zys223ClgQh9QZ1x4LIvwd+ZzKsX62QctpLR3L6o39VptNU95hyuiUsoajJSpwHb2aSGgUpSuzABzdMeWFDyAKXGxdOvMTlW8uAmsCrdCBdpve4oUe2XfvBmBDaiBKlg65VPVLffk8nu0JUvftYgDFrxXQszRuS7AtxG6LYijkhQeMLLnuJKcl7wIlWeBGIyv4H3uTitCnGvo33kXI0c++WzWDgzkRXU3C8jzfjoplsoZDMqbRWik8bnF8D/qtbolaqSF37mQFn5fMn9WaHrzwvYNC1HEk4HT3Ll6jmKduFCoyMnNo4osCQC6MLSCFts6OpQTdvDKznJTdy/TDKBrUJIPO2K8Z1xEOAdX5Dx0Xk6I2oI4/l7ejNgFiMsFS0g+YlcCC9w7x9dYKkjd7mA0orfLRQOGVwVt147KUxWKtSOolnc/CtfrNQZJuqf0JpkXE+2SD/en9mv+Ij2arFB6hIdp/uRh6kDch8nNH27tz1EV6C++KbbJTV5e7wBskZxE4Yk1kANQ0GAB1ZCecALE65P0LTxCByjCmwRVnHJfSVkPLjd+8ETEbgviiKBRKSrbHlu7aso7BVgmo8gInXh2LZ9IT9gixK0AclFEJjtC4n11TqgUKDl2FRAqxfp5R/Wmiuv2xFDUYMwNH16avck7JdusOIWGVw8LmDbcExd1XVwUd2hTktzs1rYZvXlyQV1y00ceKlBnoBUdok2/Mni6k8ZzA0pterHVR/9HWKfKIAOAg0Rv84IxHmsKYTGcMr8f/EWObpzFHRHBzcNzpLzZZx72rKB1cDyI2rXmUn650pLz7ZoPgG9v4ucWT7IC8btwZfycAbWRV4fCYhcVqJVKF6OurRrQzJF9+K4BKh355z1xXfH3Lpo0mJuGOdvZwynU33tpusOL71ElNdT+ZtToGuWii4+up1I+vLIxkB65kBa+zEeWs768qFCsJCooycUDXJad46dXD6lKbr57cs4n5fcApKnDetHET7vzqNyveHG2kKnRz5si8jncuU8GcgAlOFz4jcgyPY/7dWeaGj3g8+GNgo5PKNCBI+KGeaNoyuc9aUiP1jwyRvu1pnWqUM0KpbmvN5Q08D5BqT6sYqEaAfjja/TYTGAgvWbWcMuxyxExdNrw8Yb5FTr0PD636UMbt7sebuN2x9SxyBSFa52KJKDiKogCCHiMQ5mm3BBLN9QtAIc+0ajVbVHKhw9gN8qrAmx25e1kR1kFyQ7eJZw9lGf2rcnWik1Z+b33u/wAfCDHi2X3Atz63vhRj883949nB3EFeQIc/6H1M8z+KFrLQorOMxn7lvrk77P0XpVdDs0e5dx98OY+LhNEoRGiZYD9lbTldGHvYjq3cyFvhnyGgT++Rjci2MqixdxrO/SOxTHxjndtcvG3ICHqKihE8u9UUmyBpV67h4aoAHFpn1u8uCRJ/2GQpAtKs9ZLYqPpTSlBpbgzr7HZUaFVJUBk0vD+9IuKSNxXlZsAGXS7wXFWL1eSJwn9pdsNeHF4hyMix85EabIXx79p/mgzV/0ByGtUKMX5bG9E5O4AvVxdKnevf2MzLV3t85DmwvEh0q/EcMKZ1BIgDj31zQJMoS6OieS7DYUg/tBgMAS42xD5pRIAj9Lp6GhSglN9uKBSnF/U8ZHKun/IRT8/PjqnLrn58KTPurQnsy09uNq+nZpZOt34WwHQj7cVar7NVYVDe7XNllwEv1y5THG+45CBVHi3u15spg/v7VSBU1ATmrYU6sEEZRSqef5o0GqLqQdxSWrDfvnvSvjwaoGB9MQFH/5lcaFKcXZR18dFUYTkuggAQFIsgf3OaXV6cc6L3z7g5Yd0P/e6rle1PE+8QQ+NRFq+b1HGjh90RcPqFbNFkPgaPPPs0f04TZGVmSbA2kUzDZhw6ZwobYAnXUND+O60IFOo6FBUTUGR3//P3nWAR1mlXey76++u664NSaZmJlMyNT0hlST03nvvvfcuKkVUkCoCShUFVESKIkVA7AVQUVHEXimudd33v+fOfMPMZMr3TclMwszz3CcKJJnyfee+97znPceNFx8dijJlhlg+vIcIffiHuRkJwA7yoVZI+FA3LJ9Hf0iQGvKhnyqa3Jw4pLtDMcFuViTD7N+yKK748VAVFXgdaBy6gxA2VWRudmrRgPY99gDnqS8mwLzSwmARmrEBQzScVfjTdkuNn+h2zIfopOjFt0ryUeFRbMnyXWKVKQvMpoDSwgSVIi7CCc0OhUhHwzGDetF/Pn1FEqVy4YN9VcCL76Yda+fxKlyoVmGyBJVFTaAcFs0ayYeufPUqoAqBcuTw9qUOdUcNCEqO1AYI6aQw2BQIS0boU/m9cDlQqAukBSgfhY+VaBDX1KlzB/umD8Xw4aAAng/Ch4NKSQB18A91jdUkqtnhkBrm0Jk3pEkNqyI4+byTeqhflO+hscaEIrIcqzun+8Vr23liji+/EUGLDb01nPmgbAHNIjQXL0dAx2tGEAUPlw7SzKyrUtHudMtl4auE17hJJIXqXF8g10FinqbsWzFVOFJsTuZkBazEP06oUkQdrw5kWKlULc5XQZ+ioZ2blkmSGiIAoUr04ux3zBrTzwPEERoMnXO158cZGCP3sl7dHP/Thk4DLQwHtWpQSvdOHcYzMwHoGIgS5HyXA6hD3QNtOrJFAzU01dwBVX/Z9M2kSIud67+Shn5UyYqu7Jv+FMOHN9do6GyApmbCK0Xa7jzFqBdJqSTRsL5dpVEqZ1+l81Xgo4IbF0CHbEiFmyyvbqadjj29sto3AFFVY5LRrNMFpAeEyhyvHZsYPFmG9WrPQQ1NPpxY4CR4wTngI6TdC+n2NQHAoV1HfF0wSSFyCA5n2i4r8QM80ltqxPuLs01wmHgQl8kWiW1qTjAaLpsczaoA8SfsZm6/KWZ6s15BHn3y+h5JlIo/z5DIN7J20hivRhb+u0fbpjyOq7qDFF4fRuNTRNqKCoCOCh3fA1ULxvoxWg/nRHiYb1g8nTdP4e6HEXzQEJBoCkn1qOKF4Z9genDH2uUxvIPnDLkkJkG/cf5c13rjKf53kW5mwrkx4EbnpGRXW9OqdfxaOGZYcvH+4svEhkBcp5bL94htai6zBB7yOZOgUiQteEV0EhmoCj/nLasWSlKpVIXUUKAdDm9fxvlh95sYfhm4sQFK52sAPz6mf+eQnAeF8GP3lHm8NxgqwgkGPQXkTqIpjIBjpNYP6dGW/b4uNIW9f6CrsInMmzSYFkwZSvPZgpkVLA/uYn8+e2w/nmQPpRA20xG9O9Cgbm14+g7yQNs3q+A/Gwue4PAVx1RnpE5J+DlPr5nLx/6DNTP7stf8Ztbl2Qd70GykFLHXjEz+EoYwxU1qymSviIp7kgUOgcAY/oc5CWmh1A92uSVNZNpPMo0c0IN+OvNKXPqLo3KcPKynRzWOG9qg0bCqc0a1p1VQ6Z4+spmBYqOIhT243AR9ptoLxlfJbsZXnksuLK/v8TDM8lpJtetQ64b16NNjj0fkhITq/9TBjXyqNZikEHGFT9bgwZ5g9zqamzoR5neCoyGcZYNTKUkqI/vHX4tRpmQpVfRGdqbfpuY3CEPOTvDhUhseRzJtnCNUBKVUkGCeTqeOPSNp8KeqrGlxM4Ma8G4C4nkXsusCnh4XawCQH3/+UWrPquVAhk7xurBhoFre+eiCiG2qoFGmjewtyj53ulF/WdOnu6RNbn6XIpdbRCbby/4Qw4c3TdHQZ3k5fpuanyUMr0LeoRezY5aYahxH8DWL5khTqXxypEooFeFYjalNb201qsWOzRvQhy9uDsubOl4UKycYkGPgh/t/VzMQB+D+cPyZiDV9YUcshkaBMmN/hvWyneQ+7oxobCKiYBMUKiq5vH3E4tgA4p20Wvo6wKRmQloY+od7jH24bTQpIrI3k6hnh1Z07qOj9KsUV8P391YZd/z5a9sc2mqvozVucnDK38Sjv0oIQP7+gQ00uHtbPsEZL8HIwWibvp1acOvZiNAo/FTyCE8sCkYvQVIIv6CE6MFOgyU5GiruFDNuP10siI8PoExJSAvDP2ohLCJYqKpDg62j/U+ukVSNVxWlIlRnL25bQtlWs9fIupwHEqy4Z1y1bnK6gxianfBURzByPKXcu7/neF5apYo3SjFJGwmnSXx+UL1gUw4G4ILV7OVchbufuuewzUzC+P02u91+TUAPcaVMtkXsBbHKavHb1AQffiLBh4dtUTuKHUvFNDhnjB0saQS/qgZ/3BcSa3RqtYeaAyBnZxfx48vvjBvb2nBPHgjEwJh5v84tuZY81mDukjcmJXP1C4y81iyczM3KIkVlQd8OG2I0rYO9VhQlk436RBUeQlwbu3cOBPQWZ395E/uHr4v5Yeio7sqw+wXxswk+PCK0ysFMKzUIYowljOF//Npu8T7jZ6vGY9wd3JD6Dnta70oN/4/EHIQY1BTzKJ7Mw14vRu8nDenBU3cgCRUUIdECdXc9OhZ6EUj4gVwRcsTd6xey08K2iA4U4bW+tWcNVRTmBq3CAeC57DntuUzG68WcuDfbzOLH7+Xyt9Vq9c2Bg5ERzClCmZLGfumBAJ4ppxN8eMQ+ZBjIG4J8yACIRx68SxKlUlXZm94TfM0rin0COfTKPFH+vZozjo4KFVLLt/au4eES2MRaNiihHLuFAazKTU4YPC9TIWjLky7JB3mgsfPvEWoMl0VI+9BkhU78iZVz6MiTy1xWuY64tQhuzqBR2GaFoGe5CJmlo5emoTcT97arUNuXYWUbm0psQ/wbZR1lWiDPFC2MVkR5prAL5rgfzxTw4e8n+PCIDgD1YsdgRZAGZ+fWTem7Uy+KnuD8+dOqiW2rPAS0lI/ge0vyHI22lnTm2OPVXrHiawMTAB28OSrXrQxgkT6P3EyAYOeWDXleZinyMjNslM0qNIByltXE/ttC+ezPEJyM8X2A9NCe7Wjm6L609K6x9PCCiTyNHhFsiGvDqccVvRZFnxZ8ntD867k3ikxUChg44JOJ+9pDodIoRbQN9W/KZGXjQOP2xWLS7bGbttD4lxdi1D4RABHZahwDEVlB9KQwGXpmw1JWjb8Zlw1Od0Bbv2g6T1j3deODfvi6BihWAoVnCKD+kzM3E38O4D3LKmbILhFj9s5za+lNBvZY0NsjYBiNSPybb956im8IQnX9k8t3peqMtQSNfLkIGsV9QHCVJS0B4l4eKi0keKiokhV9AskLe4hJ88EvG6zX+Q1GTvDh0VljDbqAII6j9aCenejCx8fET3CeeanKwiLcF/y2754wqJL3CEAdygmMj3/3zo7Lzr7VMy/Tazn/Lh7eE8FiFqcBqfx+ohKvnCXQS2TGrlNmODhQJT5LrLzwblOa30nNBB8enWr86XQLTz5RBmhq2dnn8vKeTZImOC988EJMvUd8vQ4cz5fMGcOrzUQyTnxG1oEK0qpUkrxjHHGO6hqdZB/KvT1JpHupU6Eyx79GXCZfIjbdfoUf46uEPjy6ksNgOzaaS1NGDaSfpcgNYYoVg+oOQAC3PgwC+eLHYd+69r4pCdCMQ+XNoSeWcMVNqFYDI/WpvLmZAHKHzHCR2cgHoES+fxsZXF/lrxJfIRbEH7ZafIL4twm/lKh/2ClBJGZ5GezmOLRdQjUOueG+mAECFCutGpZWUjconBpyqDoSMWfx06B978B6alG/JGTTL+CHXq6ge03GBIg77+v1VhOlijXCkssPmm699fpKAI4pIPaXT4r5IVr2y55K9+1e+EUi1T7qhjmBKBUByO+aPIJ+Pvtq3FfjApAf27GSygtyfUgPZdzO9okVdyaAPA548C9ff5IHWyjC1Lnj+rWz6xjy2cTUpmQ3w/fkcvltvjTi/1Any4+JefMt7M0/kpXhE8Q/SfDhUdeUZgdRqQD4clk1fuLFJ6tFNS6M5u/dcB+X1fkCckjtMNWZAPLYKWoQKgHvcnjDRGIwSeFMt191mQM5irPtdnNQiw23dcanJa3YcGRBI37Cj0b8o9yEf3g0QfwFESAuUBFzJo2QNoofw2pcqPS2rryLshhge3Ot+P90UxrXJAugkgDXqgTwZ3ij2Z8sNBwgh6f4QwzIL+f7+nl2X+eItaRNln/KKnF55aZmcrJBjI+4o7ucQp/4yNX8LtHUjPqO/Uy6hWwKcSAOr/HjEqvxizFQqngDOTIoETLsDRYAcotBT2vuncyrwkRVXnVeMA8vmMR9V6JhFwBMwTW9xGy8bEH8aKaNytRiB35k3yoUClPlac0kRV0GDD+JkRe21mjoSx8WtF8nhnyi/mHDOEiSV/ToQZLClH8+cywmunHvUIHld4/zCRr4f/w5EuQx8JIA8uiqhzCA9MDMkUH9wSMB5MiWXWgyct305YYjGPhpJX7g5z9qubyosjJFLm8uNgyiDQPxr3yAOJqaCbCNDngLHip2hegUEJdu/PDOdfS7lOSfjw7G/vh+YictmjXS6XpYGcjhE4Lot0+PPVHtY97i0vOFvaefHN3Cp2dTfXwGUTHvcoYmT2WFymtZl1fyPTaunqIHfmR/KGWyVv6mNUUN+nTwEwaRCEWODoUC75QFJgNvAikk3hjCFOf50y/Rr59LyeHcG/Nj/Ldv76A7x/bnTnyVgdzxdWC31vTegQ01xv0wXiZGD29bysOThU1TyjWXotZgqjBkIMdoPlLgQTGcuIwKtWF6CeEQyfK+vkC8v1gQ76fT0Xc+QpE/SIQiR/RDhfRob4aFBuhSufxIGaI1qYFtujvWL5EW4fbx4SqLcAsEKPBQgclTip+0HPwZNMv7tyyuUe6Hsaq+P391Gy2ePZpy062iXAk9gYWdkAxmKugwiGxFDUnFJXOykIBcxYtFDT2XYb0sgByvcYqUqU25fHzIIC5jFdAYg95nU/PdRFMzYh8oOLJlljSq52x2hJPbiGq8XbNG9OWJ/aIdDrnkMMZNTnePDlAn3GfFB5ADbODwt/HBGfT9O8/UOAfEqqq+jz61nLtI4n2WrANn/16Tkkr5bftRw1ELqGLoHMps0JZSVCn870LlyZvD1O0y8B5HwXZ3mkH8fS6X3+Nj5F42SGwlPjPNWElemJjUjEz1fdypGcV4PapvRYT4RgQq3ztrvAQQB61yjM6/tydOhky209ThvfxW5FCuQP42hYE9nP7g6JcAaHF+52deepzunzGCcu0hVN9uAJ7Xqhc1GDnPueZTgxFzKa9lT9JoUsMCcgQqr7WaajRHDhCfZxIP4kqZ4sHKjc1k+Vixb+q9ZlOlQZ/EpGb4jUtowKexIxUsZ8Otvn1JDrPtNjq2e5OkJmdVB0cEq8inj+ztkyMXqBWsDs0q6MDji13flwBrP8lDbz9NOx+ZTx2bN3BdI6EAuFZroPw2fdwA3HPlt+tPqbq0sIAcDX0oV2qq34pUEIfPVcgOhvglyyxmulCQaGpGijp5KdPGfSRK1SoPTjDSC1VWt7Yt6KuTByTRKhc/2B83QA6O/K4JAwOGEGDiM4MVGvMmD6FPWJWZaHp6ygbx9eUdK3nKEOSa8hA9UADK+jQ7FXYa6hfA+Ro1nwo7DyOdwRIykAt+K7Bjfjmr5jU8AeLzwwVx9s33in1DH7FVNr9K2M+GpjpZbU3jvJ/GWXFEW8YFWgW+KtCO//qZBLXK+3vjBsjBe6P5BvrEn4seAF4tl1O7JuW0Z8N9zgCFXZc1743qG/F3d47rz6kTbHahSQcd32POKaHSPpM4SAcEcSeQF3UbSbo0W1hADqe/3mzjgZXtiRoG4vdLcDL0XYkny5eKkg+xtZldABcSypSQwfstHo5qou7sYjRGkPcWq1Yx6XS0acV8Sfw4RvJjPQTkAeTHn6HVCyZxT5VAbnqoMm1GA+fTjz//iCtY4fIC71106tBGWjRrFE/hCZk6cVbfaFZmlLek8sGzxAG4G5AX9xhDenNGyEAugDkGY3bWoIYnQBxChhTxG+lKbwy/goH4anEOhnLa5uVg+F1+Qpkitmm5m1140MBaFAreJFZWIYB7GEpZLbT7sRWSwiMc/Hh8AOB5J0A98wir8FgBEYgSEEKGkV2JSVAMCF2swhizWFnGovJGkxevuX5RnotqCvnagYRQZ6S81n1401ISgLsBeUmvcWSwZIYF5Ch8MKaO2MITNQTEYQQGfBUJ4o8At91B/Eq1TLFOzDfD83ZHut0DxDH4cyIB1AGr78Ps+IdYqnxnqnXEwBs3Qgg3A25meKtAP46KXNwg0Kt08cP9cQdWR7Yvo/ZNKzyGgPy9ZjRFWzUo5XJEaKIv1DAwF6ZXkX25ePYoalhSlyt6wgJvJ4Wi0aVRTqvel9QnUgHcA8jHk8GaFTaQQ7my0Vb9lSsA8bXcU1z0sM8mj2CIolpFV6vk8s1ivhmyt10ZniCeCEb2D97opoP3Rpq1OpK8txO8oQwwWLMpRa2VfEMIDcBNKxc4OHIR9MrPZ1+JqWWtP+A6feQxGjugC8/nDJY2g6odY/vgy7csm83BHFK76grmQqr9d2/voFd3ruLDUUU5mY4TSNjg7VSgGCxkbdCeMlr1obrdx1DF8Lu5HhwrVCAv7T0hIhU53P/WMAA8Uc1BXFIwhEz+BHDbIxCCVeKPi/lmdIj3eoH4Z4lgZJ/UydN2x7RlWgR5b96wY5UVLn4MU5SwGwGDFQUdB5POaJUO5E6O/J4po+iLE/tFTXWi0Xnh/efiTnUBCeLD8ydSQVY6B+pg2Y8YgoLKBVU8YuCQMs8BsRqoWQTgxlfovLeunMNDi9EjcIB35LxONKlpZCpuQmmFDcmQXUx6ex6Z88soq1EHqtt+IJUPnh0GtRKZijyDAfl9JiPvNx2vpiC+UUowRLJ8O3DbM9VHJt8qFsSf8wLxRBCEZ/UNvTdGaLMjpveG/jmZV9tQBNRt15/KB8103DjOm6ehs2lkCKFpJCgUOrRoTPufXMOq8leDcuV8EChOFCveTbxjT6/gk4cwbgpWiSqdlTmmFMEb3zNxEL301HL6/p0dcVedn3eeOvC8EDINqwHILZvUK2QnCzXflKJhVKVhp70Ujc7jBIjrUcULChUZbTn8mqw//B7pNAuAHBV5BIDcwLAJLp+vVEPzLCHdRy8SxJVy+VO+QHybaBDPTHeBOFemJIIgOHjDeW2pOY0q4PoWCfB23jAadgNZCyq41ra+8xjr62YBkJf0HEt6kz1kntxqNNKdE4fTe0d3cLAOBOY/n3kppkZZAmhfdAKbsP5zai+3UF197ySqVzeHV+RiKlNBcmdPM9Lw3h14JNzHR7e4JhtjAej89Tl/N6LRDm9fRg/eOZo6tmjAPddxkpJHgjIRKSv0VwRAsZJZvzXVH3ZXiEDOKnJLVtiqFag7cPo9XM0kiCedirVwQfyJUCrxyz3d/oTTRhK7aCetJjKj8k7wxpRber3mvMIWrQZARd5tFDciCuWGEKYeC3Oy6J6po+jtg9t4VufvX77pkzP/TxUCuUAhYEFi+MlLW+jNPWvo0NYl9PzmB/jaxxYane889widOfY4vcX+HpFi9epmc4282PcAVS14czQG4duya9299NERB93y0/t7OLhGOl3ItSk5XyM47rf3ruVTleC5WzeqxzcYAbirwh5WCsir5UrKKG/FC42QqZUwOXJh4V58vhqZZ0nO2ZTLn/QAcRDkSplsi9jG5h43EIe88ORlCOLCqDxcBkfpdVwyGDZ14g7eZc1540e4wKXeEAWdhvCmZ8ijzk6QyEm30dTRg2jfttX07fuHOJB7A3q0gVwANzQgd69fSA/MGkkDu7WhBsX5lGU1k4lVpOC2sQwaDVnY55Fts1BFYS51b9OEpo3oTZOH9qAyVnBgQEjq+4CFn43fN4uB6aYlM+mN3au5nws33PI6CeD/HSDvuQTZn/u/Farsb9nJAa8PP3fL8jt5EEOfji34UI5AC0WLLonoMJlCRTnNu8WUIxfolWbVyDwLIL5BWljyNg8Qh1SF/eFGsSC+0w3Ev+HywssLxPGGH8m00T0mAxWqIiEZvATeGKIo7TMxNPD2uiHy2/QNSbXiqyrF0b1lw3KaN30MHXhqLZ1963kO5H8wQOfN0Cg1OwF6n778BD00bwK1bFDqnNJ0AJqw0Xg3MIXThPDvsLg8loEhquvQ9fXJDv6c3QMIdG7ZoIR6d2hOd08YyEOcn9t0P73w2CLOyUPid+rgRvrw8Gb68MVN9MGhjXRi36P02s5V3NcFp4Zn1s6nVfMn0iS2wcC7u1lFMd+UNE5JYHUAbd9a8jRO6zUMEchx/RvtuREBcriAbrHFv5YcmPKoBHUKim4PiSF04hCPixv2UdBTbsM+X15G8kIuGcxyvNktNSkRkAxe4rztJU1Cr7wDrOymnUmtVIfk6+wLzHGUR7Vbv7iApo0ZROuXzaWX92yir989SOc/OkwXP9jHqibSAwkAAIAASURBVMs9roo0HB4Z3//GroepZ7tmHDgdoBYfYCW8H8JmAuAVTgKYEM2xW6iQFTcYMMLCQBI8uhH2jI0I/xbNSEElw1dSNQRtP0BuyimhegNnhC4/7DuJ0tLzIgLk+WzjXhfnEkSA+BqrlGEf+QbgtrcB1kpRnWq2HrdfAvHLQV4oSAZ3sKNZX502MpJBbt+pJVthAyruMTr0Cbggq/6IeyizfhunQX8kpz4vVbhohjYpL6Hu7VvS7PFDacvyOazSvJ9XpKdZJQqqgNMJ7wpNyEsgL4zBn/fR0HudATiUF8LvqS7r0knAcwl/Hi8bUbRpFWtFGyrqM4ldg3NDAvKy/lPJnFMckfxOKMUeiWMgP+mMX9SIT/ZZ7T2xCRBfJNJ4hTbYrC4Xw5ouL8SH/mJmBCWDTlmWJa8eFXUdyUE2GuDt7utcMewuvlmoolTlKZ2NNnmdJA64QlWKihQ8dLfWjWl0/840YXA37iz4yH1TebMOIP/u/vVc5wyNNxwKsdC0BD/cs13TagfgNW0pnSAody6FFFrFnEH2Zt0pr8sIKh86JyTVSvmgGWTJL4sIkGMoCFrsE3EK4g9KMMBiIL7MlxXtXLEf6sPWSy6GH9dQEHek69jpYbY7Nk5Rh28RCwBl1TA0teCqMaAT8rRbKFXNwOlkyiwI3UEuhOk/d15axgAeS/gZCEAGyOdn2HnDEMqLto3L+OANGnrgmnWwm00AqeT3Gl/VYQK33FmwpTPga8Q+B4SjY5Wyzw19MTG+P2pVClnKW5O9eQ/Kbj8oNHoFQD54FqWXNuPFT7ha8iKVip6KQ78VgDjsqEWfdHz7iSumiH0jFlsuhUJ8VMNAXKBO0NVGuo4hbOrE2bTUmym7SWfpzm8RBHLYhsJBThnCMFCaTk/FdQvCN1HyYUzl3oB0Xwlw9ve+yT0AG81ai05H5fnZ1K9jc5o1rCe1q1coGfAE4M5jP28822DX2Sz0cnYGncnLpq/yc/g6lZtFT6bbaKheHzz3Ff2TrCKyt+jJgLw7H9kv7DVBOr3Crl3IFnPZz9CmGsIG8qZsUzqQYY2rXl5EQiGUcvlwsR/0PaY0DuI1zYJWCGi4K81AefDgiED1DXWIvbixo2nJwTsGAO5uzt9luOSUFQDF5ImT6MyZM7To/vupol4Zadj7I3dW1rFsxim9Vk0HbW4lzIqLhkV51L11Y5o3YSDtWD2XjmxfSp8ceYze27OGZg7oQjb2b5QSgE0jl1NzVmkvt5jpzexMfm/jtI0YRvc83XPOP4cqbZHZMZyiDOi5YiZbky68GueLAXq+i16Rfv2CgoRXULhDQf10Wj6cd7yGgbjotPvJbJc+X4MGfYQPEjpNqE5SwlWdOC+wtIy6jtSTKDUtQwVypJFDESP2RkhVp9AL+/YRHv/73//oq6++oie3b2fAPpHKS0t5lS6AuuyOOk5uPMkD5CMN9Apnk92iUFIu+91ZbMGbXRMKfxshe19HZSwLn4NOuqR8gR0AQLtBYS5NYOC8au542r/5ATrz0hY+DIQG8E+n9tBP7++mg+vupVYldUW/3wpn5Q3wfpRV3Z+wihv3tXd+rq91joej59K0tMAUgJp9LuayVs5qvIdrZbUbQKUDpofc8LQWNuAeQiENtDndWMFBn6imIK6Sy+8PHcRZVTCMHaVqSjiy0LicZNCRjV0U8kjoZA2gTjpx6qTKeG8pjc6hd5G9vBW7EJTivDPYjbh92zbyfvz5558c0F999VXa9eyzdP/ChTRs8BDq1L4DtW/Tlho3aEh1c/Mo3WIlgzaVNE5JnTBAoxBA3wn8YmgaYbS6nVZLG21WOpKVQSdysnj1uD8znZ6w2ziwdGB/X8x+n9ZJh0Xbu71BYR4N7tSSSrLSWVWrcJMfOimj5EvqFIXbkntp3g3sqF/M7ql2jctobN9OtPnBGXToiQfp48ObuWoH06LuXujnGYh/+8aTtGb2KMo3p4kawVe6+GE1PWgx0Ye52fxkfU4EeLsvgD3ee2ixA22YxryySiAu0CtFnF65Rzq9Muwuym7ciSu8QrKYYKs+e96494/HCYjPTtNLKDxkMytz4nJ5P7GVePfUVAbg8BGvvhrx486EHdjENolQ4xL+EdaC+vFBnXgBN76WDZlNBT3G8ioIN5Ihq1CU9BAA26dXL7pw4QIFe/z3v/+lX3/9lX7++Wf68Ycf6OzZs3Ty5El66ehRDvSbN26idY8+So8+8gg9uGgRTZk0mXr36OkA/Jxc0mm0QSuoWQykwdMCeC44weS8878FMILH/Xu5WbQ13cYqnDRqy0A9U6nklWc0AH1E7w5cTvnBC+toy+LpdNeovtS1aQWVZGdQXoaN8tKtlM0AM9tq4v+NPyvItFOz0gIayMAftAgcGPc8Mp9O7V9PXzNgPndip8dUp89BKPY7p/frRHrQfyKrb5MCWZUGvvGdDwG8vYEc9GogSiU1zUa2pt28QPwSvZLXeTiVD7kzpGsbLoqhZneiGED48ok4KSbHsUJSLIiD/vaRsSnryP7yTzEgjhvia97oqJ4gjjfsINuBEbqaFqHGpd6UfsnJbVQcgfeIuVRv0EzK7zqKMlr38biBcGPp0/NFV+Pz7rmHLl68wCmVSD5+//13+vHHH+mTTz6hDm3b8k3DH4iPMuj5tXdO5JFfAPbP2fe8wUBrhdVMXVK1nIJRRhDQ4csCKeXLz6yk/5xyVMvfMCD+8NBGeo+B8rsM3N/ZvZre2bOG/zf+7NSBDfTZsSfoh3ee4f/+J6d+XsyAFAD8ONwam1WQWoT2XOgZNGaVPob1UISdDwO83UH8GDsNpbNTrNLP/ZGSkkrWhh19g7hAr7QFvTItJHqluPsofv+F0sjtwa6Ft+IElwbotGKZgP+pkxVdKoG4Wi6vYH/5qygQ12ic3erqBeLCc11vM0VMNojjHHxO6vWfGlfgjW5+CXtOqHIyWvX2e/Og6QQFAeRggW4CHPX1rEqeOXUqfXTqFJ378Qf6jVXc//vzz4iBOSr4rp06+QRxbLQl7Pj7dk5mSOBzzq1iR1PudQboKxmg92CnSnhRC4Ae7gBUHgPIJXPG0NlXtjoHmhxDTg7flF2X/t/NU0XSJCu+h1Xoz6+eS43zskRRUHhdVgayM9gJBqeTUMGbv4cFeXSBrYtu60v2fnbU+gcgTAyby1r6oFQ8F67Twl7jnZa2Ej1Xeo6TnN2Jawq2GQfjgFJBeAxMu0Reg7+xorth5Uo8SZnB/vKcmAuiBQPxL9gH9wU70lan6vtYlo2mGvX8gg67+oZ/sSWThzHET+PSMdhT3Hcy1+Wmt+jFhy0C3TjCMpc24/FbwSSBqMh7detO+/bupTOnT9OXn39GF86fp99++y3sCv2nn36iNi1b+gXxOezYHonq8Uc3+gXFyCvZGZwSQJWaKg8v+xQcOIadOrdoyM26MK0aKRtb/Iwf395BG+4eR9lGgyivdCzovHewzeUHCU3L806ABmBzeiovhz5g79Or6VZ63mKiZ0xG2sHWLnManWEb6/1mUxBevDwoiAsrr/MwJ70i/p7ifvrdR3Mpr1ggx3tjVijiIqcTHugoLEXi0vkUuTyrMideR6Vmf/mZmN0Lgn80Q6rDyL2g+97OPqiObKdTR0g2CMvNMnTXYw7ejt+Pi76QVSPZ7Qa6dLlibphLqyc/8uozCxxeKwFuBIBHYX4+LZw/n157+Rh9/OEH9Mnpj+irLz5nFfqP9DsD9D9DqNDfe/ddyk6vrGNX8mk7Fb2anRkxEPeu0PEV6gxYSgzW61zVuSKMqtykS6UBXVrR06xqPvvyEw4HwxD9ZPC9nx15jOYO7UEmBsrB+G88b6h1JjGwF1t9C4B9moHyywysH2HH+5FJdaj7bbdS+U3/JN31f6Pbrr2W/n71VfTXK6+kv7B1/VVX0b0pStrM7i+/Xtg4xaXn82tM7PWIvk1J/2nSTd/a9qMUlUb05wStO6Y4T8YYow6x0wBOBSKvty+USqWmMoirVLewvzwuZvdCgwj84qdxDuKOqUsbqxKMrpH5cLlvaFRh8xr76hu/ey6VDZpFdbuNpszWfSWCtm8gF6pyZCoGCgNQ8DQcJTVv3JgeXbOG3nnzDTr9wSn66NT79PFHH9LnZ89yQP/ll595s1PMY8vmx/ye/jo5+zA/RhjEfXHoUF1hyAUql0KVOmQwF0yyYIrVvKKYls4ZQy9uXUKfHnvcBcwePjJuVMsFd+tatk48u4r6t2zoKEIC0V7O51qhTmEbklUU933OaSmNChugbf6/6+nWa6+ha664ghg0BF09a9/KXT39qlTY89Wx+0bq9ZjesjcvTCSpV9h9CXpTtHyWgfj6GIM4cGpXuiVAX6HSOsNAPLkSiNeuXftv7C9fEAPi2OGfz0ynM3E6rSkENWxl1UH3VG3wyTJR1beGj/6i+m44KrYDO+AMS1mVktdlOJdphQ/elRUDtsadyZhbyptSwapycOWgQZYveZBePfYSB3IA+ofvv8e/nj3zCX3z1Vcc1H/99Rf6448/6H//q1ypT5sy1S+VMjeCVIpYugVf32FV6QNmE9VPCX1+AE1HQfqH6rxpWSGN7NOR5oztR+vum0rPbbiPXnlqOR1/7hHe8BTWyecfoTeeWUlb75tCTfKzggdAO5UnYwx6/rzPi3yd72dlUP/at9NN11wtCrS9l/mG6+lIhoX6pPrhxTH0o8fQT9eQrsXczsOoDDmeEhwQU/WmoECudEa6xdqqFr8bz8EgEqfYvznNiu6kWj4eV7Jdfr1YaQ40uvHmm3LCzW1whD6V72yRmLqMD+7byXf3mUQ5HQazKkU83x3OstRvy4Nxg1EsAF8tq1rLikt483PXMzvo1Lsn6eMPHdU5AJ2D+ocf0JnTH7FK/VP69puveYP0wrlz9MnHH1P9snKfPC+qpWfSPXNdqxLMz/MIwizeCG3i9HNRhDx96bAZkDnNwlBZQxtuZ8CbY7M45IjOlWu3UEaawSEfDADgwnNpySp+KcoTVOBn2etqffO/QwJvYYFi2WNN4/mWioAKlQ6SKBV3TXlmm/5U0m+q6PvFVtQw6MATPkc7w4hnYxwcITkkWSZ/rU6dOjf5AvFaGOUU2xDABX06TrI1hcobR5LxBh13K4uI2yADLltRI6rXb0qMqm8n3z10Du/ac77beVFHG7zdKyFsFuaSZpSaZncMCAWpzLEw4NO7e3daungxvXhgP7134jjnzoUK/YP33uVLqNb37dlDdrPFJx+exqrLg265rr7ASGjC/eDUiH+Zl83XV2x9zRYoku/Z+sFLqXLeTWUhcMKBqBZ4h9zLKvOSSOWoetvXJlceDgrs7y+nMvZc0FgUhnZEb1Ds9S7VqOm6K68MC8TBj6/Ra2i11eTXDxv3EjfDatEz5GsR9ArmHILFv2HADty4OsgwGzCiWKWK+cDPSee8ingvccUOvV5/rU8QxyinFBOsj2IM4sLuCVeykYjkcjajlBG4oXAcy2vVK0a6b8fvg76b891t+lU9ePuiWNhxOK2gAWl0JlHhuajOoWbJycjkipb7772Xnt3xNJ18520O3AKof/LRh7Ru7Rpeyfsz9cdk4Hk/QPRhdgatZkf5SbJk6nDrLVR20z+p7o3/oLx//J0K2NfSf95Ijf51E7VkFSf+vtttt1Kv22+jvrVvp+FJd9BdKgUt1abQflaYfMpAWmjy+QJ1YQMAXQH7CUskpnzDsB7AZvIqe/2hDO1AcYKGZTgALqxxsjq0J8PKK1ulT39xJZnrtQgLxIWV22mok16Z7xfEi7qOcIahBKafOmg19EZW7Kc170mTMHKfLF9ay9+DIfxosSJ5dL1jZX4lKE72sMp7DKu8MyNRebvZxZqzi3m8VJWDN/juEfdwTwl4MDv47hgCtz8wb9SJ8+UarT4omLsDOr7aTGZq16o1jR4+nJY9uJj2PLuTjh05TLNnzPBZdcqdrnNnWTV9zgfVAZlbLgPrq0U24fytK9kCJ5z19xuoKwN5APsLrLLEBvGjs9I/5/W7UdVDutdKowl/5iBEnxXwqM9mSKea8Fo+ZhsRmpiRAPFOt91CB1hFm6uMPog7hoNAr0zxD+JdxIH4IF1qzDXi+P2gf+Xieyzj/IK4UiZrxW7IP8SAeFdW+cQiWxPV99FMG80w6nmFFrEjrTMmLatRe6oYMruKAXw+VbAjIue7Ow6pMr473AWO05BTQikuMy2ZSMWGwxwL5k7WNBPlZGbyr/6utW6pqXxAx7sC32tJI9Vf/xIREPJeV7B149VXk/H662nAHbfTo+wm+yg7s1J1DvA8nZvNG68w4QpHY+4dwCDGxAv/BpLI70Lg+t/OtFPSdddF5P1q/O+buANoI39aZ7bZmEqaRgzEHfRKLyroPobfO6FU4ni/Z6XpY64Rx6BPB/GDPhi5H+AfxJOU6ewf/SjmGAce7qUqtnLE79pmN1PbiORbeulYzRmO5qUbnVEVC3w3TIAwnONo+sQ/eHtKEns6mp+ZBQ4li0wcmHtzwf64XxiuDWEg9YMXCIHjbnvLzVEBcF/rWlbpp99wA81RyjmYe9uzYh3ITKcBOp2LYlFIAG85HzxRUn11Cg1irxcn3X6sSixVq3hjVxHge0PR0EcaxC03/B8dzXB48PsGIwWlFTaKKIi76JWOQz3UKwBxyIB5iEQQld1jcRCiDEtcnDZFgvifrNju5BfE5eyhSpZ/Kuaig+Pfjirs6gLAkbKD45o8guANq0x0stG8rJrq2+FnwvXdrIqIC747QvpyS/12ZMgsdIK5nMINZ8aSMRCHWdM5ryr8JbuFqyKqCsTdK/Set9/GNxFfwIgTwz4G5uPZcxZScAJ5tACcUcHj3+P7Ps7Lpu+dNs+vs8r2YIaVlrLrHmCuDHA/ruJpW3meTVu3DcYXnYKhnrQI0Sm1r7uW9lrTeIyhvw0nrW79qIA4FtQrxX2n8Hur4egFlNO8W9BCFJkB+2McDoHfHVBjX3ldUCUn5/kFcW1SUm12430gdtJpUxWJ5PFCkTCfEfbAjpd2VWug3BbdHd3uaAM457vn8ogqh59Jn2oM2sHBnFfmaq3kytwXiI/zAnGA1TZ2DA5XVRHq+tc113AqB9RKII05JiV3Z9i5zrw/q9AF+s8dfGHGdTQrg580LriB7mfse9vfejO1ueXftNtqpJ2sYAKQK/xQKlONRq7KeZ9937s5lxaew2d5Oc737dJzw++AbQb6CZF4T/7vqqtokzGVFpiMfjcbY3551EBcoFfqdh/N6RUEsSiTkwPSUJ3joKmJIhifrV3koA804gqFQuYXxE233nq9mIEfIfX+IXYhn6yCFwkdZ5H4kVRRKy09j4q6jaoSyoTz3axKQFcdMqnqXXWLlCUKGnMXzRJaZe4PxBdr1DEBcGHdq1by5yHWRREgDaCVe+nfn0630U9ePwffB58S/fV/478LX7eb9LyQMfkYCFE6vcFhQoUJU8SrCasuWwh9wHv4kNXMN4wvnacIyC9L/nljRN4PNJYXaVV0nzkAiOdFF8SFld1+IBlsgdN/gCV3phliOqkpKFPAMIiXF8qPaLXaG2oFeiBFWay8aZox+k0B6L+H6FMjA+DOpHns0mWsIo629hvhC0W9J4ThZ1IzKnNrAyfNotZKBnNfII4KeKo8OaYgPl0h81uJ+1qogicYDfz1CK/N4Jx8vuDDw+Q5i4n+cfXVHo3DlzOt1JNV7ooAvLrQGE1m13qyE8Twe6DgAn3QmgE6TganGYDjd21J01G9m26kG66+Kuz3ZKZSxjYKEx8GjEUl7nLmbNzZYebmB8QFPhxMwok4APH5UhJ9ZIrn5HL5XwKDuEw2Snw4RHS9eE84A4szlMqIyAcRsprbokcU6RNn+MLgWY7whbb9awDfHcnK3AnmULOIBHN/ID46qU5MQXyeSnwlDo4bXiywcHYHYBhG7fUhD8TPvUel8Ph9MJ3abEylB1nVpg7iWoijOSx2p6cZedgxGq7QtYNewbDSpwzAv3M+r1fZxrCJAXmfO27z2DRCWdMUyfRYACOsaHLi7tcahoq4tXKQVB+oaY7HwaBioD6Cj+nXley9viIgiKtlsl5iQRwdVXRWo7lL3Wcy+r1opZhXGdnxCiGrUQFvF989k4fAeocvJJZ3Zd6eDNnFomgWfyA+KoYgfsd119EBq7lSJe6eLvStMxkedgGIM8xRVm5MgpLcard5gDh3U2SAm+eDq57KQBLUos0Hf6p0bgpQtYAyQYPV/fl4Nzrx3F9kAG/5v//jHP/frrqKrgpTaz+FPT+IHWDv6qvoSitoWCUgjoG0YCzCUHa6j4dpcxTBXSXIC1XJ8qG1gj3YDVXMPoCfxNAp4KkPRXFkFVSKX1Md0fSJkmyFDaNmG8vDF/qB7x52efDdkVazZBUFrMz9gTimM2MB4FCnTJAleVTa55y+5Jgq3Z5uo0UWE/XV6ThPbQjgT457CNTGBa/Xtkijpmt9NG073nYLHWbVo6/+kNyZOwqf/wsiBn1QhQ+6o3ZE35uRyXewk4XVtxsfdOLFTaoExA3ZJUGplI1xQKUcd+b7lojv9/1HmZxcGhzEVaokMQqVaOssj0s3SvehPtFTdtPOPFQ10gDO9d29JzrDF3omwDvcylwYGvIB4qMN+kqNzbledEOVaMWvvIKK/3kjnchM588Hyg80JkFbAEDRRHQPZg42RYx/M5CB/fduAL4HYcd/8T3A1PbWm7kczddNDz09ouv80jpOfxg0UVGl36tW0Q1XXRXR96f/HbfTfgZK2T7oT8fEZvPog3izbpRqsvsFcUcegopthta4oFIw92JSiHZZ/UydlKQKCuIOhYrskFiwRDf6ZHzoJ72Gd9KpsPOwCA7uCHz3bCroOY7rUhN8dwTBnN3cpsJGlYKbAU6DvYZ9AEYPpWroyjCP/2IXwg8gxZuboqDX2M3/bd0c+igvm6cBtdFoeF4nKm4oDJQiJy0FEG/pTMkCyB62Wch2w//5fR4jWKX7PKt0M32AJH7WFKPBJSEUzL2gQIHS5Qj72U8Y9fRAiooPSf3tqsjLM3vXvo2P3uf4BfEWUQbxnrwgSEnRBmQQRrHrKV4S7h+xmihVpDJFLZO/K5fLbwsK4kW1iq5WyxSPx1qhgjcZjYdySSDu8D6x5JdRvb6TI1N9u+m787uOpIyIhC8kls+GVP22pPZKZQE49UpN5faqsdCJI7kGeu0HtCp6xKCltWw9YdLTsXQrp1AQwHwyJ4u7LO7MsNMis4n66FL55KXeSaUEmrbMZhvAmzmZ9Ar7eeCnA20kqwM4BeL3TDQaXMM+J7PSeXMU5l+6v/2N/n3NNfz9uiKK7xUq8RcYiGf5AnH2Oi1lraIL4uxnY6PAhhEoBOLhKpBGi63EZ7PrWILx1Xa/7oU+ePFJYpubXbQaPvsfjReJVJ5WGtHjqDy4IbN+G6oYOicCAO4IX4CHMTL/uJ9JAmyjKw1r0qWSNMxXqg9AHMZXf6kCEEe1j6oVvwsgCNtVyPFkf7mOZirk3CDrJ8HK1smRQ/kBCR+8vTGJidNkip+pTfz5WpuZ1rHNIdCmlPWPG+hwuoVXkQo/DeARTtoJAF504z+iCtj+OHF/TobcT5xVyaH5iUtoatatCBwtGQfWs+5NzW6pGinGV9NqiX2oFYpy9k0/i02LjmZzc7BOrLuXjNLrNXMEN4RJoXC+u0+C767y1awbaY22SiDeykk5nHPjjncyEP9bjCY2hQU1R+bfb6DVOi19npvNgfx8gZsCxPkV3Pk6m5VvRkYvukg4zT5rMdLt1/m2EUhiGwZOAU8zEM/0I7fF+9RPp6NzaIymqKscwAV1yna7hdK8B5J4so+Jb9LRvoYQA+ePD8d7NIDhydtxEmKDnl8jCT0/tUzRWzyIJyWpxIQmRzsZA0eeBSaDaB4cMsLyAD7DYlbpgGkJfXcMFwJ13W9Ch6Y3hXuKuIP4IVa9hhonFg3OvOG/bqJl2hR6I8PGx9m/cQZQ/OCUG2J9xv58KKuk5V7AggDvY6wQKr3pRp5riQYqFkbZ4Ye+ngE4uOYW7FSqCDi3kcp/38QYKXdmKGWc7tH4yti0ZEX/JNe0qyMb1g+Ig94CB30iTqgUWGlniZ6BkV1Uy+WFokFcU1vzb7VM/qbY8fslUWpu4mdukBBbhGnM/LZ9Q5/EZN9X3HdyAkxjyIt7NzcFo6LjbqEQPJQh007Jf7kuLkDcvTLHc8r5x9+p4qZ/UrtbbuYLwQvg1dEUHerlGy2EXryQYeURZ2v1WlqpS6FVOg1tTtPx7MotdjMHcGXQ4TsHiC9nm8mVV1S9cmdZqtr32H0IafchNTUbtndz0vTNGhyMEyoF2LbCklZ5w/O/jotqaro9rmAg/rBYXhzG6tHarXZL2K1geGPKLnJICkOlUobcWUPNqaqHSgXacbVa43HaM3nFswkOfKYIOfBVxTKy5wpOu7ePuQc0KtH7GWXQ0UIGgqhmV7IbfGaagbqmavjwTFBf8WQ5t7AFnYKEoqo+pcDFEEZdU/1MH6blV0S9qWkqalxJ3eQO4oPjiEoBiMPLXBHJcftK3uJy+XCxIN4sipObr2fZqb1GPPmfotJwQ/hQq3EM7ziyLBNUSkyam/C9SDV4HIlxEtvtNZ6O/MzCG/9RbUAc0sGXWLXdxc90nqAtF063KW5/phR5H2Io6junHe58tZKbW+mu/xtvxEabI4d+/iVW5bbxIUSIRL6mGBA35tbzO/2r5oNVxrhQpQhBEN2kTGrK5ffXkvpQy+XN2Df/JoYXhy70OXbsOx6lahwRbHIJGnFbcSMGyHNDrsaRa5kA8dgtnS2nEq+5wmL2APHv83PDTmmvypXx9xs4iLeVUJBITQVCfwpyzNlpabQt3UovsHtyv91MG4ypdKeKVep1alPRP//BG6VQ3FwTQZ09frbvQR8ZpWj0ZG3UKcpN8e6Uas70yYc7pJxKfqqPBz4cOAlap674Sc3flTJZS8kgzgMiZPKPxPLiK6KkvcSbvtYqnhdXOUOOS/tOCk1myL4HypQEmMaOF4dlqa8Isu+9phB73H5btQFxBDe/5GxORitYWekW64YmHsbzURmPY0UQKJqtDNB3p5vpGauR1hlSOYc9QZ7EPcvB4+O0oPzrX+if11zNx/7FVu+IsQN/v8SXpSqamtbsKMcNBubDHQqnFC5ZfidOmprb2WdhFj+p+YVCodBKBvE6der8Vay3uCCTitbkJtI30NxSSKjGMxu0DVErPp8bWTl8UBKgGgsQdwxsqDxuQnhif553SWaI5mbPagDiVzircIDcMQYiDUO0kVAkJbvCpvl7wv4bfxbsvhSGjTROmww0UZHniAYr3PNQfGH0ey+rUg+yyn23zUSPm9if61LoLla9w5lwMltDkmrzMGRY4kIxY2eAD59zBQP9drfeTEfZPdrRFz0Az5SiRtEf8iltTio/Qz4AyplGfVxU4QKIz0kzSPn8X0+9445/1QrlwXa1RWJ5cRwTo8WLgz/q5cdH2R+IGyyZVD5oZkhyQ86Lt0/w4rHlxY2uozFuQpgqwZ3vvFtE2+A6teMawCE9hCrlBbuJq09g5ib6ROkG3vhalF+X+vbqRQvm3kMPLLyXRg4dSvXrlZEGxU0QMPcXxKxwcu9oHBcwcG+cksJPCj3Y8xzLqvd5JiOtYhX8ZpuZW8xCJfMkW8+iosdigL+LLWRrLjGn8eq/EpVSRUM+xpxSv68blgibqyiFTCyedZISjCxTPFgr1Ad4GPZB/CHm4gDntC9KeXV481dKk+Pw0du67frz0NRQePH8LiOrReJ8zRz66U6pFk9+U8l9ei45/mGwBhOT8Qrgt157LU1XyvgRfj0DkDKnfYTSR1C0r/BoVNoA6IYVFXTvvHl05NBB+uC9d+njDz/g68P336PXX3mZli5eTBWl9QKGTYsFd3eAFxqqKc7GMhbA0MruK9zrkOtVsNcEO2oUcL5MrziVYs+tmuslzbfpFV4TnufhOPAOD9G5EE3NfiGDuCo52a6Wyb8Xm7kJ7jpavPhettvnSgiHgNzQnFvKR+dDoVQKe41PgGkMKRUECCAh3f20h5zK79xAHMM1V8QhgMv/+hd6SJfC5WzInIT/t78b1mwwuqppLABxmk5PzZs04RX3ay8f46D90an3OXC7L/wZ/u7oi4do+JAhZNCmiq7Kw+HdfYG+r/sSqpTom171IGujjpSi1fvVh49np4oTcSQtRMyeXvyJ7Bx7Xbkhg7harf47+yH7xfLi0TRaxw3RW4q3uNOKtqTn2BC48flUb1CCF483vTiCFd7MzuSUCkD8cWPswpL98d/pf7+BR56B/x7NwEMv9928AtiWlZTQ45s306rly2ne3XfT3bNn030L5tPWxx6jd958g05/cMoneHuv0x+8T++fPEEPLVtGJQUFrs0gmmAuxgaDUykMYKM+IFbchFWrvvlwNFpXxonhVWj6cNkrycnJ/6wVzkMtl88QC+Lw/oYfQLQolUVmoyRKBUCeUd4ypAYnTLQyW/dLAGoMzbC0erPHERmf/Sa71WE0xUB8n9UUdqRYJI2yGv77JnrBZqJD7OjeLVXr2nx8AXimzUZPMAAX6BH3JRa8K4P5KTq4bx/17tGDUtUpYVflAkXjomokbgygNDGAE+2mJrzo/VEpoH0OZMTHlKZg6tdBK0lmuoFdX1eFB+LJijZieXHwZZDORMuaFpx7rkSVit6cQeWDZkhucMJ+NqfjkERzM4aUClJ/vM2wYPL0Xb6jsfl6ho1PCsYawKG57lX7Nnopw0I70y3UMsCIPMDQpDfQ8gcfDAmoxQD5ibffopXLllLj+g1Iq1KLUrII94sSVTxboHgMRhOZLOnOZSedzkhqnCySkvi/EXUaNlqjanzF/VLY7/AF4rhe4BL4VpwAODAMfvDZ4mnhP5VyeY9a4T6cevEPxfJl80yGqB1d8GH0F+1qeMlPpaDDoBAanPN52HECUGPoo8KPyYpKPiNv5WTyShxhB/DKjiWA4yQwXp5Eb7EKCz4/RQEaVgBwvUZLC+65hzcpIw3g7lw5wByNz2WLF1P71m0oPzuH/+4UfzK85GTSa3WUV1ROLbr1p76z7qcRyzbT2NVPOtbD22no4nXUZeJdVK9VJ7Jn5fNKOziYK3ieanREAs4QCLXW75Tm/XE0pSkINMSGQIAPT5HLs8IGcbVafR37Yc+KlRpCnvRmlE1jtHJpR0Jr3QqnRW3CDKs6LUz5abSGSlXWKquFc+Kf5WZR1t9viBmAQyONsIg3GIADLDKUyoCnRFyL2ekZ9NzuXS6FiSRwZsD85eef0bkff6DzP/5IX3/5JX380YdBwfzd4+9wdQvom0ULF1KG1ebBmQOMG7TpQoPnraCpm5+jmdsP08ynjrJ1hGY+efjSwv+zP5++7RCNe2QHdWWAnlfWiFKUar4JBCqkjPnlUQpFbujTL8XBDCjo6SgxA1WTGax4kdXQN9aKxIP9sDFiK3EoSF6IEgclRLZJ8eAVJjhDSfpBFFvCDCu+pIaOIBJHIDCix3ylwlfFQkjDVpOeXmfX5ARnA1Mhsqjo3KEDvfbyy5LolE9Of0QXL1yg//3vfyQ88N+//forff/tt3Tm9Omg1fknDPCPHTlMuZlZpEhy6zWoNTRowSqaveMYzWAAPmP7i0GXA9SP0uRNe6nzuNlkSc8OWJVDqYIU+mhfH+6nNnDP8TKlCeyCzLFUQlKZpBAIEc3NQgbQP4n5xYg/eohVyyeiOO2Em0bq1Ftuyx6SKRXIExNmWDGWGrIb37tQQOjA/sx0bvRUUMUmWBhHb3nLv2mfzUQvsptyoC6Va6mVEq/HCWPH0ql3T4oCcFTtP128SIEev//2G/3w/Xd05uPTAYEcFXlORqZHJQ4QHzh/Ja+0xQC4x3JW6MOXbKDCRi0DqlWgNuKJ9xEbCutUySzN/TrBVGQ8USlrpNiHyOS/wb8qYiCuUqluYT/0NbGUyhB2YR+PIohvleY74GgmhWRRO5dyOw1LDP3EMnezog2pVSk+bB6M9B0D8eY3/6vKAPzma6/hI+ivM/DGqHqTlBTJ4C1cj8ZUHa19eBWnO4JV0OfP/egTuP/44w+6yMAdX11/9vvv9OP339OnPsDcH4hrwwFxoTJn3ztx/S6q36Enb376OxVDdhgRR8MA0kJ8JsCHx23muBq1nyip+JS9I9U/XIRKRX6XWKkhwo2jlWN33Blr1DJAyonv/E0tFfcYLZFSwdDPhASYxlJq2LQbpZrSK6X9VDjTfqbIk6sk7AH0yRq9ljfXF5uNAb18AJBqEeP05SWl9OKB/QGB/KsvPqf//fmnB3j/xqruHU89xcfwmzVuTAP79aPdu3bR7wzAXZU5++8fvvvOg2bhEsQX9lGm3e4B4voULQ279+GwQFygWCZvfo4adu7j19eb05vmDK4qibR6yf36gEfNy1nxM6WJ0PcGUkLfk+WbEFofURBXyeXNxVjT8uNZlAX2+Ln3mAwSqyAZZTVsLxnEE0M/8eBqWOZziOOJdBvtZdfZjVHUit/Cqu+hSbXpSLqZ24ciACUQ/w1eOD3NQl37j6Sihi0C8sQA0v69+/DGoy9+HDTKL7/8XKkCX/XQQ6RVqej2m2+m2rfcwr/qNRratGFDZZqFgfn334Ez/4iD+J5nd5I1zeQCcceEqIFGLV4XNogLQD5p016uYPE3cIRGZ7iTnL7mCNxBHIHSx+OoCn+CndxM4tmD/6qTFV1qRfohk8luR0SQ2Gp8eBSnN/GmINczR+IYvtGey4d4pA/99E2AaSwplfJWlSgVTtuxG/X9nAwefhBp8L7+qquo/F//5F7cqL5XWdN4JaX0w38DsLRQeVQ0ptHzV9JsBogjlm4iW2auX+UGvkeXoqGVy5b5rMa/+epLj0YmHp+dPUsFeXkcvJNuv921AOTwWfnxR9/Uy2+//cor851PP82pHHcQN5ttNPahJzgAhwviArUy5uFtlFm3pPJrZ79Po0sLb5LTD83m3pd7xBo/hlfSqRT5V8o6yrRaUXhcpZTJHhUL4tDLHopynl0/nVaSZhyUClJ/pFTj9UfcQzkdBieamzGlVBCAa65kiIUQhP2Zdp6yHikPlb9ffRWfvETO5WvsCIyEeVxnxiDVt91koR5Dx9P0jbtdFS2+9py2gLQard9pR9Aq9YqK6PDBA5WAHKoT78fePXs4MLoDOFad225jFbWO3nn77YAN0AP79/ONw30jSbdn0sS1T/EmZSRAXHjt/eeuIL3e6Pna2fvIVSphceLOKc0A2LM/TqY08RxA6zRPSZFEpej1+mujAeKY3mwrZnpTMMR6OMoqFYdwXiFpDD+rUXvJ0W0F3cckQDzGy5BZ6NPgCMG8Oy1Guvmaa8LivDH5CdtYBBVD943JuokGPZ+uUwSovjXs+qtfvymNuW+1o5L1AsLpWw9Q056DgzY6Rw4bxv1PXCD+3rv0+dlP6U8vPvzI4cOcSgFou4P4HbfeSukWC334wQcBQXzv7j18itN9A8rJLaAp63dFFsSfPEKjVj5OJmv6JVqFT3Dawp7gRJ8k0JRmX7bpvhOHhlfKqnAtDGpNW0eZwn7Jx2JVKgN1qVHd4VDpF6ukjeEbbTlUPni2tKGfPpMSQBrroIjS5nwopfJYtZbezLJTdgh6cVAmSLRBug1CfuGHD+XTSL2OU3WqANJBR/VtpR5DxtG0Dbv98skA9gnrdlJuaQO//Lgwir9l00aPahyDPGhiuj8uXLhAHdq25fSJN50yqH//Sv/e+7F92zaPqU08p7rsuU3bsi9iAO7YvA5Sw069PYCWuxqWNAuvCheoFDdzNI/TNluL4mhK87gzXlJCFf6pOjlZXyuKjyvZLrFWLKWCDLnnoniskfwG8SDlFGeQ8gKJST+9EmAa06CITh5BEZeOzmp6JyeTUypigPuvV15Jqr/+hXrXvo3WG1LpFVYIHGXgvYqd6tprNWRxJssH8j4BUJTVa0Cj71vjs/r2TS0sJ73O4LfZB1qlfevW9PYbr3s0Oc/54Lhfe/VValBe7gJv2R13UDv2vadOnaJgjw3r13s8B0VSEpU1bEHTn9gfYSplOencNdwub/Hu4Te688v9Yk5BnFEpUgtNtUz2NKbkowniUKl0E0upYN1rMkZVpbJWmjevI7qtfhtJhlgVw+6mrLYDEmAaY3taX5IyAOpjdis9x0D43z4oFVAlN7CKG/mRXW+/lZanptABVm1Dpoq0GjScStUqTv8FS5YHF52m1VHH3kNp6qM7Jak5MKrenH1fwEE5dQo3xhKqcfirYMzeu7mJxxeff05rVq+mqZMn06aNG+m7774jMY+HVqzwMMMCiDdo2zVyVTjb0KZsfp4P/lw6eUAfruUVdNj68GaQnGb4pVK6sI34zThqaKI4kDDg86cqWdGnVrQfEKAzIH9bbDWO0ddoxbYJ+sv6kkZZnSoVCYM/3NEQzc3E0E8cUCqqSjfuAJ2OPsvLprGyOnTHdddRHbasDLSR/TgvRUGPpem4wyA8vnekW2iyUc9tk9OczUqFyOsmOz2LBk1fQDMZIEvljwVaJae43C+tAnBtWF5BLx896qrGITP89ZdfKFKP+xcu5K6Grt/J/hu0RySVKd2nzGMnXrVnRBrbgKvC8OqBOKJSsAZIM+z7Qp2cbKhVBY8rVcnyZWK9VJBq8lSUTWjAYUqYhCJNSioVd5c2+FO32+hEczPmHuO+VSoA44etFno3J4OPwz9nS6MXGVij2t7LjtbLWTWEdBds9hanVlchclReKXMM7lQ0aEbjlmwIC+wAcH1mP0CpmtSA3txzZs3yoFSg847UY86s2T5AvFdEQBw/Y/wjOyi7sOzSRoXmb6oxMuEQPPGpwiPxyRtrnrZb4mJKMxQZNCuOH7Pb7ddUBYjDS6WC/dJfxAL5xCjGI+HnYrxWgpCeX1g5TbuI58UZ2Jf0mxr1mKnECl6JGXNLfV5jaezz76zV0gi2oQ/Wp1I7dgKEUVomu4lS3OLElBLH43VKFbVhleqUdTsjMgwz7YkDVNGuW8BqvCg/nw4fPOgCcvihuI/Wh/MA/SK7o45bYzOJW89GpBJnP6PVwDGeKiK5ktIKI5V23510liy/VEr7ODK8wmngrjRJA4n/ZQVDz1pV9eBeKnL5y2IpFQxJHIlSUKlAqTRMkUKpSPdSKR9yGTsaNusWV7Ft8N/wBeRyr6UIwZjK/RpJS9VTj2ETacbjL0RMfgfpHXy6LfasgBFqs2dMd3HjAPML585FBMSnTPIC8eRk6jB4HM0Kd+QeJlhLN/LwCHdJISwTwh6xd332bf1SKUrup6OPiyocmATqrqkUbbhM9o42Kal2rap8sCPNnWJviFSnZvxkFKvx6Ua9JKmhlh3x6vUTb08LDj2rbf/LLiINhv7Q5BpzSiN0M4a/9Bl1fWrGIxYGzIDNajRTv0l308zthyKqnxZoh3bDJ/n1F0E1XpCbRy88t5cDORqcX3x2tpJmPBIgDqqo54Q7adbTR8M7YWw9SA069PQ4YWCi0lyvZWSq8ACqFAB4ukLJ+x3xQqVAG26Qpg2/j8HqFVUK4mqZzMZ++Zdiq/EuUTzqCM6GVgmUipod8/Ja9xFPqYy4/BwNAeDCpof3y1IFyeXimlusGtfoogLkHMDTLDRoxsKINft8csePPkNZBaUBaZUpEye6KBWA+c//+U/YID554iQPENco1TRgzmLuDR5OFd73riWUqtV5UB36zIKI9ZEcRmh2v1RKK01K3FApWAMlNTRlF9kqrlXVD2fiz1axvDgaStui2ODEB9iGfZByCTerJa+e+MQfVrEX9hx3+fiVuI6ul47G9nrN4yZ31JhX7t8pLwwKxZZmZgB+b9QA3EPFMXluJRWHO4gjUu3Q/hdctMrXX37hU24o9oHvHTNylAvE8XoNDHhH3L82dL4fhlcb91B+eWOvZqaBrA078E03UlSKvwEfLCTIx0sVvltqQ1Mm36dUKv9RKxYPpUzWUaxmHNU4BnOi6TOOiCyNlBDlNJv4EGU+uTn5sgFxb+dAYdOrN3AGZbbpFxd+KqnmTMkJ7ME48AFT50YdwAXwQypO3YqmASc558yc6QJxLjf8NXS54X//+18a2K+/B4ibTNawzK8A/p3H30kpSpWnP0p+ReRObbgec+v5LRChTnoiTrzDTzgbmpKuv2T52FqxeqjvUNeRohkvVKl4Yn20GpyY1CqQMh0lMUS5bNAsyrgMbGl9JYgL+no0g0v7T4uDJm9PVul1dByxxdAq/LUoKunMBSBIZSDUY/hEmhlt8PaebLxnWSUawr0aLysu4ZFqAq3y3TffhAziGMnv1rmLS2LIQdxi50HIoYA4vmfcmqcoPbfQowpPTbNHNOGeUylpdr+2s2ggHosD73BhQlNKBBvDz1MpycnKWrF8qOXyu0UnzzsnOONGM57s8BgXa4hVMfxuymo3oMbrxQGODgWIzOO9MlgyqWLIbH4qKeo9gdJjzY+z3w/9sc6a7QBn3OS+llxJGr2JO9/hqzcYqNn/t8LUIvxDqqIKd28IPr6fSpu391uNw+fkgYULXdU4Qh7cwx+ECvvwiy/SA/fdR3Pvvpu2bN7sc4Lzp59+otYtWnqAuM2WQeMZEIdaibfsN7JSlqa5tFlEq3B4j+PnBjrhx0sVjsAQKUHumLnB7E1MQVyZpMxgN/u3YqvxCrZLHY6S3BBv4kabiR+vlGKP0Ol5oj3GHZObQ2p2c9OfVzMH8QwHiI+cz9+Lut1GxU36j6mkGQdzBAVguASe1VqDhfTs8zWVNGWVYWf2uirzqgDP4uJymrzmqSoHcKEaRzSaLlXvtxqvKK1Hrx57yVWN//jD9y5ghmLloZUryZiayj3GsZJr12YVd2f68ssvPUD8+++/5xOhwtg9XntufjFN2bhb+gQqe96D719LBqPZMyUoo26V2C0IJyhYBOOePxEHVfir7DTQVkJfjq0LrAguqhXrh1wu/4tSJtsidufBLrU4iqOxeCNbiH0jITXUGqi0r3ipYY2f3HRlFyp8gDgq8Ts9gqRzOw+Lm+eNzRVUkK1xZ36cB7i7/o59hQGT++mC0wkMPEfcvSQigzyhDwDtp/I2XfxW4xqlipYuWsQ5cYD42U8+4dU3HsdeeolMej23ovW2psXkp3sj9IsvvqCi/LouEIdvSr0Qza+mPv4ClTRv59nM1EaymSkYn3XmG7I/KqVeFGdQpA73rJcqK5QpdphuvfX6WvHwYCDekD2pn8Va1LbVaDjYRqsan2syBM04dJca5rfpK44XR3Oz7+Qa39REU8qn54wtp9KppZyBena7gfG9sQm+K15HctAobTr3pplbD8YMwF1V7X2rKwcoCPdMnSRq16o1vfPmm65q/LzT3XAVq8K9AVxwN2zTsiX94ua7Aq/xLPslf29MazYNYeQez7fXrPtJm+KmXhKamREEcMfn1sxnH0OoxCcY4iOGDeq47qlaKY6qv6tlsl614uXBqvEb2ZN6XqzcEK6DEMOfiBKI70m3UK5IiQ/XBdetECk1nM/VGektetVoEOepKV5gwh38Muuy6vtun+9JRhxH2MHGFtSKd6M2OyObJj30eExoFF/+2+Vtuvqsxh1SwFTasnGjoxp/71367NMzHJhXLl9Od3hFtQkg3rpFCw8Qf/ONN8hsMLpFs0mf1nRp3OuWejYzTRlRGQbTp+f7VSABRzbZYh/DBszZLNX6QyY/XuUTmiKGfwZi/l8sN45d642sOGhw+qAJAo/f31mzMzcB4hjy8QHi5txSHlfn633BCSUuPdebdXdOeFbybaZuA0ZVjZxQNDf+UEBuvHf3HjxUWRjFx/DPC/v2+U36mTFtmgedcvDAAY9othR2Cu0zdZ60QR/2frUeNM6DblOrNGQuaxnxQTA0rUHR+FIfRdvOQ8p6y+lWqKgussIAfipJapn8XbHVuJntWhts0avGN0hocPLszW6jRPHiNd6WloO470rcVtQwYBZpdvtBcUarwPWufqVEIFSiWRY7TVzxGPcyiQcQd/DM+6m0RXu/1bjFmEbPPPWkQ6niHMX/9ddfaeb06TwYAtU3FpqboFI+/+wzj8bmk9u2e6T6aNQpNHDeCtH9gJnO8GeTJd2zmcknM6PQmylq5HegS+5MtD8RB1X4k3Yzz3sVHdouk59WKpWaWvH4UMvlE8TuRPgQekapGsfODBvSZiniO8W5DHzE6sXrdq/BzU3XYEVlEM8ob+l3o8PmxkE8XjY3qGzKW1eWSjq54FbtutEs+ILHCYC7xtfnLPbkmr2q8bEjR7p48Y8YmP908SJdvHCBHl27ljp37MjBe87s2fTpp59WkhiuX7fOA3xTWVU+eMEq0SA+XfBHSY7WZKaXNtyc4VeVggbiOqspLqSFI/QSq3CHT0p8PhwZnLIPxFbj4JA2RbEav0dkg/NSlTlXVHOzqPfEmt3YZNWrL9opu0lnvxtdvIE41Cm+BkS4LI1VoKNm3x9TRUpA1UfTtnyj8QXidXNyXaP43sZYGOYBB+7PKGvdo4+6qnyuzDGaaczyzaJOI3ives+632MwCSectMKGkffT8SdzdaNSkMZ0ODO2MWxCFZ4pbcT+K1Vysr1WPD8YiM8VuyPhw+iBoNsovcE70y2UIeYN5iP4diofNDP4CD68xftPjf2gSwwkhjnNu1UTEK9sG+BOS+SlZ9HUtU/FRUPTH1iC6vAbeThvnptN7Sn6z08/iZrYXLFsuYdGPDu3gCavfzZ4RihSidi/yymu8GxmWjKjY1Ms9GUCFIDj4kCV8rZkoytudrWiyoIfQn0oFAoTe7KfS6nGo6VUecv5JivEpP1oUqmk13hRvHiNbm7yCbmWPmRdsoCUUzyBuLVR5VBl9+Ge9k1b0Z2QFcYhiDs8VfZQbmkDn9w4QLhpo0b01uuvOWgVnsP5uShjrJnTZ5Dc6ZvCNeKNWtL0Jw6IUqS0HTrBbWOX8T4S6KpouFpiMAtDW4GolFirUgTnVJtCShUu+1Ytl2fXqgaPq9Qy+RIp3HgnZw7n8SgI8BHNJXYMNreFOF4cQy7x18SLrIMhFAeePJ4ioJ4+bkAcJ4lC/w0xfqKwplP/8bNpOgPLeKRUuKnU2Fl+XwMClVetWOEa/hFjU4vhoEH9B7jMr3gsW4eeQdU5POxhyQYy2zI8+HRUytHT9Der1Ix2P70jselojFUpKBD767RSFSmri4qKrq4OII4GZ7aUahx6T6RCn4hCg/NFbkgT3BQLvLi9pIm4yU14i3ccWkMVKj15o8o7PQeDMoWdh1WDSrxnQG2xQKnA8KqiogkNmf0ATX/8hbgCcyGrMjO/2Gc1juGfLh060Ml33nblcAazqf3p4k+86enyTUEsW/cBQUD8ME3dss9TMYMpZ4OFT1JGSxKqs+X4/fxwH4+NsVeKYO8hKb9AJv+e4WJhrWr0uEIll98vhRuHqfvLUZriFEOp8GEWdvOL9VGp231MjVWoXAJxmUe4dEmvcdVCnaK354myqAUw6VO01KRlBxp5/1qase1Q3IA5nkfrQWP9xwvqDfTk1q2sGj8lqhr/6suvqKSg0MWJo+HfbcwMmhVAI47n0GPaAtK4+c2AZkPPJDrhIM7AjwARbPBK2RxjrxSwBgi5kcaFyzcig6E6gTiGf6zsiX8hJcJtiTnyDoegVFZbxVAq4MV1VNJzXPBqnAcnT4m4rCp+Jhw7c+mYyj0rUZdG9fpPrVEgLgAiwNxkSKMWnfvQGCTaA8xjrB9HhTxq5eOemZVe3PioYcNclTjWV1/4r8Y/++wzrmwRQBxDP0MCaMS5zezapz1PAwiOZlVy1D5jyFtzSoMa6MWSSgE+gTXQS/JIkf+gTFbWq1UNH1dBDymlGscHdCDCfuP4WS9I8BnPa9VLBC9es8fvodH18BOHesecQeWDZwccgooXTtyQWSg5LIIDJSwYTFZq22MQjV+xhQNZTCc62WbSqEs/vw1OJP8c3LfPpVQ5/eEH9PPPP/sE8XdPnqR0i9WxaTnDIMYECIOYzn53s95DPU5jiMRDvyRaEX2QhWoN5oBUysQYUilCKHtzSQHI/L1bWVSr1tXVEcRrpcjlFvYiPpZyM80w6iO+y0IK1DtVG/z4wy6ezPptRCpUZsdBMEL0ls6a5bqZONWUUZfqD7u7WoB4IP9psWCemZ5FHQeMoomrtzuALg5tavFcZ0yZ4gJxKFW+/upLn9X43j17SOuMgsP32e1ZNIFV2r5AHL93AKvS9bpLPitoskK2GbXTZ5CGpqBKWR/DAR/J6WGO9Y1aJsupVZ0farl8upRqPE+pomcjnFp90ulsKGboB2CFZPvLWqGC5mBmgQeIW/LLApqExZVOHH4paG6GGZgM3jgrM5c6DR3vAHNQD1UM5hj+KWzYwu/wj3fyjz9ufNmSpW4WtMlUVN6IpiEEwweNMnH9Lsqr18ArrccW0bQen4VDgIamEIb8aowSfIBHz7MTfYmE5DBn72FJUa2iq6s3iCclqdiLeV8KkA/Rp0Z0AAgfwLNiBn9wsepNVDZgmqhqPL/ryJqpUPHK2OQTrcWNAg5CxePEJufGuUxPFh6YQ5aYU0Bdhk2kiWuf4nx5VdEs2Dh6Tl9AGj/Ti/BCWbZ48aVq3I9SZfqUqZeyNRk4t+jW3+9raMdep9rd4CrSaT3+Gpo+LBLcK/FpxtiGIWPASCnt+jkT99OZEqY4R7EX9D+xkkN0oNdE+NiEHbypCC+VFLWGiruPEtXcLOw1vuZObRY1dumUufyyuHHA9yTuvFOc3L4xv9wBDmEGKgP4UtjX7Ox86jx0Ak14eBsH2KiDubMyzioo9Ss3bN28BR1/65LXuDc3jjH8EcOGeQQkdxo1jWY9fbSyr/nC1WRMs3il9RRE98QpYkITcr6n7LEJQxYGe9IlDfYgq0A+vVZNeWjq1LmDvajXpFTjrTWRDz8dItKoJqdpl+DNTQRE9JlUc6c2EaLg5CerK4gLVZ65rBWlmtIdm1K4YO6szLMYmHcaPI7Gr9rKw5WjqWYBuLYdMsGnSkXwGt+0bp1r+Afc+Ddu3Pj5c+eoeZOmLo24RqGivjMWelrQ8knRvVTUuKVnWk+UDK681VD+JjQFPGjJ8OCVKFMpx52AfdJtnXCa6UkMfMA6qZXJFLVq0kOdrOjMXth/xL4JqHruTjNE7EMTpjc1YoZ+ggDWJYXKzPj00I5Uc9ANxNPZcbp6grjj9SCwIK2gPml0JpfaItzKHJx5uj2T2vYZRmOWboqazhwbxKgVW8hszfAJ5ADnPj17urzGsQDov/zy8yVlitXmUqaYWaU9ZrmnDS9OFO2GTfJsLCKtp279KNIogldPUx5mHagSv4thwckogLYA1HBThfLkmXQLrWQ4Md9koDnsd2KwCBPlksKPea6CYnCtmvZAlpwqWb5dSjVeV6Wi3RFqcuJnbGdHInOQKSsAlimzIKASQ1hogGa26VczQbzskn8KbvyMilbVF8TdXhd8VcD3p2j1rmozvMrcKU0026hZx540avF67kcSaTCH5K9++x5+vcbTdHra9vjjdPrDU2668c85iB9+8UXSa7SuzaewXkOa9tjzHpX+sMXrPH3Co5jW47m684Brf58D7lX0snZEAAfcK23EqUF6DDtbRLwh4BgSZ/iCa5y/V+FsqMqlXxdHNbU1/65VEx8QvLMX+J1KvHk69dVFxnNc0Hg2TFEHPhZhrDjVSPVEhCfHZxBCFKxAufSydfUHca+pVIRfOJJjIgfmaUYTNWzTmQbfvZQDZaQULfg5gxY+HDD5Z1D//nTq3ZMuEEez87fffqV1jzxy6d+xqr2Rm2cKvk7asJvq1m/qsUFgahI0VFSrcN7QbB+woSl3Op2+FSZwv+O8/xEWMytNT+1ZdZ3DNgcM7QhgrXBijircJZefQn5mcnLyP2sijl+llCkWSwFxvMnLIuirAtOaYDsrjpR12w8IzovXWA8VwT9FW7Mqca/X6HidHXkIBp9QjQhn7pgA1WtSqbi8MfWZMo8mrX/W2QQNrzqHj0lhw+Z+q/EMq41273zGQ6kCv/Fhg4e4+HC8vo5DJ1w6KTgdCtVeZltRM7jyleca4P1EVbzIbJRMpZxwLkx3Ykx/mD6VV9pGN9COCGAHCEJWyRTPsc2pmOHelTWLG3dIDk9IneTcH4FJTnyoGCYS4y+e06yrKEfDmpryA9rBQTnIHJx4WYsaBuLuYO54vUhr5xOD4GfDBHP+viUl8QGbnPwiDpxjlz/mxpsfDqEaP0pdJ97l3+GPgfu40aN5WISQw/nay8eotKjIoRHH5K1WR0PvfdixqWCYaMEqTzUKmpm6NJ5vWRUy0GANTcyNvCDy3heqbnibPGYz0ySDnuoz7EhzArci+sDtMwRCKZcPr1279t9qFpDzUGXZH1Iq8iG68LXj+IDhQ2yUB+fFuaOhiJQfBATXXP8Uhyd3tW9sSmmAMmCBvBJOfRwswwZzBw+Nn2OzpFPjdt1o2L2raOrm57j5lBSJosPd8BlKz6nrtxq3Wyy0a8cOXo1j7d31LNlMZldT02rLoPFrnuIAPuHRZyinpMLjZ3GDq6JGUaZRnH2XEv8TmgKVggDit0Xc1/iKQm+BycCVLOh9xRC4vdevMARUq9V/rzEgDq6IvbBnpYC4MQJ2tYI1bdCpK8i2rNlUMeTOoCBeOmB6jUz5AZhp9CYXiNtLm9Z8EPcB5oh4ixiYC1RLqp5TLT3GzqQJq7Zdqs7FADr7N837DPOpUhGq8dHDh/NqHAqVBxYudFEl+N0lDZpx613kZTbtMajSdY8mY1TSenxZzgZoaGJBEbKC3fMnA1TdaFCCLkHOJYQQmqqhSkI5mf2hTpYvrFEVOXtRJUi6kEKrlLGjEUZfwwFyfOgY35UHm9xkR8qyAK59gsywbNAsSm/ZuwaaYHV1mRFdNpW4H2kirFe5IVgEOHN3ME9xShSbtu9Bg+5ZSlM27GLV+ZGAyhb83dBFj5Jen+bXTyXTZqc9O3dyEB8yYKCbh3gytRs8jmbvOEY9ZywkrcZ9CErGeyBoaFdFFc5DrNWagPd7PXa/v+iVoynIAvHnS81GaqfReFTdqvhev6qS5WOr/Ri+2+NKZbJ8jqSLn62hYY7k4yIYrg+ei6dhF3Rxj7FBFSo1VWbInQwNlksgXq/55QfiXpW5Mb+C88WRULN4A3oqA7TC4nLqMnwSjX5wA01/Yr/fZui0rQeoom03n5SKUI2PHTmKXn/lZWpQXu7yTNEqVTRg9gM0csUWsmfnV/r+KmlmCnbBbt48/kAc1bU7ZXLcSZnAB6kBA/hoV9143xBnh89Iw947WBwIf6bw896LCYdgG2aDmjbJeUSqWuWBMHzHsYtjB08RE9fWsmfQ5ibAK6fjkBoHXrwS11+qxDPKWl6+IO6hMxfULMaIgrk7d45hnLJGLanX+Nk0DkM5nG456qJbAO5973qQtClavxtDdnoGzb/7bjLp9a6NAsHIYxiAFzVu7QngvJlp4s3dKpGvlreqHP/ndZ+jusao+7s5DvDelW6hyUY9FatUfMgqmlW30D9AiMaQQYNo9apV9MyOHfTktu206P77qU/PXlSUX5f/m9DAXPGiQqG4teZox2WylmxnuiiFVoE3+K4Qxf8A8c02M98Mgk1uBqs+XUZYXWqeERbnxHUCJ14TJYZhSjAxNAQwR2UeIZrFszpPohT2c20YIurQg/pMnUeT1jxJM7Ye5J4nUx57nnJL6vutxsGD280WXj0KcWyN2nWjNoPGVpITRjetRzoXLozZI+kL9zmGcXKc5nXRBm9QTxk2G90z5y4688kZnk3q/fj999/pk48/oSWLF1P9emUu0Jfwu/5Uy+UjagyI6/X6a9mHc6+kY45zACCUODf8+70ZFsoO4mgIELcW1BcX1dZtdM0Dcfd0nxo47BMxmqVxJz6aDs6cT7hGEMzd6RYNA+PMjBxq1KI99Zsyl1foHYdPqgTIlQaQhCahUkVl9ZuSQW/0BJyqbGayzS+toIFrEjhQJQ5VyhgneEdbYYL3A+ZgiLwbPmQovfbaaz7B22di0tmztGDePLJbrJe0+OIanR9Abl1jgFzOHuxDekPKGw86ZDo7XoWakddSRHPTYBOnUCnqPbFm52yKCMu4LEHcRwM01ZLpnHSVRQHQkx0NUQboNpOFiksqSKMSF34BThd5ot4VI5qLaDJG2x8FX00lTZ35mcHfl1SnDDia4M35bQa8ZoOR+vfpQ88/9xz99ttvJPUBl0iEbpSVlEqiV5TJ8nE1aySf0yry81L4cRu7mENJ+kA1jp1eHixzU6un0t4TAlMqLplhr7g9+kdm7D4B4qLAir1+gCIad5GaAg1UoYf7czAxGZVrrkVP5+bWjb8faJo6eHBZTBUiAmWC/y4uKKSpkyfTsZdeol9++YXCfcBorH2btlKA/DVtUlLtGgPidrv9GvYBPyCVVqkIQXaIfzuJHdWC8Wswwy/qOiJoc7OcVesZrfvEHXij8sHNI9lKtJKLoYwyyhOcuNTKk0+BFjTgNrhqpcpFTcWF3A0eQXozp4N8gW+l1bynn2uoO//MAdZ8NelClvrt+MAQfMi5zt5PoEVVAzfAFZRJ9y5dacP69fTpmTO8io7k4+OPP6Z2rVtzjxox2nFVsqJrjarGuVpFLj8oVXbYJ1UryWsYzc0VImxpwTfmt+0fXKEy/G7Kajcg7sbvhbgrmDzBuc/WpLO4Y3MLxwYg2INetjrxiFEt3fimiMg4h+GWIvZgzjZoUyEmM3s5TxDd+GYP90p4yePvEKiBSt2QVcgBWZ9Rl78GJCbp7Ln8+tJZstgmZedyVCw0ern+WziBxPB1CnQJHB5bNmvOuetXX3mFLl68SNF8HH/nHapXVCy2It9Z40byGWCUShkCEvjxGRL4cVTi8A22KYLHtYkJTo5LAGPPBVXQpRtJwZtvuElFxbPllkryWL88QTxA5Vpp9XJZ4Tqqc3vQBl80q3Bw97xqLmvFQLqInxbQA+HPCZu30DAVrh8pK4abE0AbC9a7jes34MB96OAhunD+vM8A6Wg9nnrySR7WIUK18iMwr6Y5HWIIaKrDBUx8NW5lgLzaKm4sHxU7THVyRChUzKwSQShyUDfDTvHnZqiz5XreVOy/0VjiVXnTbv4pFmwA5gyPoGRbUaPqt5GFA8I+3hNUq2hgQrkDvThsVNE7gGUrKm33ZSppxsf2AdioaCFHBLVlyCzkFS0qWEfjuOqBDjQhqmt8xpzqcIGvLN4nHgNW3ADupo0a8TzRgwcO0DfffFOlwO3+AMc+2G1aNvCmKl/KcO+KGoXiWq32BpVc/phUfhzeCU/bg+vHBW9xOJwF81DRpdmofNDMgCHBcelm2MIh5+JHd6+GLaosyMo4V+4DsABQKRqd66bmmxkDoECbWcxBvEUQQHbnbQUgZq/fUtGWn06QLsMBF2DLKlOBNuDUgS2HAV4mO8nYOI+MQR+8P9gQAYLgu9E/cF8e1azwvsdJxep4jqr44efD4LmhuikpLKI7Z82m5/bupR9/+CHiPHeojxcPHSKzMS1oNc4KydPK/2/vO+CjqtL2QXf/u/t9++3uV1x3JZl778ykEDqhhxJ6ExBEBUERkCJFFBCxUAWUZq+IgA0VFEQEC4ICCkpRUJoUpXekhhKSnP95zr0Tp986k0zyPr/f+SUkYWbuvec85z1ved4kd0qJEx5XFKUyv8AdZon8ltSUEL2FcAPKaMg110szTCtfkTXT01AppmmG8IEXulTCZd+kVxLWosgR9pFdYX9NT+BmVrEaaz5gbMT7EBsS7xVqLfufHkDM7e4Qm07VVioZC0vY59PlJw4QMk4kcBf4/LaFRAz3AUhYuBCUyGQb1mWQuASYyANWNwYqUu/p148tXvQRO7B/f5FZ3NGAdMVBAwaIMn3d4h9J6l0iOwF5Xcot8BmZfdADy6eL7vZbdPziYypm6GaopPKF3qTXCANphmOKoZohOqfcVlh5GW6TAoHBPwriEy4Wfg2wQoP/HkfwhrcPjhjkNU/iUSxmjZiFpdzqNkHMlUDK3EoWwTWfdcyJGUqLsIqRvoZrCbGCiYhLxIDVDW32G1u3YS889xzbtnWrqJws7li6ZAkrn5Jq5BqXyLL85xLZCYgvtPHYqcz4x5F1Ap2FzToZKq8ayFDxiAyVftEzVIahafK44pkr7lOM83OPhCVzTtIgRYg8paRmhP4tOry36aJviUci6ULruYfqygA5a5YzTgOCoPnmIYiZbzopKeVVS9mbqp0KlMhWMpFxiba84TLp2L4Dm/fue+zkyZPF0uqOBPjlWzdvYSRT5Zg72V2zRFrjSUlJ/+OVlPfNph1CfxxtnbZEIXE0iCivo6EiMlRa36qbodJ80GOsZnGVpBX+8TZRO4rrijmhgpVb7C34dYp7wQc2Nt9oPRQkPkDzNatBvyrNOon3RUDPZz2nVaouimBSvP6WcxiCJmIu1cPnR4blPe/dd9lvp06xRMXUyVMMBTi9LvnxMiUVKZJU3iPLP5r1j9dyR67oxM8+zKwi1NJ0u/zopNclgiSt0EIpX8lWMAuEm9Wpl5AiaNrnEZZ951DWqPu9rF7HnkIsLIOTtM/XLIJ+Pr96MUtDo1H8rW/kdj8wdCjbt29fzEkWln1OTo7wrf/w/fds7Zo1bOVXX7FPP/mErftunfgMeVevWn59vJbBdMO16eXK/W+JJXKvorTgF3nELJE38ngEWW8Nk6GysmY1oYio6JB41fotRBph9BS7Yt75vkMPtbGBLQKVWBq3oitUrcnS0rg17fYWEjXuE1nRNJwg8MYNGrI3Zs9mO7dvYzkXnC/MOXv2LPv1l1+EvOwTkyaxB4YNE+Xy9evUZZUyKhSW43/2yafsyJEjlvRU/HHu3Dnx+gas8Rw0yylTkuFxyfeK7hgmifzGFC9bEaY034gQFnbPihDCuneirpphVvf7imeedEc1wJkSQX/abKFISbGmfRKiPl3ocMNXPBIyyvmNCH8T6TUtSJcmRMaI77qhCBg8fPdD73m0a92afc4tYPQHRbPnM6dPO0LcINL169az5599lnXu2InVrVlLBErxuVw3lGPJ/76B1atdh02aMJHt3rXL8aDp4xMnGlQ5VKaVaBJPSkr6i6avkm/WR94lLVVY3sFE3re8wTTDfqN0XSr17yxOuuK/BxWR6SE0nEuBH9VHyOHIxJ9IsIBxxK1WuQqrwxd0g7r1WIN6WXyoX2GNtWzWnLVr05Z16tCB3XpzZ3b7bV3YHbd3E9obvXrcxXrf1ZOPu1jPO3vwn93BunftKiyuWzp1Yh1ubMdat2gpOs039HvdLG7t1ahaTbgL0jQFwuDP6vuciUD0kKbI4uSHe4Xg453duokil4dGPMjGjh4tCm9GDBvOevD7A5KMqlzoTeEW+Cy2d89uQeC7d2xnJ08ct0yckJOFxf3Siy+yrrfeJnRTfHPDN1fwPdrZPTZ2HPt5x46Y5ZgjZxzPXPeZyvI6xAFLNJGn3pD6f2YDnT6L/E5O5Gtr/Z56iK+Dyuu3akvxpLDsHsNYGx0Sb8D/pkhJXMsCQTFLNSFCdKPIky7sQpPI5BxkHQeTHeRZK/JFUjuzBmvaKJvdfFNH1rf33WzkAyPY6EceZWMeHcWmPjGZzZwxg70/b76QDv127bfspx9/ZHv27GEHDx5khw4eUsehQ+IYffLECWEJwoqDzxRVeJcvXxbH61wMbq1h4N8Y+N3FixfZhQsX2NkzZ9ipk6fYsaNHxesdwuvzr/v37Wfbt23nVuE6tuyzz9k7c+eKbjFjR49hox5+ROhZd731VlHAUq1SZZGZ4b8xWbfkpcIuTQGur4BTlSKCzF69ALjfQPrc4o8+Yr/99pu4T7gHwVrc8DnjPqGKsjrfNKN99mefelL0BgWJo9nz4YMHLGWj7Ni+gz02brzYOH1k7f++uI/p/LMPHjCQfW9CP9wqMA8M6qnkcCJvVaakw+12p/JJud4KIYC0fWJZsMofNqRm6GGN7rhPN82wUe+RRWZ1+7qzZ9TIEr5vodtcKIMqJQRRB1vQ+B7kDAuqXq3aYkG2at6cW3vd2YPDH2DPPPUUe/P119nct95mHy9ezNZ99x3bxY/CR/mCgcjRVU4ciZSO5tOmvsg3DGwiP/INBn7bF559lo0fM4b15tZ/iyZNRaEL7omR9mCCsJF2m1qela9QhVWqWZ9Vb3wjq922C6t7U4/CUa9TT5bV+W6RTouRUaWGIZcZLPEFH3xg6NquXr0qfM2R3Ar4+YC+fYUvXFjifOz79RdTQUWkIM6c8aponxbOhePbAFs1b8HmvzdPbLpxea58k4Dv3ZhLRRpfpjTA43Jl8Qv+2SxZQCxrWEZ50fUe/fvQr9NrJFf8lr66JN6k3yhr+t02CRx54Go3dnex9lcHE7XPOgJRV61YSVjQ3bvezkYMHy4sZ1ioiz78UCjPoR0WLFksUlh7iUbOdjInjhw6KHzEIDc0P/5m1Uq2+MOF7KmpU1m3Ll0KW7CFa/ZdrWFLVu+mu1gTbmCg4rbVkMfFfG0TlCIaMIZPZzVbdDI0j/A833rzTcPXs3nzZnFaCmeN+4Ka67/9lu3Z+bMgcbhWcnONBRZxuoHLCxtLuM0N8w2nm0mPTWAH9h+I+7Oc+9ZbRk9QGz0ezz9LBZF7ZbkDkuTN+sfTZLUYCKX37xjMFa/d5jYdd4pW8NOpd9xTB31d6YsbWfssanF09aYI32PDrCzhL4bbACT99ptvCSt686ZN7Ci3PuGyKC0EbZTED+3fL1wLIDWQGwZIfd8ve9jSjz4qtMqDLfCKmfUEaQvjQ8vtN9JuEH/fsOvAQj15PRJ/+cWXDF8PrPGhQ+4La5HiGkCyny1dUhjYxLVezLmgW97+3jvvCt98uNf1FQwhnvHlii9j7jqJhE0//CD6nhrQUrnAuS27TClBWa+k3G2m0bKPyEHcaO8GwaxMxZl+m6I5xM3xag6h+t6FyJXeJhTGN+pE7ra/Ze07usIKgt+zbctWIsA1mlvUaCgLH/TOn39mh7k1febMGXG8JJgncf8BgvtuzTesUVb9MG4DF6tUI4uT+BOGiDvkVHn3SOGC0XPFYZN++MGRpq7pyxUrhOJgpDn39LRphX5xjNO/RS70wakMxgCC1MH3wBdDQcUk3G6Yd0UJuPiga26o8EeWx5UWEhcdgfgFj+UXfsUskaPj/ZCMdFEUpEfi6oJ4XLfgp/Yt/WNK3jVvvpvVvrW/aEJRp+sgVrF2I+YWbglX2OFbKLCqEKDFwkxLr8jSy1cKGGlpGeL3hb0cIywwf/W4mtWqC98jjrDjx45jr8+ezRYt/FD4ck+dOlVkFk9pIXGMLZs3sfZt2oYQg5izNRuIhiWmSRxz+d5JrGKNLF2rEe8LC9dMezMoDd7W+ZawZIaf9enZs9Avjus+cexoRAJ/9ulnRHDVXSib/HsQsyHf3KZNmSq61heXeMfwocOMCGJhrChxzSKiARfrkeWn+YXnmSXyFG3ouVPKV6zKmg8YF70xwn2xL/ipfes9rEm/0WJxQq8EvnpofaOqNHigGw/0ThC0atB1AMvuMZRbWA+JdMnm/UcLdUbfUCsw72f1OvLP3rS92LREh5YgAke6HAokoB6HDIAjhw+LzA1CLEl8X0QS377lJ9a5Y8ewJF65VkPLJI55XrPlzbonNFi6zRs3YcePmUsFnDXztbAbBK6jfZs2YnPCSQPXffTwoTCBwnw24+WXC3O9fSfBCunl2c3c2n3x+RdEq7TiZkh89OEiYQAZ4KejKbJctUxpgsvl+m9+9HuDX3xBTPoRcmtVT5I2XpracNlkczLG+xX6OiOMwACW3t9OL/SfwhJr0HVgwJEaCwX50kihI8TPejvISXx3BBIHyfW7+27HSRzzABu6EZ94/br1RIqmGUCFEFk2ob58SRTirP7yy0K/+P69oWSMtMA2LVuxrDp1xGkQAV5kK61ds1akOxZX/LLnF3F9hgKcLrlvmdIGRHTdkjQ/JiSelsGt1Yd1Sbxu10FxyRWH7C0qRJsPnmDN0jJgiTW/Z4xwtfisMZE90LCRsL4J8SPxA/v2hiVwDBDd2FGjwvrE7ZJ4ozuGCGkFvbgIgnVbt2wxdV2XL11iPbp3D+tSgXX95pw5hX7xX/jXy0HuGuTh79u7V2weiXQaxAbTrnUbY35xSZ4FJddSR+Tect4kt0v+zGkix2SGuyF602S0aRsSx4Kfu4R/HKmNeG/nSXwsS69Qxa9NmySClmgES4gPYIEe4JZoJBIH0b38/PMioOy0OwXPv7yBzCe4Bz5ZutT0tcEdEs4ixc+eCgpunj931lEXFe6rb8QzGwrZOQ8OH26IxNHxJ8XlcpcpjVAUJQ2BAUeJXOSK99EhcZTex79qE2mNDXoMF4FVvTZypoJbgyeyClVrByxiZAF89+23xK5xJPH9v0Yn8ffmvi1SOB0lcZws+XxCmqKvYCiaSwWaJGaB4qyKYUrRlSQXe3jEiEJ3iqqh8pslsoaFvnXLVlGQNGfWbDZ18mRRxTt44EA2oH9/8RWyAJMmTGAzXnlF5LwveP8Dtm7dOmHhoxjISb96fn6eKN4ymC9+CcJ/ZUorPEker0dSvnbSpVK7bVfdXPGGPUcUmZIh/PFNufX0ey/Maabyg8MFaivXyQ5YxMgEWLVyFbFrvEicW26oWoxG4gvmzw/pHiOyU2o1sEfi909mVeo21iVxpBkildQsThw/wdq2ahXiCoKVetvNndk2fuIrzFA5fswUeUPeAKmHt3XuLLKofAVAegJdvjRZqBlC+gBZNEMGDWavz54jsq6OHzsmrGmrgFwDCrUM6aioqYZjy5RmaH06v3GmgMUlsjb0e20+VKTCV2hMUee2ASzrjvtYo14Pit6fTfuPETnsIOVWPkndQnKPTvDIfAlexChXJsTv+L3vl+gkvnjhQlYxvXwAKagphvWt5Yn7zecazTvqkg1IcMjgwabFo0C2sIKloJQ7ECly39etXVOYoXLogLE+mpAsePP1N1jT7MZhNVP0RNP8lRihbuj7bMhrh1QtAqiw6A8fshYXyrlwgf2wYb2QTzCgo4Lg5qder/dPpZrIZVlO98jyKkdIXK85BP9d476jioGC4V0BLh0EQWt17ivIHYFXqC0KcudWe7OB40UmSjhyh+uoVpvbAtwpmOBPTptG7BpHEt/7y56ogc0vv1gmlBFDSNxAbUPkwrUJ4lRZtUkHrTVe9FxxVOFaKaaBCyNchgpK81d/9VWhSwXVqXoWMIKfEx97TLwGpGVDrO1yyQF6KvDlIyUR9w4ZLrgGqB1CjfLegYNEKu3rc+YIobJv164VZf0oWDvGrXHkqFvBmd9+Yzu2bhGbgTEdFflnj8eTXKa0w5PsqQiJR7skXq1By+gBRDRM7l8cGyYHkbtG8Pic8KejI1HdroOFXx0nicZ9HxXkDsu9boc7A0gciwFl07GS7CQEkXhu7u/SrGGGWrW5RsgZ+Ft2ouy+Rj0TJD5NazOokjc2fahiooG2Xvm9j3R37dxp+vo2btggdHMCNyCJVSpfnn20YAH7ZfdOwxoqUJx86403RIEPis9GPfJo4YC7BwT/5LTp7FW+cbz3zjuicw+ULLdv3y4sazSL8ClVxiq//PjRI2JjmjB2rDFLXJIvuyWpbRlCmTJel6uCnWDn78fTxw00TO5VbNu0Re78c1eAL79Gp7tFVWjVxu1C/ZWdKVc8Xsg1QOI//vC9kDkwT+LqqQt+c5zKcEIT5O3fZLv5zULFU299ILD6xbJlllLubgyTcge/9IvPPVeYoWJEQ6W4QxRuHdgvSPzD998PcYFFcancSwzun7Vi1bXCb3ZG5UzWYuBjkf3IiUziERQSK2e3DdBmAVEg4AO5V0IcSPzKlagk7qvaRCDQnwhVEs9SA5vDggLc909hLTXibtRrpAiI1+jYO+zzr9amq+iZqqehAjKCSp9ZQLwKDTWCSRz/DslQKcZFPMYyU9Scf2xIa1avEvLKRkjcLSnPE3v7W+TJyR6vJC22VPCTjg4/j0b2i5c0EsdxunmnAEussELvwEFi2DiR+K86JI7A3909ewYSIYyOKjWFawTuMcRqEAeBy6zu7YPFKet3xc3I2VTV293J0jKqGCq/h9CZFUwY/1hYEr/z9m7s521b/TRUjiX0s7xy+XLhyQKyAugYZbBl2xfoakbsHVjZmeyW5Y/MluhDS6RxzweiBDeLRo42lpZ4tdZd1AYTfhYXAkHbt20jho3HwgeJ745O4rDs7h0wMITEIVGMLk/Rgt5G3GzpVWvpkridWMmHCxaGaKLjWjq2a8+2/fRjIYkfO5LYlcLnz54NCEg/+tBDRv3iWxVFuZ6YOwiSJP3bI8uv82PiVcP9BA1UbTYf9JhI8ysZJK7qlYv2bn6LGP7P5V98QQwbFxK/HFC5GInEhwwaFIHEe9ieAxmZ9XRJ3E6Gyto1a1Rp2iDLvk2Llmzz9xu1BhHb2cF9+xI6oP7byZMBqaEvPvesUQNyr9vtdhFrhwG/MX93S8p0ozK2IHG9Nm3QMomfpng8Ap49WHqlzIBFDGt8zqxZxLBxPoIXDYn3Yhk16htyp0DhEt2XzAJiWJkhKZISq1urFvtm5Uq2Z5fa5QduJbiXEjOomc8OHzhQKGQGS3zp4sUhmTkRxj4icR0ZW7dLfpDfqDO6JM6PfJB0jUbiLe6dyGr6R/hLwChfvW5ImuHE8Y8RwxYTEgchPDB0aBgSrxLGnWI+LlKhbhNdEgcRoTISHePNAi33WnOrOzC7RhJVjahu9O/yk5OgWVFqltGegI1308YNrFWz5kZcKkTiesguU+YPmoytrjVer2PPqCSOwplaJYzEMzKzQkj80YcfJoaNAy4bJPEQJUP+vFLLVxYNtO2SuOgeZWBtQH3ws08/tURwfXr1EsU4ATEobjTNmjEj4PrPnjltmUSRA44BPRRoqvj+jZEb46baF86fL+wb6p9VdGunTkaCm0TihoKdsvyMIf2UNl2i6qdAhArFMyWHxLklVqthCInf06+fLQ0JgnMkjt9PmTQplMTTK4qYhu0MJQMFP3aEsICHRz4UUn4Pa/yZJ6cHXP9vp04Zej1Y7D9u3iwabU8YP5717tlTVGNiQA8Fuvhdb7218Ge97+rJP8NI9spLL7HPP/tMiLzt3rVLvI4T5I7MmnCNPQYPGEAk7ph/3CWPNlLwU0NHP0W0aLu1f8khcb6IK9ZvERLEatemLTt9+jSxbDFwp+D3zz31VEgv1ZTUDFatbTfbz79qy1uY15OiS+KqENajlq5z3JgxYUl8+uTJhddvJEPl3Llzohrzzm7dRdNlWPNCD0UTuYo4/Jp640QBtU40rQDBP/TgSNEMeuPGjaKq02w1J/4eQdlwz+3xxx4z4k6hwKah/HFJGmCExKtyQmt9/5QoJP5EiSPxyk3aM4/sDlhcdWrWZLt37yaWLSYk/urLLwel6UmiSAfFOjhN2ZkDRgt+QIKQdrVSso52auHUDB958MHfC344iaPLUaQMlb1797J7+vYT9wHiVT5VwnDKhcEkrvipGPr/P7wOdFhA8lUqVBTGy/D7h7KPFy9me/bsMXQahTUf7ErxPbeXwmjBh2kOsV2W5X8RS+u7U27T69FpRKO5JJJ4sCUGEkfJMASBCMWDxN96/XVhQQbXNVRrfZttEodfPdWvw1O0NEOrJzS4PcLlivfp2SvADRFNCGs/t3bRqHvuW28LXXCM116dyZ5+8kn22Ljx3KJ+kN1/7xDWv09f1uOOO4SV3bljJ3bTje1Y21atWavmLYS6YNNG2Sy7QUOhpIiMmwb16omBIrd6teuISkt0uLq9Sxf23DPP6gZzTx4/LlIkwz2312e9ZqDnprQ647qMvxJL61niitICYjN6JK6nR6GS+D0lyif+uyUmB+iKr161mli2mJD4B++9F6Ipjo0XG3CmzQpipCmmGejwIzJUqldnOyxkqKA3JlwY7iDFTFQ1bv1xc+G1qkJYuZbvJ6x4bAIookJAExpAcJFAwwVZMsc54R47epQdOXyEHT58WKRMHjp4kI9DgeOQOtAeLlpuPPTgIzX1EJvvnDkhm29oQxr5vTKlsU2bWaTIcm1+w846Q+L9S1R2SrW2t7MUv4bJvgHfI6F4pBh+vOjDkEYDkEuo0vzmuJG4nQwVKAnWqBaYKy50erjFu+G7bwvdEbjWSxcvJszzu3D+XFhXio/EZ8+cacASVyYSQxtTOczgN+yonqVRsXodkUZYagKbvuN0RuUQXXHoLROKB4l//slSEcgLIHHFLTJL7JI4Cr7SKlU3ROJ4/7ctCGEd5lZto/oNQnLF0RkeYlH+ROhkv81YA4HYcFkpPhJ//plnDDRMlgYSQxuAzOFxyfuNKRmOj6hkWPJSDDX9jCo1A0m8XBLrd3cfoXdNKHoS/2r5F6LYJqD6T1ZY5cbt7JM4Cr6Ceq1GTDNMcrEXnnvO9HXCjx7cBV4E0GvUFFWb/mqGpw2mGRZ5euilS1HFy3BN44Lz+0NHnkeWuxBDGyvBdyEfU4/E07lF2vyeMRHTDEtisY8ovQ7KFRfaFi1bsVMJsqBKMokLadNVq4TVGlzCXalRG0dI3EjpvR0hLBTgIH87mMRxuvh86dIAEj+0f7+QpT175gy3ys+J7I+LF3MKx6VLF8V9g+8c/m9ky+DzxLOrPXDqxAld9cm+vXrr5IlLJxRFqUIMbZzE9+pEiVlaWgZr2ufhiCReEsvuRa54VvMAnzhIvAG0Mg6SJG1MSVyoGOqTOPpRIpsi2KqrVL+lfRI3WHr/ezDyJpGvbQYIMiJbJJjQEKydN3du5HvAr31P0ADh4+8RBEV/0gN7fxWpiYcPHmBHDx8S3XWOHztaOJA9AnEqbAznzp4Rfmw0oIDvXd0MrogTZ+EI2hjCbQ74u2gNrjGg0NipfXs9El8vy/I/iKGNuVP+hXxMfTnatKhytGhvVaIEsHyl1w1ahtXK2LF9OzFtrEl8j74U7ffr17HmjZuEkDgKtZwg8UoNWhkqvfc1OUZmhxEUcCIEWR7hf9+5Y8ewHX6QS623kekObvXuijKC72fwZoA+p76BNMf9fGNAgwecCvw3B1RmnjpxnB05dEj3mX33zTesUf360d0psrwoMzPzj8TQxkj8H0b6cEZXMpwmelPWKEFStIUFP2jTFlSUIFpyfb6MmDaGyDVI4uFatDlJ4uGef6TAZt1atdmvv/4ambi55YrN6fRvpwQBgiyRRtgxjFWK65kwbpx9Eo/JMLYpRApqzn3zDbGGdFqzjSB2Nk7if+Y3bbkhJcMuAyKTuOjs07vEkXi40mssMGhNEGJI4jo9Nn0DJIiilWASrJjlDIlXaWZMP8VXCIYGxCE503l5wocNq9W3MfkID2JQXYJ84j73zLD77ouYppeoAxvX+NGj9YKaF90uV1NiZ4PAkQVHF90jI7dGsjrfHZ7ES1yPTf9c8W4sNS0jwC+OINZYPhEJscNVgyQO/yo64QTL0cKX7QyJdzRE4j4XyPx58wqtbpwmkFEC/RBBxmEsVbRhu7Nbt7AkPmTgoBJF4rgWNLto16aNnitlp6IoErGzcVzDb9w7+pOUHxdv6hGRxNF8tiSSuCj4qFgtRM1w+NBhcY/6lyoSv3pV+GGtkjiyiuyW3ask3omTuMcQieMzTHniCeHrhp/YyCa0c/s21rtHj7Akfk/fviXOCv9g3nshxVkRGiSXJWo2jrIelzzHkBxt264RSbxJv9GOpHQlQnMILLDbOncWpcuE2JH4PhskXr56vZi506KR+P333qv6sQ34h31ulX697w5L4l1vuUW4W0oKiePUAf105NRHyw93S1I3omXzIlivGPH51Wx5c/jsFP6z7LsfKpEEruYKZ4XkimfVqcP2RgliEewB2ht6qWo+n/ItwQ0GUNdQpaa5xsgm9HOikTjyn3cZJHDfgMUdLrCJ7jfoglMSXCqwwhctWBBSXRtm/EyuFCskLknPGZGjzYyiKd7gruEOLJriGdysUKdJSK9NUjOMMYnn5Yl0NiPWXY9u3UNbtFWs5kizZNEwO62C4Vzxju3asS2bN5kiuAH9+oWQuDtZYvVq1w4pvbfih/alDfpSB40M/K2Tm8eOrVuEMqNuIwiXPAcuXmJl0/op8lOGSLzxjRFIfAqr121IiSXxyo3ahk0z/HLFl8S2MSTxAwZIXFiyffqEkDgkZG23aBMxkTtFz05DpfdompyVxb5b840pAhzYr38oifP3QzPhZZ98ItxKPhKORMY+0oWPHacTuJmQuQNL/ttvvmZfLlvGPl60iM1/9132xqxZ7JUXXxT6Jc9Mn86enj5NNNd45YUX2Jtz5nCL+QMhZ/DDhvXidXypgf7Vo2at8FmvvioMHx0r/LI3WWlPjGzNEp9ih8Rb3T+F1e06qMSSeNUWN4s8+eBFNmvma8S2MQKqAlFUYsTSHH7f/UEkKLGUNAe6+/j0cyrXMCyCBXcBiNcM4Q0I407xGQrTnniCfbrkY/bZ0iVi4HuQ8cL357N33nqTzXz5ZUHC40aPZkPvvZf17nEXu6VjJ3EiQOplq2bNWP06dVmNqtVYpYwMUQkK9UBfQwZ8Zt/Az6DGCLKtVT2TtWzajHVq30G0Unttxgy2+qsvBamb2aBwH1auWM4aN2hooJOP8nXqDan/R4xsicSVibZI/L7JrM5tA/ikL4Ek7vOLetNCtDJGjhhBGSoxJHGUjOsFCMM2Sw7o7uN8YDvayEhN4wT7viHJAPwNvvbrHVlHBKSLzjpVK1USGwSsc5Ax3ifd6xUNJUDAvo48IZ17tG49PqI2cg2+v/V1BkKXH9EsvVYtNuiee4RVb4TIfZ3te95xh5FWbPkeWe5HbGxVP8Ulj7FD4i0GQzelT4kNbIbTFccEv+P220VDX4LzwOaI0m69ICGIcPqUyUEE5VyLNhHYzswyTOIg3Q/mzYtI4j63x8Z13wmyf3TkSNExJ2rKnZ+1bIaMzYzgjQDfY6OonZkpuv4M6n8Pm/Hii2zJRx+JKlkjBI7YwNB7h+i2YdNasW1KS06+gdjYKonL8kgjJF49u22oFC3SC/uPLpE54gF+0YwqIWmGHflR06zgEcF5Ep/x0oshRJGSkuYciRtUMsSAq+KN2bMLSdxncftK7Bd/uJCNefRR1qJpU+G28FnJTpOyUcLG93ChIHcbeibdu3RlQwYNYpPGj2fz3nlHuFCgT4PnYDTgib+BBX7f4MHifhi4vny+8Q4jJrZH4vcZapac1UxtlhxgjU9jDXuOKLEEXnikrlYnJEOlTs1abPeuXcS4RUzi7779VogWh1Mt2tTspMaGSRzz4qlp0wSRIcCIoCIChVOfeIJ1vqkjq1apUoCLI57ErVrYasC0dYsW7E5+kpzIyfqdN98UHZIQkEUWibrx7DSdpeLLglmx7HPWo3t3sbEau0ZpPVnh9kn8HiMTAX5hpBk2vmt4AJln3XF/yQxq6ixkEMeyzz8nxi1iEl8wf15on03FI6otHVEyrN/SFFkiIIiills73cwaZWWJHpq+01u8rW6fLxqBTRDrxHHjRGAU5e9Iz/RluthJKfSdNn7a9AN75cUXWHZQpyKdkeNxKXcSC8eJxAvTt1LLs+qNWrPsHsNEM4g6XQaWbEscuuL1W4RdIOj6TShqEp8v/LfBWj+OdPcxoWToPy/8fcvxJm5//3z7tm3Z9MmT2ReffSqs7F9277SdA+4vVyukZdesYTNfeVlkxcCwMUHg8IXPgggfsbDd7BSX0sfcBJFUMk9JZ1UbtGTVWt2qWuIl1S8Oa6xRG6RAhWSojHrkEWLcIiRxkMnSjz5ilTMqhHb3adDKERIPl2Ja3AfuRevmLUQqIsg7IKfcj8gjjXC56L4KWVjxyz79RMQiHh4xgjXNzha+bzPkrQld/agoShoxsBPFPrLcgd/UXEsTBvmlnlRWPrMen+ydC9PySkOuuOi32aePkE0lOE/ihw8cMETiCL7VzqwRkqFSsW5TBwwLpJh2EYHSGBPvJT4OuyX5B7dLXsm//5KPJXzM5dfyKqqq+e+e5IbENPWr9KymeXQyovtTcYv7cnOHm9gD9w8V1vKCefNEcBXFPPDXI0sGRT0YCGCu/3ataHn3xWefiTJ5nHKg//3U1KkiUAkXUZsWLVlmlarC5+3z71u43sP8GloT+zqEFFmuGm0yGCXzFG+qUI+rCsu8hJF5uDRDTF74P48fP06sGwMSP3LooC6J+9L1mmU3DiQTKBnWbOjIHKzerjtLTa9oOLhpYFzh4wgn4U/dkvICJ+YHuFXaClZpUlLS//DxF4yMjIz/p1OCfi3/f08bCWhigNThYkEmCrpTNahbjzVtlM3ncFMxj9EhKbtBA9GzFCRdIT1d/D2yV/xfxwEX0RmvJPUm5nUQ6eXK/S+/sRudmaBqjm6F2o1YtdZdSnSaoa80evOmzcS6McDRw4cNiUmhihD+2BAlw2p1nJMjrlDVLonD0t4I0kZpeYoklQdR2127aZKk8NfdYNbV4kszDDdimY8OY9Ety/2zy2T/gZjXWRiTozXjM8dxjluuEI8S5c+J7i/vEKor7gserebHT4LzgCa3UUXAcPop6ZUyxXNzovQ+rVJ1qyR+0ivJr8FlCWOpTAzEnfhrt0R3+ATw1W9xu9w34gRBlBub0vtB/CYXOPvQ1Emfml5JpGlVvzGxyTxc+TWslTfmzCHGjQFOHD9miMThUkEXnBAlQ249W1IyxBzV5ilOYMg3D7eB61ne3OqemSLLtTW3SCxxjdslP6i5aYojeR/hG9mLsiynE9PGMriZnOzhN3tPTB6imPwKS8uozCo1bC0WRsKROdIM6zUN8In7MlRGDBtOGioxwKkTJ0RTXiMiSw8OG2aexH1kXUjYPYT0bJXmnfizbiaC9XgN0RTCRIqhZsAcwJqK1/q94YYb/oOvsQma26aoSTuPj7P8Hqz2StLDHpcrk6zveLlUJGlYTHdzkLnsFkdT5N6KBZYoZB4hXxjE0a1LV9JQiQHQn9KIKwXpb6iIDPDhgsS50VBoMIh51qvQNQYXH7KpqjS9iVVq0FJ0AoK1nZpe4fcsJJdkxw9+0JPk8cZzAVe+/vr/5Gu4Iz8BTFeDpvK32Ewg8Rpb0pauiuuV5DXIpnFLUi+cQLjl/Q+i1ThDnQTKtJgfy5CWqLiFxGflJh0SI8dctOq6NaRVFwJBrVu0ZCdPniTWdRhnTp82TOJzZs4UucoBAfbUDJWouWWNnHFkTsG6Tq+cKZpfC7KW3YGE7Vwwb5uiKNcXlUHm9Xr/xMff3EnuFKTyoRZEldcQ6/sDPr7hY4fIkpHkM+gwrzPO8XGMv9Yujazf4d+PR6EgJ+1OcJVkXJfxVwpYFhMi1/xrx2J+7AKZ84VUvlpttUS6WJO5f6uu0AyVH77/nljXYZw7e9YwiS/64IPQpgP81ASpiMJGxwFEHdsqSq+kvJ+ZmfnH4rjGQbRpaWn/JUnSv0G+7mR3zRRFaeiV5UYRhyTV9bpcFVKTksphcyD3SPHHtR6XK8sjy+9pO3CcyLyOON6KjIJiSOaiVVd6+FZdb7/1FrGuw7hw/ryh8nD4xL/8YpnQBymqEvcQ9wK3fIlGCEUOBEu8itICVkVcUpj8LfPmnYofmUfo8oLg5vgxY4l1HcbFnBzDzQegwNewXpbV6kGH57H8ocvl+m9iEEKxAVKkcJyCDwx6B5qPLPZkXpWTedMOxSibpZfwq4Yj8cEDBoq+kATncOnSJUNtzkDi0PNAOXgRkzgCiO+43W4XsQah2GawIFgjtFZkeZ4WkS6IbQDUI4o2RDYLGt8WJZkjzTCreYg/FcTRqnkLduLECWJeB3Hl8mXdNme+gYYL6Cup2009NgNGzRp+Yr0bvmaiCUJCAEEbBDrcLnkI8kH5OB/z1MQKVYUkbGHvxHgTOtQMG7YOW8aM4OamTZuIeR0EhMX27tltiMRRet+xXft4kji3uqWf+JiKKkRKpyMkNDCBIeDDJ/ZCLV2JxbJoSJTz126kqibGM6OFv0+VZh1/z3YIahDx5fIVxLwO4ipI/Jc9hkgcEqkh+ikGW5SZbSTsyz7RUgivIQYglCQy/zO3TBqrOiyxDIRKhS240qvU5NZxG6EyGHvrPHyaoc+l8vyzzxHzOk3ie4yR+M7t20RX9Ugk7k/acAFWr1yloGmjRvn39OmTP2XSpIJnpk8XBUMN6tbLN+ZXVwbRiieU6EAot1JqcTJ/OeZZLcLVolrnaGgrfOc3dler82JA6KqaYeWwwc1+d/dhV69eJfZ1isT5vdxn0BLfvfNnNvieASEkDs1rdP2B9GqHtjcWDL7nnoKnpk3NX/bppwUb131X4GsArLUoK+jTq1euAWs+h8/rJrTSCSUeKCpQkpUGEAKKfYqi9LvvnJNsRs0GIudciG4FiRrFQs0QC//mm25i58+fJ/Z1CMj22b/3V0MkjiwWdJnxJ2BY3/Vq1b4y9403rn75xReiB6R/9/ng9EX8bNzo0bkGLPGjXpcrg1Y4oVRZ5l5ZruOR5VdsN58wap1rmS2paRVEqTUCkqJZhZAmDdLSMKtmWC28mmGdGjXZrp07iX0dQn5+Pju4fx/bbUDJEMSMzu3+BCyadjRrdmXL5k1X0ZJML+ccr/H6rNfyUt0evYyrffykKdHKJpRKyxwlvNxqfiMuZB4kYoTOQyjWQceXytk3iqYVquslVNEuapph3aZhy7ZT3G728eLFxL4OQbRoO3jQkBwtCPipadMCgpMg8Rtbtbq6ZdOmfCNFQ3iNhe+/X5CRmqZL4pQLTij1ljnK+oVYviSfim81nfS7H92bJtpuodwf0qMIkFZpfrMaJPVvJuBP8B17s8pN2v8unBQU3Jw5Ywaxr4M4duSwYRJ/5cUXhA/c38XVvk3b/K0/bs436pL5avkXeTWrVc/TyVQhEicQfJY5slm8kvJW3CzziJa6lvHi9gr1u/RK1UUTiIwaWaxC7WwhV1q5cXtB8pWz24btfg7SGHbf/cINQHAGRhtDgMTfmD07QMkQz6ND2xtB4gVGSBzW+pbNm/I73HjjVZ3gJrlTCAR/CNlMtax/hiaNWVDEAkaBinc+q4xbefCzqxKmSlhLvEXTZuzY0aPEvg7ht1MnDSsZzn/3XdEuL9ASb3PVqCXuI/IRw4bl6ZD4MRS60colEMJY5tzCqeKW5Cf5Qjlc9GRubuAIXimjAtu4YSOxr0Mwoym+YP78ABLHptq2VatcBDaNkjhe5+np0wt03Ck5iO3QiiUQIgAl/e4kdyWPpEzUhOvzEoXIcZxf8vHHxL4O4awpEp8XQuItmza79OMP3+caCWz6Xue9uW9f5a+TH+U553tdSndaqQSCPsrKHG5Z7u+RpPXFpH9g1IFj+PixJEvrGImfOWOLxJs2apSzaeOGy0ZJXJO1zW9YLysver64NJ6WJ4FgAqk3pP6fW5JuRg8/FFvAGiquJN696+3Uc9MhGG0M4XOnoDrTn8QbZmVd+H7dOsMkrolpFXRq3yE/ml8c2inUioxAsOhqURSlssclj3BL8g98XChOJA7iaN6kKTtKwU1HcOniRUOa4iDxjxYsCGjRhq9ZtWtfWrd2Ta4ZEuej4L7Bg6NnqMjyKjRNoRVJINhwtcA6h3qiW1Ke5wtrc3Fwt4A4KqSls1UrVxIDO4ArV65wgt5tKMf7k48XsyoVKgaQeN2atfLWfr063wyJY0OY+coreSmKuyAKie/0eDzJtAwJBOd85//yynJLtZu38rWm1VJQVNb467PnEAM7oZ8CEaxfYOOvtAAAK5BJREFUfzFE4l989inLrFIlmMTZmtWrmFkSX/zhwgJu1UfLUrmI+UZLj0CIAaFnXJfxV4/LlQmXC0r8vZK8iS+6s3zkxssv/vDIkaJsnOCAfso+ff0UkPjKFctZreqZtkkcf7tu7Zr8RvUbRJWl9UrSAFpuBELscY3X670uRZZr8yPwTZzUH+NfF8GnqXZmkY9p7bX0AqUF2iZwxYgl3rpFS3b8+HFiYQf0Uw7t369btQniBVnXrVUrmMQL+M8LTPrEoU9e0KtHj6jBTbjxaHkRCEUABEcRlPJ4PP/0JHsqul2upm5J6uZxKYM9kvKomp8uTeHH5SdEc2hJeQD9E/nftOH/foSPq3p+8coZFdj3G6noxxESP2CMxIM73uM51KxWPfebVSsvmSVxWPYjhw/Pj165Ka2nrvYEQoIBmhkiqKVjjacobrZwwQJiYQdw9PAhQyS+cd13rGmj7AASr1Kh4sUVyz4/ayTDJdgvPufVV6/qyNIecie5U2hVEAgJBKGNLkmLjfjFH3qQ/OJO4KQBESyQ+KaNG1irZs0DNMUzUtMuLV28+JxZEsffr1qxIq9W9cxoioa5qF2gVUEgJBjQX1Ev8wUkftvNnVlOTg6xsF39lN9+MxSMROeedq1bB3T3SfN4cxfMn3cWlrUZEtcUDQvatW5ToONSmUorgkBIMEDBTqsajeoXr1urNtu1axexsE2cP3fOaKUl69S+QwCJe2Ul9805s0+aJXGMn7dtLejRrVt0RUOX/CFOZ7QqCIQEgtvt/ruai67vF1+08ENi4ThVbW7f8hPr0vmW4D6bV19+/vlTVkgc7/nY2LFXlWRXtFPXPk+Sx0urgkBINCJ3yaON+MWffvJJYmGbyL1yhe3ds9uI5czu7NYtgMQ5AedPffzxE5zEC8ySOIh/7ptv5Kd5vNFIPM8jy7fRiiAQEs2lkqy05wv4sh6Jd+vSlfziNnE1N5eT+B5d0kXw8+6ePQNInH9fMOqhh45aJfFFCxbkV0hLjxr/cMvySFoRBEKCAWX+WrFQ1KKf+nXqsv379xMTx6H0HmNgv34hJD7svvuQnVJgxZ3y9cqv8mrXqHE1apMIWV5EfnECIcGQnZ39B7ckzddzqUAadcXy5cTEdgp+8vMNV20OGTgwmMTZkEGDTFdsFmaobNqU3651m6tRtcVleWdacvINtCoIhETzi0tSL71yfZDI2NFjiIltwkjXe5XEB4WQ+L0DB+ZbIXHNRVPQt3dvnZ6b0gm0FaQVQSAkGoknu2vyRXxaj8S73HILu3jxIjGxDZw6ecKQ5RyOxPv36XOO/y7PComL1xwU+Jrh2rV5XMqdtCIIhARDWlraf/EFvFwvX7we8sV37iQmtlPwY6DXZiQS796163FuUedaIXFNQ+WKDokzSCDTiiAQEhBeWX5Izy/ulRW28IMPiIlt4JyBXpsg8aH3Dgkh8Y7t2p3asXXLFSskjgyV6VOmILAZPUNFUmbSaiAQEhAeSWqtSdlGdak8MWkSMbENXMzJ0dUEh9X8yMiRwXnirEWTpqe3bN6UY5XEX5sx4xLfiHWkipUvkpKS/kIrgkBINEvc671OazoRlcQ7tu8gOrcTrEG0adMp+AHhThw/LkAAC99n1a175vv163KsBDfxmvPffScv3ZsS1RLnc2C7JEn/phVBICQervVKylt6fvHamTXIL24nVzwvjx3Y+6su4T41dSrzz+nG97WqZ+as/Xr1BSskDut+8cKFuRXS0vJ03GbHvC5XBi0HAiEB4Zak20X5tY6Oyrtz5xIbW80VN9DhByT+8gsviBhEQIOOChUsaYr7NWC+VLF8+dyoBT+SfM4rSXVpNRAICQjkCPNFfDwaiUvlktjAe+5heVfziJEtkviRQwd1SfzNObMhPxtccHX540WLzlkl8c+WLrlUqXyGHolf8khSY1oNBEICAgEtvUYR8M22admKnTx5khjZIk6eOB61YTJIfMH8eaJK1v/ep7o9V9+bO/esFSVD/B+DJH6RSJxASGBwEh+q5xevkJbOVq1cSWxsNc3w7BkDro+P0ZKNBRKudHXWjBmnzZA4Xov/ff6ObVtz5rw282R6Skqujk/8LJpx00ogEBIUKYrSEAtZzxp/5aWXiI1jlGYI4l25fDmaIwcHN/Off+bpS9FIHK+rEXfBrh3b4UM/NPWJxw/e1K7dvioVKuTodXLiG8UBb3Kyh1YCgZCgkGX5H16X/J1eqmGvHnexS5cuESNbwGV+36L5tUHEa1avYnVr1grJUHl6+nShSY6/8SNsQdr8+8s/bfrh/JfLlx2fPnnyr927dj1aOaPCCb7p5mHj1XGj+MY3Xq/3b7QSCITERVm3pDyvZ4ln1anL9u3dR4xsAVd1JGmjkfgTEyac3/bTj8e/X7/uyNrVqw98suTjPa/Peu3Ak1OmnL53wICfmzZsdLhKhYoX+DMSJfYGidvfEn+VlgCBkOh+cZfSji/oK9EWOzInFn/0ETGyxQyVwwcPRMxQAYl/t+Yb1qBePRYsHVutUuVTWXXq7KtVPfMgJ+tj/Dmc5kR9CZ1/oDluwuIOR+BXPbLcg1YAgZDgcCe5U/ii3quXajhm1ChiZKsZKsePRyXxTRs3sFbNm4eQOAjaf1gj64hjI5qE0AogEBIf1/IFPVfPL96pw03s9OnTxMgWcOb0b7rNkm/t1Inpqw46M9ySfIFkaAmEkuRSoVTDmOL8uXO6fTb79u4dLxK/7JXlsdSajUAoUX5xVwZf3Af1ApwvvvACMbIVIazLl1m0VEFknTw0YkQ8SDwHBE7KhQRCCYMsy392u+TP9Fwq3bvezi5cuECsbBL5Qghrb9QKyyenTImF3/v3Lj6StN4jy13wrGnGEwglEB5JGa7nUqlToybbvWsXsbIVIawDkYWwhH7K7NkotXfcdeKW5G/dsnxfalJSOZrlBEKJJnGpnl71JpT25r79NrGyBRw/djQqiUM/pXxKql3SLlBFreQdXkmexcm7q8vl+m+a3QRC6XCp/IMft1fppRoOv3+osCwJzmmogMQ/WriAVUwvb9alAjfJCbhKOGF/5HHJI/j3TTweTzJ/pNfQrCYQSp81PlUvuNm0UTY7cOAAsbJZDZWLkTVUENhctWKFaMJhgMQPcSv7bbckP8k33btSZLkqNuDMzMw/0gwmEEo53C53MzQK0GsU8eHChcTKJpF75YrQQYlc8LORtW7eIqTgJ0KpfFmarQQCIZTE3e6/IxCml6UyZtRocqmYCWzm54vO99HSDHdu38Z63nGnbpoht8JfpJlKIBCiuFSUaXoulRZNmrLjx44ROxvISoEULbr76PXKxO+HDBxIJE4gEOxBcSnN1Y4vkVMNEYBbvWoVsXRk9hbSvceOHFZlaKN09vH3i4955BFddwqROIFAiE7iinI9xJH0XCqTJkwksg5jeYO8kU4oXCcGyNs/Q2XWq68ayBWXZtAsJRAI0V0qsvyMHonf0qkTO3PmDDG3j7wvXhSWt5WemD5LfNmnn7DqlatEzVBxS9L87DLZf6BZSiAQIpO4JLUWSndRXCqVMjLY+nXrSnc5fX4+y7lwgR09fEiQ9y4Tlnc4n/jar1ezrNp19FwqX91www3/QbOUQCBEJnGP55/cGv9Rr9gEWSqHDx1iubm5pYq88/Ly2NnTp0UpvQhY2iBvfxL/adMPrEPbG/WCm9tIB5xAIBiwxpUJeiSOnPEmDRuxu3v1YnNmzWYb1q9nJ0+eLJHph6q/+yI7deI427/3V5V8HSDvoIbH7IGhQ/VI/Lg7yV2JZiiBQIgKt8tdX09LxZdyKJdLEt9XKp/B2rVpyx4a8SCbPWsW2/LTT+zE8eOiz2SiEjdOGWfPnGaHDx6M2vDYKmnj39+vX8c+W7qETZ44kd+/NnpVmxdTFKUhzVACgRAV6ILOCWOFqY4xnHxA6pJG6plVqrLmTZqyIYMGs3fnvsO+XbuW7du3j125cqVYkzc2nZwL59mxI0fY3j17Chs3WCVsf9LG91s2b2LLPv2UvTlnDhvBLW/k3VerVLnw/unc5ytuSWpLM5RAIBhwqUiP2GoDppES3ANQQER3oIb1sljvu3qy0Y8+yl6bOVMQ+/59+4Ub5moR+dZhcYO4L5w/z04cOyrcJXrFOXoWts/K/vGH70U3+48XfcimT57MhgwcxDp16MA3uCqiATXuj9mGx5CWpdlJIBB0oShKFfhgndS49pE6rHWR5VI+Q2RkoFFw/z592ZPTprOlHy8R5A53zLFjx0TutdN+duEq4ScCEDcs7n2/7BEkHGxx+yzpYIsaA9/7yH7bTz+yb7/5mi1ZtIjNf/dd9vzTT7P7Bg1i7Vq3ZnVr1WKVMyoUpmdi2GgAUeCR5X40OwkEgi6QyuaVpMUxbdqrWes+NwwIDgUvGdxqR850s8ZN2B23d2MPPvCAsN6nTp4iNM1XLF/Ofty8me3bu5cdOnhIZMmcOHGCneekDHcNMkiCiR8aJmiVhsbFx48eERa3j4x9w0fkO7ZuYVt/3Mw2bdjAvlvzjbCmv1m1UrhB3n/vXfbyCy+wcaNHs/sHD2YD+vZjnTt2FKcMbEo+XXBci8/Kdqxrj0vej3Z6NDsJBIIxl4os3+aRpKvx6MIezR0DgveRPH6X7k0RfuR63IpvUK8ea5hVn7Vs1px16nAT69H9Djagf3/2wNBhbMyoUWzShAnsiYmT2KTHJrBJ48er47HH2MRx49iEsePY2EdHsUdGPigyQwYPGMD69OrFunfpyjq2a89fs5l4/bo1a7E6NWuKjQUkDfeQ77P5hlm3iLWhTCtDKoYEAsGES0VCbnJRkLgZK943fITqI30f8QuSTXKF/H3w/wse/j5rRy1qK0OW16VJkkKzkkAgmIJbUqYXRxIvZeNnryzXodlIIBDMW+PJSgNOIqeJSIuOwKEuSTORQCBYQsZ1GX+FBConk5NEqHEdeQgs81GdZiGBQLAFr9f7J3eyu6ZHkoZxcvmEj8NFFfAsBSMf1rdHUh5ISkr6H5p9BALBUSD10O12p6JRr8clv8QJZ62REn0a+pa3W5J/QJGVFsCkLBQCgRBzlEW3dfjN3bLcX2iRy/I65DNzMjpPxKw3+D2S5Z18vO51Kd3TkpNvoClFIBCKlNRdLtd/c2KXvbKc7ZGU4W5JeR7NDDhpbVb96qXODZPHxzl+3Qf41w18fIAYg9slP8jvUSMQd2Zm5h9p6hAIhGILdKNJvSH1/7ySVI1bnLdyq/0ePkZyYnuVj2Wc2LbysVcjut/4uKz5hosbIRdom1AO/3pCPXHI+/jYrRH0J5ygX+PkPJZf60CUyPPrvYX/bT1vcrIHGxx15iEQCCXKck9KSvoLenu63W4XfMGc6TK9itIC7gVY8pwIJ3Nr/gWRISN88NIbnCwXcKL8nP/+a/7v9bDy+e+38+938e9/FcSqunSwKRwUX1XC5RuFvEe4MPjGwf/PJuH+kaTVYjOR5UX8Z2+jlyXeT1jMeG+X/Dg+Cyfm3vx3HXHKgK43Thz43KlJSeVA0AgAlyFfNoFAIEQnflizIMzK11//n/DJw8pHxxu4JjweTzIqTbEhpLhcbljA+N5HuN5y3iT8HTaO9HLl/pf/7O/a6/xZc2tcQ7eYQCAQCAQCgUAgEAgEAoFAIBAIBAKBQCAQCAQCgUAgEAgEAoFAIBAIBAKBQCAQCAQCgUAgEAgEAoFAIBAIBAKBQCAQCAQCgUAgEAgEAoFAIBAIBAKBQCAQCAQCgUAgEAgEAoFAIBAIBAKBQCAQCAQCgUCwgrKZmZl/TEpK+ovb7f67x+P5J74vAdd1jdfr/RMGvqfHTCAQih2ys7P/IMvynzlR/Y2P67zlvEmciFO9klTd7XLX98pyI21kuyWprUeWu/DRzyMpD/Ax0S0pz3sk6Q2PS/7QI8kr+O/WeSV5O//7J0DsCXhLrk2RpPJuWe7Jr+tVfk2f8Gv7VHwvyz3wOyJ0AoFQLFD5+uv/k5PwdEG+kryWk9SP/OsePg5zIj7lluQL/PuLfuMKH/l8MANjI7fG/yeR7keKy+Xm9+Bp/tkPRrjOPE7o+90ueVJqUlI5mkEEAqFIAZIF2RokZbPj+woJROIpitIQn9ngtXGCl1anyHJVmkUEAoFIvIjhdbkyOCn/ZP4apdUyB80kAoFQJLjhhhv+wy3LIz2y/Aofi9yS/Asnp9zSROK4B15Jftvqdbol5QX+MtfSbCJERFpa2n8piiK53W5XUQ2Px5OsRegJJRQZGRn/D1alW5Ju5oT+Orcyz5cGEkfAln/WMzau87hXkurSDCJEBF9QdyGYwifLviIcP/PJXoeeRukhdG6h36cFM0syiZflVviLdk8dfG3cT7OGEJnEXcrgGPkszYyLSDOjp1F6gMwVbjy8W5JJHKmVWmaOzfUhzaAZQyASJxS/uSdJTWy4VYo9iaMgiX/Or2xb4pLyfnaZ7D/QjCGE99m5XBU8kjKBT5alHlneyb/+xkdBjEk7H3nC/OteLe1qLrda0ulplC64XK7/5s9+DVniusHNmTRbCIYmXFpy8g3uZHcNryQN5cT+MZ9A55wlb2mXyFRwyX1FxZ7b7UIaGlkZpdoaf7Uk+8SRXeLAuhlGM4VgGiI9zOVuxifQMicsc7ck/6AoShW6s4SAk6D1wF9CZKdoRT6nKTuFUGRA+S+3yr+2TeKyfB/dTUJpI3Eh2iVJb1pfO8q0MpQnTrC90GT5fpskfsbjcmXRnSSUNhIHIPjFT7TrLVzjctJQITgzCV2upjZzendIkvRvupOE0kjiADdiMjXXpAGBL+kqVBtB/jRDCM6QeLK7hh2/Hvzh6eXK/S/dSUJpJXFxrV7vdW6X/KCm5hhOfuAKvx+b+N8MkWX5HzQ7CA5bESL1kEicQCRuD2U5Qf/L61Lu4GT+DLe4XxKDf++W5a5oeIG/oZlBIBInEIkTCAQicQKROIFAJE4kTiASJxCIxAlE4kTiBAKROIFInEAgEicSJxCJEwhE4nFHZmbmHyG6hS4zUHCEngsflVFY4S3nTeJf/16CBbmuQQobv95akP6FNo7XpbTzJivtFZfSXPws2V1De1ZxSXMjEi9ZwNoRncJc7vroasRHS8wvzDNID2OOeZI9FdFRrBh+/Gu9Xu/fUCXLryENvIBm1fi8KS6XG3n+EAo0sjZwfVhrGFrOf9GmjSYwiZdF8wGhmOiSh2iKcgs0+Vt0FDrGx0k+uU7wr4f52O11yd/xrx8gdxf9ISFgBMnUMs7qV5TFZoIJAW0NDAiO4WEjhzhNkhQxcWS5NojWLUmd+GfpCf0ZvgjG8s/4lCA//hlBvnrvJRoWy/Jt/P+8xq9tMx9ntQrcS1rRCcZl7Wen1ebG0qt84d2CSZ3IJC6aT0hSPZCHwyMbZBXpnoPM/J8vBu6ltrCTIb2MdYX5xZ/xjfwZ386f7z2Yc/y1n+Bz9Xktf3wy5oOVDVtriVf4GXAvMBegVupNTvbAgMG94e/Rij/rWz0upY9HUoar0tTSc+L9JWWaAZnoa0SbRUkZxF/rPawjvuYvaPPpst8cu6T9DOvuK36N08W9LKLWjHhfYbxJUm9+vc9CEluVRpZ2qXwgeOGk+Lyi+5n0E+eRz1TlTWUif2ZtsF6xloPnnLbWtvGv2/n/nV3k7ScTjcTFw+EWJb/ho/mkWgUlOBtKjCC8jSrZSE0yrsv4q5XPJPqJ4vNgsqDHpEv+ENoYWtOAr7TPuUF76Pu1iX5WnfjS1YifX5YXYbGGe0+QjLoohW7HZSvNOvj4ki/wzrGahLEmcWyG/PoP+BGIU+MKX/wP+95HbJSS8oBWwDNbGAJqmb14vvzZr+Tr4Fv+/RatYfQRbU3l4LWiluNzcjV0L2W5Dt/gH8c9RXNm/vkWa3rm6hyTlK+xFrW+AQc1A+a8NjfydES4wpI3f49q4pol+eforxFx/IYOTzBY8HrxMOxgVUMOW/RQUNdantVmNnxsFYYhf0aaSuu10IkK7KuqfA1iJxI3St6S1JZPqnla0wlHm1to1sVSPvE7miU1cYy0pz8TaYF9oR3xAo6FoiExtxyMaXUYuW7pudQbUv8v0UgcR2LNonK8uQkn5jGFm3SSO4X/7FBM3odb6IbWqSQNi8X74xmFcxcICQHnrvkIuowFW7VOAvpNmmG304l1EdzoRhiLouWg6MXg/7uNSUXt+ksAEr9GWN6q5OdZnc+DXXeLeuxTpmlHxi800jd6TedgbZnpRhQ7EpeW+ZM4juyYqCavx+Akld5wejLGmsRVBUHhQsp1+H5cgYuuNJK48A9LylvO31PpPBrSRDpZ2vF1w2XF1/w6E1b3FfXEJGS4tZOMvEFzrxSYvH/b4XYhEo9sff9Nm7xGFtBx/rePaPKePh83tCz+7FWUFhbkQjfDZ23kc4oAiXqc/SXwqOUcieO61I1MuF9i0lYPPlonF1msSRy+aUE6COCiY5VwYwn3itkjdIHmfljNn+MonPj8RaoQFOcb9efaa18sEhKX5S4Q0NJcBJdiQeJwe2hxo5i0bsSpD/Efp+YXYk1wc5kwas6o7jCpI5IftDiCiCngeQsxQLUv8QoTz3kfXotIPFwEGO3kVOs715j1rNwZLUqMo7fwSZu5PiwYWb7JkDXgdv8di131mUnPOWO5Scu0AJbM/70k1k2thWtFlm9L1OwUbHiadb7A4PtcggXHCXoc/L94hpF8rQiAi+cgy60QmNTmUn68SDww80ppx9fGfCdaLPpIHD53zUUX68bpO5zouQuXp9Y/+IrB9z2MjdCIkSKMR84n4lSv/7pHUySpPJF4mEBhGN9TNLJ71oi/jS/UgaYtWU7k0Fw37QJCGhYsJ5skrkkFr4jixz+kWWcnbQRx/N9ztVPPs6hSDPlzHqDz+gg4LkFsQXMhmU0RK4vAssgmsunaMkri4UiMk3l328aCS34ZmRha8DKcL/iMegIRp5AzzrRzVKbbDHSW5YTcT3uOhtwnmBOmeQhuNOGajcoZp8GhROKBk/M6/roLTXyGbUbTtISlzP/eArGtt5IKpiQrDfj/32tjgYGcdwT9/LLqGhKpYo0x0WCdiZQykUYmCP+KjUV2CRkrCUziZfl9mRrJZQR3AWRhrWYiBW/WWobQ1XiTuN+G1dume2W3loIbbBx8ia5fqDuAywrzX7PWHzFooUYbh5BZZPWa4fYxt3lJ661yFNwsamwt4jPOQSopkbjfcZjvfE+b2+2l8SYzScZZtB5esBJdt/p+Efy2G7jV1C2a9QiXADIr7PhuOfnOKuNAAUNRkLjWqepImNfci7RBp4NQyOrhr722qEhcFJ5I8idOBXRxAoa7JtomJ2odJPkdG1Z5gRXL2OdW4qQ6x9T7cWu6jI1aELhXtLlcED5IKrUhEi/8LMIPlWMm4g23hblF7m5m0XL5DZa1BUupuubqYLasY0l+DW4mw75hFJRYf7+tiEkkGom7k901w1iJcDF9gudQJkaVdZp1WiQkrr6/8oADbrQTOFUYLQDTTrXfWH6/KDUQOi6OSmZdSFg7DnkIloTNiHMwjpTQJI4yeS3H08z7b8TNNeXisJFbzIlxptkdXfXv23CpiA1HGYUIuslTTTr/v3ssv6cst0okElczhES1rv/iPYWUzFjXMWg+5StFR+JSE5tZM/uQsWHWTy26FVl33VnKr9YKecy+1xInsq7U4jJRABS0SUi9Sz2JI1VMLXe1dOwvY5LEr7fmFxfjV/igTREZNFvU1EMr75eLEuAwBT/G/LVmj52BllK/RCFx+G1VOYGAubEJ+cPZZcrEXCsHsQmrfmknSFz1VevWUEQ8YUKCwcr7qpWslq3x4zCoLNzrZy2cMnZ5kjxeR561LN8VvHE58QwTnsSFxoMVl4MsTzb7XkJvQy2Dt+aXVlMZTZG4DYv4S03bxaqFeLvVjBX/YpfiTOJqIZj8Q2BGhfKxE2lspYLEXfJLtvzF1p/xZbOnPZFW6JI/tZoR44Q1jpiTWtlNJO6PazVBGQsBOOVuS4ERc9kvwbv61HiROIKpdp4toubWj9nmAsZFQeKIhwTlNl/hxPAKTltxXUOJTeL32rx2q5Wk+UiRNEugNoqRcmD0ORHYxsnF/3mXehIXgQo1lc6039aAyl8kcnnN8vW65JVm0tOKksQRzLOex2xus4o3iWsB6p8DUy+VR4tCjCixSVwZbDMe0MlqiqVZI8wmifvy3tciFVer7LaUq665ZDdobpXLVjNtSgyJW03BAzmhyi7O5IJxEFWBiUDidjQ/tIKMYkniqn51SLD4EtIvi2QNlWIS14KqlyyeAvqa9MH/BS5GB1Ipc9X6C2kqXDr+EgsGURZBTk1TPRvyw6WWxLUc1+VWyRS6yfEmcaH/YCKtsShJXOTzWjvlFFcSv0ZoY0femDZD8J9IPH4krhW05cSDxMXzV8W5nJQBuCiEsGT5aVTwYs2YzQQrchQlidt878MQtkKlIvKDuVVeV51Q3DJQhfDbiaMehINcyh1IA+ILpr8YLnmlnYcO1cJEIHGpZJH4tVpmwHEdYpgDYSQi8RJJ4khrHBlDXZfL2npZgmpVVIbGey4lHInb8ach60J1qQif72lNDChHW0xaxxHx2nkOa48nDImXFEscwWhky2jPWTdWwudVLyLxkknimivtUgyJPMBlC/0iGICaD70skXjo5B8fj4fh9PGLSDx+JI6jrWZ9nTOx+LZTimHJJHGk3Go64PFc87lqkY/0iObCLUsk/vvx+D0icSLxcCSOxarqRQsxq0sWCOLdeDXsJRKPH4mL+y3LPWyKvNnRL9qBZ+bU3EJ6zLWJSuJC7CqCxKqJasavNcnaJXEcC5EWSSQeUxLfAItHq86zulivxCt/l0g8viSu6n2jVVqRGXJw1y6AVIhp0lYJQeqIpHU0S8WFqAL1Um8cH600vC0qEtfShb6ycSOhc1wPGxkqseI5zByniMQtzalf1EbAtrsY/aoJXxGJlyASF/E0kT5ruluX02MzEiqMWq3/0JTKdkSwTPJEtoYkv8Z3h4zSQeLSeXTRKe6BYyJxy8dWZ4LRLvlDO9IFROLFk8T9rntDURK5aPyip40OSVAD3SUCdwcTPtsEtsQvO6G0RyReLEm8kMy1BgU2CF26Ch3xWAajiMSLhsQ1Azddc6nmFyGZL4joI9d0oV+wMHF/Mtr3rahIXLSXEs1nrZfQmtVeIBJPOBL/RJM73W3zdQ5rrjci8RJG4hqXXOd2yZP4ax4rIhKPXC0M/7dmiVixQF410onGLonjOGOhbBUoa0sqVb3GR4jESySJwz04V8vNdaIFGQjjU3ThIRIveSSu4VqtfdyrVue8LbcKN0hDrHEE0LyS8r6dPnZGSpC1RrynbbzPV1armviFP2Sz4erzROIlksS3+etRYH6JQL69hZaPtnWxcKsQiRcLEhcQvQlE8wZlouinatsdZ1yOAxXkgTdHFbo/adPdcIf+QpPqmimkCDPmlrGoBqZVX+XaaFwwDw+NSLzEkfjG4LJ7iI4F6YZbGcfQg5NIPCFJ/Fq4YOFiNqoLjpMX4oNQtxSNny0rehr2DAwLWgDK3fZfVJmoa4lb7zlp2xrWeiKesXGNPxe5ghiReCxIPKwAltbkIsfmulhhtqUfkXjRk7hq8ClfiOGSZ5vUjC8rTnP8PuE0xu/5R2ozbdsprOF6eZb1t5CHOkDi03SJVJK62YvsKoOsTgC1hFZeY+MacyB4RSReOkhcFIi55JftZrzwxfxEGQcK5YjE40fiuE/+MRMI2dkIhP4JqdgwCjSX9WGHLPFlAQqI/AePOUDig/QnoDLKTodsNKi1uQCetbX7ueTH48jJZYnEi47ExWuKSk55s11hoxD/JZF4IpE4XKmrnAhUwzUDDtOyW2ySubQa1aSOkbjo9J3srqnnZ7JZvrrGbiEF3w3bisIdG9kxHo/nnzG3qCWpGp9I95nt0E0k7nxTCL6Ab7LphhMdmiRJ+jeReIK4U9QMpQDZDYe7zF+D4kEb/XcxlgckedjoXecbS/XaiOH3NrpVYwKOtL0Tqp9huY3rzLPbJ1B3oqrtmJaK4hNZ/oi0U4qWxEWfVFl+xrYPUz3FXUskngCWuBoPCXb7brHaGCYSUlwutw0+mhswn/gk7WdHV8SbrLQ3sLtVt54gLx3g5FbZEUtGFfvPtXHq2CRzxILA0bNRK7gqCOogU5lIvGhIvPDa+N/ZJPLfcBIkEi/+JK6evkIDkZhjVjSjdN6rlRXvAD/djQ7zQpYmRi76VhpJvdOE9q2m9z1dxmJqYTBQ8Wm3d14sHiaORpqvLFiv5hujXbOps0/sut3zed7BMnn9nt/7ra+oKFFJHB1oSrw7RZZbauqBofnZBlKpzUBoVcnyOtMB8+AKcu0Iv9G81oQy04jWrSqqZU27BKL7UBFz8sahv51N33gO3DtGc0j1AN83NqowBH5EcSnNzbhToMqXeJa4/GRRkriR2AOeNVJcbeuz8I3aSHVzybTE7bki40XiKYrSMMr77EZdjVNcZFHXaXdYTuSTY4pJ5bd3jAb50MLK4sS76HBAQZ2I3IqG9Wcn3VGtzpLGW5QB+P2zuFwZ/PU+0Mq/A1MaZbmfmSwVt9vtCtOZ3eBmqbxl57TjSfJ4rXa75/dxhu1jqfV0wC1G57F6jdJPNon8LFoF2iDx1tZ1z6XxDrhzmqgNfy1lsI1y4BRyMdYbmFb8eCaKZ2CdmViV8yQuPReWFzSf9REjLhRY4EaLGCCOJUqbLVSB8oX5Uqy6QWPhQvTIfislqJpJjZFXbOb9kWmjFllJu8Jeu6RMM2vpqyXAFuMOfGLayf6xI6mA7A073Uu0hWD1WR41I7ivGSSXbaaHrbcaV4FLwsZ7r7Wb4QVr2oZb9BVbJ2hVoCwv1tpHaIhuoIL9KyNSIwbdu2biLQej6dajhdlkvQ4m2M2NLjjNMlxqUeN5rtV+miat4LUOJN+fgZY0JjiCkPB74h5px2bRFQk+b/i2MUE4aT2o9e67EiEDZraVxWZTHwaNL1rbW2CWq9JOu13uG60TiyvLRpkzXBwPmoldYG46ISlqlshVt6S0zE67P61wxdKJS7v2hTbefxskDWwEAZ+2o4Bq1C2rSs4aMmi/19aM5awjbhS0Me4iwvpSHo36/ISeeJSgn5YPXsPAZysrdjOX/KkFQZgCbYL/q0wcACvMISLXLGjphBZcXMMn3SKx4GV5ntYe7mft9wWRH5I0w2x+uAiKqlbKQZuffwuC3GZPAFr2xje23tsl7+cWxkA+byQTLqRrNWXMr2xe90FUEwcUT+ifOg7Z9Y+DBPDctGDnNTrW4fWo/rSl/6NlycCtgWdmxlUHgwpa6Q4oPH6ouSJMbSSqZId0wFb1rBCpkjrpGYfYXI3Hd6QTMALMrlnNyP27CeHBAgizGXLfwpKM1sECraxA0OEyUoRmAEpMXfJotKuy5Gfmu61JrQL7rpUkj5c/3PlF1BC1MIiJyWDklIPNlk/q+rCqRBWq2CxtBWoDrGJ1YimjEKUPdyIQgVhJqgc/oxbs2+iMepuw5H9WZYOVCUjJ899Q1EkvVedzpItGaO84sHEVWqnQykA+NwLfIJooipllcSJ16H2viOC9JL2JojuvS+mMew6ShYCWqOGQ5VdUQS7H9Dfy+WvuhFsUrw/hJv95J4K43GJGpSl/FiPw/loGRa5D778P2h/IWEOgNIzRcA02cwT1kUDA/3YW/o9TetziWlzyy3htrWNXwGaGTTWCmzOyi9klr8S8MXqCRvGXmk5s6Jnm4nRuqtBQEHn0aqJDWGjw6WLSoSM0Ug21xgtHLAQMQQBbNGvoT2WKAKIhqqQMt7nbW7XeV/N7l23EOsHmqS4+EeCJtewlJvxd4fyy8ZHdlH7yn7iaP/q002JCETaTw9Eyg0Q6p/nUMEOWHY7oIAXN6i2IwxwMcKXB18t/ttW+799YpgWMqIBMIFGUJzroxMGoUj4O3kS0eNmW4IC0np9cWxNrsT6wOcHYQrwGr48aEPwbQVNuiAzQDGUj/v1j/LXGwoApY8HUd2lW1lkd8s2zMdEKhKOeWz/a8a6oURYl71q62tHYkzf6mCoPmDl5CA1jNZslLptMuKi+XW12E2Or/72xGdQzXwPhUtpFd8Upd9h2L4TTWlFlk7fF81pR4BIUID8erxMofNABJ01+KnDQxanb0SnYcNTE8jYG1zIgxVE7MZ3Q4bx8TXJ7h+ZG/UTblH/W+NSIkXsS76U1R77WjnX6J+F4V327OQ7euDz+mj/iyAyfdHHT6UZAUs3WUabhqOtwTz1sehtwlDPrlywkcdEHVUyi3NgObpGqaY7BGQojtOuI5fvnCfEpP0scPvM4vK9v5OgFWzWyWejcZxIngKN4X014K27X6l91rcWJDmmfJ7bzyyXvD87yUO+rtFpbd7G87gK4h4Mt8TASISd92lDgRDUOI/Sm1jq8ieN5b+NG7VPCYnfSK6GWg0ttkfKnkdoZc9a3mAzHQNzwA0GbwG7lWrwscxG0k+W7NBfGVs1ddMXkaeOM8LHJ8uuotLIphlQWgTUsOiz2WA5YhFqgMSSGgN/F+r3hYvKfyHgWsX5f33tjvhs5IUH/wqnPpF1zSwT1xbXH8Vr9EwlAovCHx+MZw2UVrLskXIYud/2Yvz9fQ6hADXZjCqKW5aeFn5sPeArCESpiQ7h34vcu+Tst2G2G1C9raoabBbfykx08IGVi2Gi7THY2twI9nmQ1UqxM0CzCT4RVrUZzj2luiF9RYiysFJc8GxYUiEcjr2vLJCAwseDTgrsFMQBRLMSvHwFRTfh9uRZH+BK7O36utvlSHkWACmToVIUngUCILVD3gcA2hoF1W1bkeyd7KiLbCBXIGjd+wDeBz3y8AP+7SKAQvKFMRwwQSSLaBmqJF/8/6m5r8bVchtQAAAAASUVORK5CYII=;" parent="1" vertex="1">
          <mxGeometry x="862.6" y="424.31" width="43.79" height="71.38" as="geometry" />
        </mxCell>
        <mxCell id="tfTOfnyPq8THUDIsA80T-3" value="Suggestions" style="rounded=0;whiteSpace=wrap;html=1;fillColor=#e1d5e7;strokeColor=#9673a6;" parent="1" vertex="1">
          <mxGeometry x="330" y="440" width="80" height="110" as="geometry" />
        </mxCell>
        <mxCell id="tfTOfnyPq8THUDIsA80T-5" value="" style="endArrow=classic;html=1;rounded=0;exitX=0.5;exitY=0;exitDx=0;exitDy=0;entryX=-0.022;entryY=0.521;entryDx=0;entryDy=0;entryPerimeter=0;" parent="1" source="tfTOfnyPq8THUDIsA80T-3" target="oYDGXYUzNn_aLFKgtwb9-16" edge="1">
          <mxGeometry width="50" height="50" relative="1" as="geometry">
            <mxPoint x="470" y="470" as="sourcePoint" />
            <mxPoint x="280" y="340" as="targetPoint" />
            <Array as="points">
              <mxPoint x="370" y="335" />
            </Array>
          </mxGeometry>
        </mxCell>
        <mxCell id="u16fqaeKXYON9Qa9WHFz-1" value="Prometheus" style="rounded=0;whiteSpace=wrap;html=1;fillColor=#e1d5e7;strokeColor=#9673a6;" vertex="1" parent="1">
          <mxGeometry x="840" y="520" width="100" height="110" as="geometry" />
        </mxCell>
        <mxCell id="u16fqaeKXYON9Qa9WHFz-2" value="" style="endArrow=classic;startArrow=classic;html=1;rounded=0;entryX=0;entryY=0.5;entryDx=0;entryDy=0;exitX=1.007;exitY=0.158;exitDx=0;exitDy=0;exitPerimeter=0;" edge="1" parent="1" source="oYDGXYUzNn_aLFKgtwb9-1" target="u16fqaeKXYON9Qa9WHFz-1">
          <mxGeometry width="50" height="50" relative="1" as="geometry">
            <mxPoint x="500" y="570" as="sourcePoint" />
            <mxPoint x="550" y="520" as="targetPoint" />
          </mxGeometry>
        </mxCell>
      </root>
    </mxGraphModel>
  </diagram>
  <diagram id="UhCgT4wZH511t-6Jhzfn" name="Page-2">
    <mxGraphModel dx="1422" dy="794" grid="1" gridSize="10" guides="1" tooltips="1" connect="1" arrows="1" fold="1" page="1" pageScale="1" pageWidth="1100" pageHeight="1700" math="0" shadow="0">
      <root>
        <mxCell id="0" />
        <mxCell id="1" parent="0" />
      </root>
    </mxGraphModel>
  </diagram>
</mxfile>
